<svg width="226" height="74" viewBox="0 0 226 74" fill="none" xmlns="http://www.w3.org/2000/svg">
<path d="M16.344 28.7746C14.1289 28.3787 12.0886 27.8133 10.2815 27.1913C8.41611 26.5128 6.84218 25.6646 5.50143 24.6468C4.16068 23.629 3.11142 22.385 2.3536 21.0279C1.59579 19.6143 1.24601 18.031 1.24601 16.1651C1.24601 14.2991 1.65405 12.6027 2.47016 11.0195C3.28627 9.49277 4.33555 8.1357 5.6763 7.00481C7.01706 5.87391 8.591 5.02574 10.3981 4.40374C12.2052 3.78175 14.0706 3.49902 15.9943 3.49902C17.335 3.49902 18.6758 3.61212 20.0165 3.89484C21.3573 4.17757 22.5814 4.57338 23.7473 5.08228C24.9132 5.59118 26.0207 6.26972 26.9534 7.06135C27.9444 7.85297 28.7023 8.75769 29.3435 9.7755C29.5767 10.1148 29.6932 10.454 29.6932 10.7933C29.7515 11.1326 29.6933 11.4718 29.635 11.8111C29.5767 12.1504 29.4018 12.4897 29.2269 12.7724C29.052 13.0551 28.8771 13.3378 28.644 13.5075C28.4108 13.7336 28.061 13.9598 27.7113 14.1294C27.3615 14.2991 26.9535 14.3556 26.5454 14.4122C26.1374 14.4687 25.7293 14.4122 25.2629 14.2991C24.7966 14.186 24.3885 14.0164 23.9805 13.7336C23.3393 13.2247 22.7563 12.7724 22.2317 12.3766C21.707 11.9808 21.1241 11.698 20.4829 11.4153C19.8999 11.1326 19.2587 10.9629 18.5592 10.8498C17.8597 10.7368 17.0436 10.6802 16.1109 10.6802C15.0616 10.6802 14.1289 10.7933 13.1962 11.076C12.3218 11.3022 11.5057 11.698 10.8644 12.1504C10.2232 12.6027 9.69856 13.1682 9.29051 13.8467C8.88245 14.4687 8.70757 15.2038 8.70757 16.052C8.70757 17.0132 8.94074 17.7483 9.46538 18.3703C9.99003 18.9923 10.6896 19.5012 11.564 19.897C12.4384 20.2928 13.4876 20.6321 14.7118 20.9148C15.936 21.1976 17.2184 21.4803 18.6175 21.763C20.2497 22.1588 21.8236 22.6677 23.3393 23.2332C24.8549 23.7986 26.2539 24.5902 27.4198 25.5515C28.644 26.5128 29.5767 27.6437 30.2762 29.0007C30.9757 30.3578 31.3838 31.9411 31.3838 33.8636C31.3838 35.7296 30.9757 37.4824 30.1596 39.1222C29.3435 40.7055 28.2359 42.1191 26.8369 43.3066C25.4378 44.494 23.8056 45.4553 21.8819 46.1338C19.9582 46.8123 17.918 47.1516 15.7611 47.1516C14.0123 47.1516 12.3218 46.9254 10.7478 46.4731C9.17392 46.0207 7.71658 45.4553 6.37583 44.7202C5.03508 43.9851 3.86921 43.0804 2.87822 42.0626C1.88723 41.0448 1.12942 39.9704 0.546482 38.8395C0.255014 38.2741 0.0801547 37.7086 0.0218612 37.1997C-0.0364323 36.6908 0.0218541 36.2385 0.196735 35.7861C0.371615 35.3337 0.604796 34.9945 0.896264 34.6552C1.18773 34.3159 1.53749 34.0898 1.94554 33.8636C2.87824 33.3547 3.75264 33.2416 4.56875 33.5243C5.38486 33.807 6.20096 34.4856 7.07536 35.5599C8.06635 36.917 9.29051 37.9914 10.7478 38.7264C12.2052 39.4615 13.954 39.8573 15.936 39.8573C16.927 39.8573 17.8596 39.7442 18.7923 39.4615C19.725 39.2353 20.5412 38.8395 21.299 38.3872C22.0568 37.8783 22.6397 37.3128 23.1061 36.6343C23.5724 35.9557 23.8056 35.1641 23.8056 34.2594C23.8056 33.2981 23.5724 32.45 23.1061 31.8845C22.6397 31.2625 22.0568 30.7536 21.299 30.4144C20.5995 30.0185 19.7834 29.7358 18.8507 29.5096C18.1511 29.2269 17.2185 29.0007 16.344 28.7746Z" fill="#F17400"/>
<path d="M97.0806 30.3007C97.0223 29.2263 96.7891 28.152 96.3811 27.1907C95.973 26.2295 95.3901 25.3813 94.6905 24.7028C93.991 23.9677 93.1749 23.4022 92.1839 23.0064C91.1929 22.6106 90.1436 22.3844 89.0361 22.3844C87.8702 22.3844 86.7626 22.6106 85.7716 23.0064C84.7806 23.4022 83.9062 24.0242 83.2067 24.7593C82.5072 25.4944 81.9242 26.3426 81.5745 27.3604C81.1664 28.3782 80.9915 29.396 80.9915 30.5834V43.2494C80.9915 43.7583 80.875 44.2107 80.7001 44.663C80.5252 45.1154 80.2337 45.4547 79.9423 45.7939C79.5925 46.1332 79.2427 46.3594 78.7764 46.529C78.31 46.6986 77.8437 46.8117 77.319 46.8117C76.7944 46.8117 76.3281 46.6986 75.8617 46.529C75.3954 46.3594 74.9873 46.0767 74.6376 45.7939C74.2878 45.4547 73.9963 45.1154 73.7631 44.663C73.53 44.2107 73.4717 43.7583 73.4717 43.2494V30.7531V30.64V30.5834C73.4717 28.4347 73.8797 26.4557 74.6376 24.5897C75.4537 22.7237 76.5029 21.0839 77.902 19.6703C79.301 18.2567 80.9333 17.1823 82.8569 16.3907C84.7806 15.5991 86.8209 15.2033 88.9778 15.2033C91.1929 15.2033 93.2332 15.5991 95.0986 16.3907C96.964 17.1823 98.5962 18.3132 99.9953 19.6703C101.394 21.0839 102.444 22.7237 103.26 24.5897C104.076 26.4557 104.426 28.4913 104.426 30.5834V30.64V30.7531V43.2494C104.426 43.7583 104.309 44.2107 104.134 44.663C103.959 45.1154 103.668 45.4547 103.376 45.7939C103.027 46.1332 102.677 46.3594 102.21 46.529C101.744 46.6986 101.278 46.8117 100.753 46.8117C100.228 46.8117 99.7038 46.6986 99.2958 46.529C98.8294 46.3594 98.4213 46.0767 98.0716 45.7939C97.7218 45.4547 97.4304 45.1154 97.2555 44.663C97.0223 44.2107 96.964 43.7583 96.964 43.2494L97.0806 30.3007Z" fill="#F17400"/>
<path d="M40.8637 23.4035C43.1495 23.4035 45.0026 21.606 45.0026 19.3888C45.0026 17.1715 43.1495 15.3741 40.8637 15.3741C38.5779 15.3741 36.7249 17.1715 36.7249 19.3888C36.7249 21.606 38.5779 23.4035 40.8637 23.4035Z" fill="#F17400"/>
<path d="M63.5981 23.4037C65.8839 23.4037 67.737 21.6063 67.737 19.389C67.737 17.1718 65.8839 15.3744 63.5981 15.3744C61.3123 15.3744 59.4592 17.1718 59.4592 19.389C59.4592 21.6063 61.3123 23.4037 63.5981 23.4037Z" fill="#F17400"/>
<path d="M67.4094 35.3904C67.4094 35.7862 67.3511 36.1255 67.2345 36.4648C67.1762 36.691 67.0596 36.9171 66.943 37.1433C64.4947 42.7978 58.7236 46.8125 51.9616 46.8125C45.1995 46.8125 39.3702 42.7978 36.9801 37.0868V37.0302C36.9218 36.8606 36.8635 36.7475 36.8052 36.5779C36.8052 36.5779 36.8052 36.5779 36.8052 36.5213C36.6887 36.182 36.6304 35.7862 36.6304 35.3904C36.6304 33.2417 38.4375 31.4888 40.6526 31.4888C42.2848 31.4888 43.6839 32.3935 44.2668 33.7506C44.3251 33.8637 44.3834 34.0334 44.4417 34.1464C45.6659 37.0302 48.6388 39.0093 52.0199 39.0093C55.4592 39.0093 58.4322 36.9737 59.6563 34.0333C59.6563 33.9768 59.7146 33.9203 59.7146 33.8637C60.2975 32.4501 61.7549 31.4888 63.3871 31.4888C65.6023 31.4888 67.4094 33.2417 67.4094 35.3904Z" fill="#F17400"/>
<path d="M114.437 15.7982V11.2597C114.437 9.73532 114.714 8.30332 115.269 6.9637C115.846 5.60099 116.631 4.42305 117.624 3.42988C118.618 2.41362 119.772 1.60523 121.089 1.00471C122.429 0.404195 123.861 0.0808386 125.385 0.0346428C125.431 0.0346428 125.466 0.0346428 125.489 0.0346428C125.535 0.0115476 125.581 0 125.627 0C126.713 0 127.614 0.369549 128.33 1.10865C129.069 1.82465 129.438 2.72543 129.438 3.81098C129.438 4.34221 129.335 4.83879 129.127 5.30073C128.942 5.73957 128.676 6.12066 128.33 6.44402C127.983 6.76738 127.579 7.03299 127.117 7.24086C126.655 7.42564 126.159 7.51803 125.627 7.51803H125.454C124.946 7.54112 124.473 7.66815 124.034 7.89912C123.618 8.10699 123.248 8.38416 122.925 8.73061C122.625 9.07706 122.382 9.48126 122.198 9.94319C122.036 10.382 121.955 10.8555 121.955 11.3637V15.7982H124.484C125.015 15.7982 125.512 15.9022 125.974 16.1101C126.436 16.2948 126.829 16.5604 127.152 16.9069C127.498 17.2303 127.764 17.6229 127.949 18.0848C128.157 18.5468 128.261 19.0318 128.261 19.5399C128.261 20.0712 128.157 20.5677 127.949 21.0297C127.764 21.4916 127.498 21.8958 127.152 22.2423C126.829 22.5656 126.436 22.8312 125.974 23.0391C125.512 23.2239 125.015 23.3163 124.484 23.3163H121.955V40.8468C121.955 41.378 121.851 41.8746 121.643 42.3365C121.458 42.7985 121.193 43.2027 120.846 43.5491C120.5 43.8956 120.096 44.1727 119.634 44.3806C119.195 44.5654 118.722 44.6578 118.213 44.6578C117.682 44.6578 117.186 44.5654 116.724 44.3806C116.285 44.1727 115.892 43.8956 115.546 43.5491C115.199 43.2027 114.922 42.7985 114.714 42.3365C114.529 41.8746 114.437 41.378 114.437 40.8468V23.3163H112.67C112.139 23.3163 111.642 23.2239 111.18 23.0391C110.742 22.8312 110.349 22.5541 110.002 22.2076C109.656 21.8612 109.379 21.457 109.171 20.995C108.986 20.5331 108.894 20.0481 108.894 19.5399C108.894 19.0318 108.986 18.5468 109.171 18.0848C109.379 17.6229 109.656 17.2303 110.002 16.9069C110.349 16.5604 110.742 16.2948 111.18 16.1101C111.642 15.9022 112.139 15.7982 112.67 15.7982H114.437Z" fill="#008838"/>
<path d="M140.078 31.9083C140.378 32.786 140.794 33.5713 141.325 34.2642C141.879 34.9571 142.515 35.5576 143.231 36.0657C143.947 36.5508 144.732 36.9319 145.586 37.209C146.441 37.4631 147.342 37.5901 148.289 37.5901C150.668 37.5901 152.539 36.9665 153.901 35.7193C154.594 35.2343 155.252 34.9455 155.876 34.8532C156.5 34.7608 157.089 34.807 157.643 34.9917C158.036 35.1303 158.382 35.3497 158.682 35.65C159.006 35.9272 159.271 36.239 159.479 36.5854C159.71 36.955 159.872 37.3592 159.964 37.798C160.08 38.2137 160.103 38.641 160.033 39.0799C159.987 39.5187 159.849 39.9576 159.618 40.3964C159.41 40.8121 159.087 41.1932 158.648 41.5397C158.14 42.0016 157.562 42.452 156.915 42.8909C156.269 43.3066 155.518 43.6762 154.663 43.9995C153.832 44.3229 152.885 44.5769 151.823 44.7617C150.783 44.9696 149.605 45.0735 148.289 45.0735C146.002 45.0735 143.854 44.6462 141.845 43.7916C139.835 42.914 138.08 41.7245 136.579 40.2232C135.077 38.7219 133.888 36.9781 133.01 34.9917C132.132 32.9823 131.694 30.8343 131.694 28.5477C131.694 26.2611 132.132 24.1131 133.01 22.1037C133.888 20.0943 135.077 18.3505 136.579 16.8723C138.08 15.371 139.835 14.193 141.845 13.3384C143.854 12.4608 146.002 12.0219 148.289 12.0219C150.552 12.0219 152.677 12.4492 154.663 13.3038C156.673 14.1584 158.428 15.3248 159.93 16.803C161.454 18.2581 162.655 19.9788 163.533 21.9651C164.41 23.9514 164.872 26.0764 164.918 28.3398C164.918 29.4023 164.572 30.2684 163.879 30.9382C163.209 31.5849 162.32 31.9083 161.211 31.9083H140.078ZM157.193 25.6722C156.939 24.7252 156.534 23.8706 155.98 23.1084C155.426 22.3462 154.767 21.6995 154.005 21.1683C153.243 20.637 152.388 20.2328 151.441 19.9557C150.518 19.6785 149.524 19.5399 148.462 19.5399C147.4 19.5399 146.395 19.6901 145.448 19.9903C144.524 20.2906 143.681 20.7063 142.919 21.2376C142.18 21.7688 141.544 22.4155 141.013 23.1777C140.482 23.9168 140.089 24.7483 139.835 25.6722H157.193Z" fill="#008838"/>
<path d="M177.459 31.1115C176.466 30.6957 175.438 30.2453 174.376 29.7603C173.313 29.2522 172.343 28.6401 171.465 27.9241C170.588 27.185 169.86 26.3073 169.283 25.2911C168.728 24.2748 168.451 23.0622 168.451 21.6533C168.451 20.1982 168.74 18.8817 169.317 17.7037C169.895 16.5027 170.692 15.4864 171.708 14.655C172.747 13.8004 173.971 13.1537 175.38 12.7148C176.789 12.2529 178.337 12.0219 180.023 12.0219C180.993 12.0219 181.998 12.1028 183.037 12.2644C184.076 12.403 185.058 12.6455 185.982 12.992C186.929 13.3153 187.772 13.7542 188.511 14.3085C189.25 14.8397 189.816 15.4864 190.208 16.2486C190.555 16.9877 190.67 17.7268 190.555 18.4659C190.463 19.1819 190.208 19.7709 189.793 20.2328C189.331 20.7641 188.765 21.1221 188.095 21.3068C187.425 21.4916 186.755 21.4339 186.086 21.1336C185.601 20.8334 185.15 20.5677 184.734 20.3368C184.342 20.1058 183.926 19.9095 183.487 19.7478C183.072 19.5861 182.621 19.4706 182.136 19.4014C181.674 19.309 181.143 19.2628 180.542 19.2628C179.041 19.2628 177.898 19.4706 177.113 19.8864C176.35 20.279 175.969 20.8911 175.969 21.7226C175.969 22.1614 176.108 22.531 176.385 22.8312C176.685 23.1084 177.078 23.3625 177.563 23.5934C178.071 23.8244 178.672 24.0438 179.364 24.2517C180.08 24.4596 180.854 24.6905 181.686 24.9446C183.048 25.3603 184.342 25.8454 185.566 26.3997C186.813 26.954 187.899 27.6354 188.823 28.4438C189.77 29.2291 190.52 30.1645 191.075 31.25C191.629 32.3356 191.906 33.6175 191.906 35.0957C191.906 36.4815 191.606 37.7865 191.005 39.0106C190.428 40.2116 189.619 41.2625 188.58 42.1633C187.541 43.0641 186.294 43.7801 184.838 44.3113C183.406 44.8194 181.847 45.0735 180.161 45.0735C179.099 45.0735 177.967 44.9696 176.766 44.7617C175.588 44.5769 174.433 44.2536 173.302 43.7916C172.193 43.3066 171.165 42.6945 170.218 41.9554C169.271 41.1932 168.509 40.2578 167.932 39.1492C167.354 38.0405 167.169 37.0589 167.377 36.2043C167.608 35.3266 168.07 34.6684 168.763 34.2295C169.456 33.7907 170.299 33.629 171.292 33.7445C172.285 33.86 173.255 34.3566 174.202 35.2343C174.479 35.5807 174.826 35.9156 175.242 36.239C175.657 36.5392 176.119 36.8164 176.627 37.0704C177.136 37.3014 177.678 37.4862 178.256 37.6248C178.856 37.7634 179.48 37.8326 180.127 37.8326C180.704 37.8326 181.247 37.7749 181.755 37.6594C182.263 37.5208 182.714 37.3361 183.106 37.1051C183.499 36.8741 183.811 36.597 184.042 36.2736C184.273 35.9503 184.388 35.5807 184.388 35.165C184.388 34.6799 184.134 34.2411 183.626 33.8484C183.118 33.4327 182.494 33.0516 181.755 32.7051C181.039 32.3587 180.277 32.0584 179.468 31.8044C178.683 31.5272 178.013 31.2962 177.459 31.1115Z" fill="#008838"/>
<path d="M205.026 12.4377H217.082C217.59 12.4377 218.076 12.5416 218.537 12.7495C218.999 12.9573 219.404 13.2345 219.75 13.581C220.096 13.9274 220.374 14.3316 220.582 14.7935C220.789 15.2555 220.893 15.7405 220.893 16.2486C220.893 16.7568 220.789 17.2418 220.582 17.7037C220.397 18.1426 220.131 18.5352 219.785 18.8817C219.438 19.205 219.034 19.4706 218.572 19.6785C218.11 19.8633 217.614 19.9557 217.082 19.9557H205.026V28.7209C205.026 29.9451 205.257 31.0999 205.719 32.1855C206.204 33.2479 206.85 34.1833 207.659 34.9917C208.467 35.777 209.414 36.4006 210.5 36.8626C211.608 37.3245 212.786 37.5555 214.034 37.5555C215.142 37.5555 216.17 37.4054 217.117 37.1051C218.064 36.7817 218.942 36.2621 219.75 35.5461C220.004 35.3151 220.247 35.1188 220.478 34.9571C220.732 34.7723 221.02 34.6222 221.344 34.5067C221.921 34.2988 222.522 34.2411 223.145 34.3335C223.769 34.4028 224.358 34.6915 224.912 35.1996C225.328 35.5923 225.617 36.0426 225.778 36.5508C225.963 37.0358 226.032 37.5555 225.986 38.1098C225.963 38.641 225.836 39.1607 225.605 39.6688C225.374 40.177 225.051 40.6274 224.635 41.02C223.249 42.3596 221.656 43.3759 219.854 44.0688C218.052 44.7386 216.112 45.0735 214.034 45.0735C211.747 45.0735 209.599 44.6462 207.59 43.7916C205.603 42.937 203.859 41.7707 202.358 40.2925C200.857 38.8143 199.667 37.082 198.79 35.0957C197.935 33.0862 197.508 30.9382 197.508 28.6516V6.40937C197.508 5.87815 197.6 5.38157 197.785 4.91963C197.993 4.45769 198.27 4.0535 198.616 3.70704C198.963 3.36059 199.367 3.09498 199.829 2.9102C200.291 2.70233 200.788 2.59839 201.319 2.59839C201.827 2.59839 202.3 2.70233 202.739 2.9102C203.201 3.09498 203.594 3.36059 203.917 3.70704C204.264 4.0535 204.529 4.45769 204.714 4.91963C204.922 5.38157 205.026 5.87815 205.026 6.40937V12.4377Z" fill="#008838"/>
<path d="M7.896 56.7348V68.438C7.896 68.6257 7.85927 68.8012 7.78582 68.9644C7.72053 69.1194 7.62668 69.2541 7.50426 69.3684C7.38184 69.4826 7.23902 69.5765 7.07579 69.6499C6.91257 69.7152 6.7371 69.7479 6.54939 69.7479C6.36985 69.7479 6.19846 69.7152 6.03524 69.6499C5.88017 69.5765 5.74143 69.4826 5.61901 69.3684C5.50475 69.2541 5.4109 69.1194 5.33745 68.9644C5.27216 68.8012 5.23951 68.6257 5.23951 68.438V56.7348H1.5792C1.39149 56.7348 1.21602 56.7021 1.0528 56.6368C0.897736 56.5634 0.758995 56.4654 0.636577 56.343C0.522319 56.2206 0.428465 56.0819 0.355014 55.9268C0.289724 55.7636 0.257079 55.5881 0.257079 55.4004C0.257079 55.2209 0.289724 55.0495 0.355014 54.8862C0.428465 54.723 0.522319 54.5843 0.636577 54.47C0.758995 54.3476 0.897736 54.2538 1.0528 54.1885C1.21602 54.115 1.39149 54.0783 1.5792 54.0783H11.5563C11.7359 54.0783 11.9072 54.115 12.0705 54.1885C12.2337 54.2538 12.3724 54.3476 12.4867 54.47C12.6091 54.5924 12.703 54.7353 12.7683 54.8985C12.8417 55.0617 12.8784 55.2331 12.8784 55.4127C12.8784 55.6004 12.8417 55.7758 12.7683 55.9391C12.703 56.0941 12.6091 56.2329 12.4867 56.3553C12.3724 56.4695 12.2337 56.5634 12.0705 56.6368C11.9072 56.7021 11.7359 56.7348 11.5563 56.7348H7.896ZM10.5569 64.0554C10.5569 63.2474 10.7119 62.4925 11.0221 61.7907C11.3322 61.0806 11.7525 60.4604 12.283 59.9299C12.8135 59.3994 13.4296 58.9832 14.1315 58.6812C14.8415 58.3711 15.5964 58.216 16.3962 58.216C17.2042 58.216 17.9591 58.3711 18.661 58.6812C19.371 58.9832 19.9872 59.3994 20.5095 59.9299C21.04 60.4604 21.4562 61.0806 21.7582 61.7907C22.0683 62.4925 22.2234 63.2474 22.2234 64.0554V68.389C22.2234 68.5767 22.1866 68.7522 22.1132 68.9154C22.0479 69.0786 21.954 69.2215 21.8316 69.3439C21.7092 69.4663 21.5623 69.5642 21.3909 69.6377C21.2277 69.7111 21.0522 69.7479 20.8645 69.7479C20.5462 69.7479 20.2769 69.654 20.0566 69.4663C19.8362 69.2786 19.6893 69.0419 19.6159 68.7563C19.1507 69.1072 18.6447 69.3847 18.0979 69.5887C17.5592 69.7928 16.992 69.8948 16.3962 69.8948C15.5964 69.8948 14.8415 69.7438 14.1315 69.4418C13.4296 69.1317 12.8135 68.7114 12.283 68.1809C11.7525 67.6504 11.3322 67.0302 11.0221 66.3201C10.7119 65.6101 10.5569 64.8552 10.5569 64.0554ZM13.2134 64.0554C13.2134 64.4879 13.295 64.9001 13.4582 65.2918C13.6296 65.6754 13.8581 66.0141 14.1437 66.3079C14.4375 66.5935 14.7762 66.8221 15.1598 66.9934C15.5434 67.1567 15.9555 67.2383 16.3962 67.2383C16.837 67.2383 17.2491 67.1567 17.6327 66.9934C18.0244 66.8221 18.3631 66.5935 18.6487 66.3079C18.9344 66.0141 19.1588 65.6754 19.322 65.2918C19.4853 64.9001 19.5669 64.4879 19.5669 64.0554C19.5669 63.6147 19.4853 63.2026 19.322 62.819C19.1588 62.4272 18.9344 62.0885 18.6487 61.8029C18.3631 61.5173 18.0244 61.2928 17.6327 61.1296C17.2491 60.9582 16.837 60.8725 16.3962 60.8725C15.9637 60.8725 15.5516 60.9582 15.1598 61.1296C14.7762 61.2928 14.4375 61.5173 14.1437 61.8029C13.8581 62.0885 13.6296 62.4272 13.4582 62.819C13.295 63.2026 13.2134 63.6147 13.2134 64.0554ZM27.3496 64.9613C26.9987 64.8144 26.6355 64.6553 26.2601 64.4839C25.8847 64.3043 25.5419 64.088 25.2318 63.835C24.9217 63.5739 24.6646 63.2638 24.4606 62.9047C24.2647 62.5456 24.1668 62.1171 24.1668 61.6193C24.1668 61.1051 24.2688 60.6399 24.4728 60.2237C24.6768 59.7993 24.9584 59.4402 25.3175 59.1464C25.6848 58.8445 26.1173 58.6159 26.6151 58.4609C27.113 58.2976 27.6598 58.216 28.2555 58.216C28.5983 58.216 28.9533 58.2446 29.3206 58.3017C29.6878 58.3507 30.0347 58.4364 30.3611 58.5588C30.6958 58.6731 30.9936 58.8281 31.2548 59.024C31.516 59.2117 31.7159 59.4402 31.8546 59.7095C31.9771 59.9707 32.0179 60.2319 31.9771 60.493C31.9444 60.746 31.8546 60.9541 31.7077 61.1174C31.5445 61.3051 31.3446 61.4316 31.1079 61.4969C30.8712 61.5621 30.6345 61.5417 30.3979 61.4356C30.2265 61.3295 30.0673 61.2357 29.9204 61.1541C29.7817 61.0725 29.6348 61.0031 29.4797 60.946C29.3328 60.8888 29.1737 60.848 29.0023 60.8236C28.8391 60.7909 28.6514 60.7746 28.4392 60.7746C27.9087 60.7746 27.5047 60.848 27.2272 60.9949C26.9579 61.1337 26.8232 61.35 26.8232 61.6438C26.8232 61.7988 26.8722 61.9294 26.9701 62.0355C27.0762 62.1334 27.215 62.2232 27.3864 62.3048C27.5659 62.3864 27.7781 62.464 28.0229 62.5374C28.2759 62.6109 28.5493 62.6925 28.8432 62.7822C29.3247 62.9292 29.7817 63.1005 30.2142 63.2964C30.6549 63.4923 31.0385 63.733 31.365 64.0187C31.6996 64.2962 31.9648 64.6267 32.1607 65.0103C32.3566 65.3938 32.4545 65.8468 32.4545 66.3691C32.4545 66.8588 32.3484 67.3199 32.1362 67.7524C31.9322 68.1768 31.6465 68.5482 31.2793 68.8665C30.912 69.1847 30.4713 69.4377 29.9572 69.6254C29.4512 69.805 28.9003 69.8948 28.3045 69.8948C27.9291 69.8948 27.5292 69.858 27.1048 69.7846C26.6886 69.7193 26.2805 69.605 25.8806 69.4418C25.4889 69.2704 25.1257 69.0542 24.7911 68.793C24.4565 68.5237 24.1872 68.1931 23.9831 67.8014C23.7791 67.4097 23.7138 67.0628 23.7873 66.7609C23.8689 66.4507 24.0321 66.2181 24.2769 66.0631C24.5218 65.908 24.8197 65.8509 25.1706 65.8917C25.5215 65.9325 25.8643 66.108 26.1989 66.4181C26.2968 66.5405 26.4193 66.6588 26.5662 66.7731C26.7131 66.8792 26.8763 66.9771 27.0558 67.0669C27.2354 67.1485 27.4272 67.2138 27.6312 67.2628C27.8434 67.3117 28.0638 67.3362 28.2923 67.3362C28.4963 67.3362 28.6881 67.3158 28.8676 67.275C29.0472 67.226 29.2063 67.1608 29.3451 67.0791C29.4838 66.9975 29.594 66.8996 29.6756 66.7853C29.7572 66.6711 29.798 66.5405 29.798 66.3936C29.798 66.2222 29.7082 66.0671 29.5287 65.9284C29.3491 65.7815 29.1288 65.6468 28.8676 65.5244C28.6146 65.402 28.3453 65.2959 28.0597 65.2061C27.7822 65.1082 27.5455 65.0266 27.3496 64.9613ZM37.0903 58.3629H41.3505C41.5301 58.3629 41.7014 58.3997 41.8647 58.4731C42.0279 58.5466 42.1707 58.6445 42.2931 58.7669C42.4155 58.8893 42.5135 59.0322 42.5869 59.1954C42.6604 59.3586 42.6971 59.53 42.6971 59.7095C42.6971 59.8891 42.6604 60.0605 42.5869 60.2237C42.5216 60.3788 42.4278 60.5175 42.3054 60.6399C42.1829 60.7542 42.0401 60.848 41.8769 60.9215C41.7137 60.9868 41.5382 61.0194 41.3505 61.0194H37.0903V64.1166C37.0903 64.5492 37.1719 64.9572 37.3352 65.3408C37.5066 65.7162 37.7351 66.0467 38.0207 66.3324C38.3064 66.6099 38.641 66.8302 39.0246 66.9934C39.4163 67.1567 39.8325 67.2383 40.2732 67.2383C40.665 67.2383 41.0281 67.1852 41.3627 67.0791C41.6974 66.9649 42.0075 66.7813 42.2931 66.5283C42.3829 66.4466 42.4686 66.3773 42.5502 66.3201C42.64 66.2549 42.742 66.2018 42.8563 66.161C43.0603 66.0875 43.2725 66.0671 43.4928 66.0998C43.7132 66.1243 43.9213 66.2263 44.1172 66.4058C44.2641 66.5446 44.3661 66.7037 44.4232 66.8833C44.4885 67.0547 44.513 67.2383 44.4967 67.4342C44.4885 67.6219 44.4436 67.8055 44.362 67.985C44.2804 68.1646 44.1661 68.3237 44.0192 68.4625C43.5296 68.9358 42.9664 69.2949 42.3299 69.5398C41.6933 69.7764 41.0077 69.8948 40.2732 69.8948C39.4653 69.8948 38.7063 69.7438 37.9962 69.4418C37.2944 69.1399 36.6782 68.7277 36.1477 68.2054C35.6172 67.6831 35.1969 67.071 34.8868 66.3691C34.5848 65.6591 34.4339 64.9001 34.4339 64.0921V56.2329C34.4339 56.0451 34.4665 55.8697 34.5318 55.7065C34.6052 55.5432 34.7032 55.4004 34.8256 55.278C34.948 55.1556 35.0908 55.0617 35.2541 54.9964C35.4173 54.923 35.5928 54.8862 35.7805 54.8862C35.96 54.8862 36.1273 54.923 36.2824 54.9964C36.4456 55.0617 36.5843 55.1556 36.6986 55.278C36.821 55.4004 36.9149 55.5432 36.9802 55.7065C37.0536 55.8697 37.0903 56.0451 37.0903 56.2329V58.3629ZM48.2844 65.2429C48.3905 65.553 48.5374 65.8305 48.7251 66.0753C48.9209 66.3201 49.1454 66.5323 49.3984 66.7119C49.6514 66.8833 49.9289 67.0179 50.2308 67.1159C50.5328 67.2056 50.8511 67.2505 51.1857 67.2505C52.0263 67.2505 52.6874 67.0302 53.1689 66.5895C53.4137 66.4181 53.6463 66.3161 53.8667 66.2834C54.087 66.2508 54.2951 66.2671 54.491 66.3324C54.6297 66.3814 54.7521 66.4589 54.8582 66.565C54.9725 66.6629 55.0664 66.7731 55.1398 66.8955C55.2214 67.0261 55.2785 67.1689 55.3112 67.324C55.352 67.4709 55.3602 67.6219 55.3357 67.7769C55.3194 67.932 55.2704 68.0871 55.1888 68.2421C55.1153 68.389 55.0011 68.5237 54.846 68.6461C54.6665 68.8093 54.4624 68.9685 54.2339 69.1235C54.0054 69.2704 53.7402 69.401 53.4382 69.5153C53.1444 69.6295 52.8098 69.7193 52.4344 69.7846C52.0671 69.858 51.6509 69.8948 51.1857 69.8948C50.3777 69.8948 49.6187 69.7438 48.9087 69.4418C48.1987 69.1317 47.5784 68.7114 47.0479 68.1809C46.5175 67.6504 46.0972 67.0343 45.787 66.3324C45.4769 65.6224 45.3218 64.8634 45.3218 64.0554C45.3218 63.2474 45.4769 62.4884 45.787 61.7784C46.0972 61.0684 46.5175 60.4522 47.0479 59.9299C47.5784 59.3994 48.1987 58.9832 48.9087 58.6812C49.6187 58.3711 50.3777 58.216 51.1857 58.216C51.9855 58.216 52.7363 58.367 53.4382 58.669C54.1482 58.9709 54.7685 59.3831 55.2989 59.9054C55.8376 60.4196 56.262 61.0276 56.5721 61.7294C56.8822 62.4313 57.0455 63.1821 57.0618 63.9819C57.0618 64.3574 56.9394 64.6634 56.6945 64.9001C56.4578 65.1286 56.1436 65.2429 55.7519 65.2429H48.2844ZM54.3318 63.0393C54.2421 62.7047 54.0992 62.4027 53.9034 62.1334C53.7075 61.8641 53.4749 61.6356 53.2056 61.4479C52.9363 61.2602 52.6343 61.1174 52.2997 61.0194C51.9732 60.9215 51.6223 60.8725 51.2469 60.8725C50.8715 60.8725 50.5165 60.9256 50.1819 61.0317C49.8554 61.1378 49.5575 61.2847 49.2882 61.4724C49.027 61.6601 48.8026 61.8886 48.6149 62.1579C48.4272 62.4191 48.2884 62.7129 48.1987 63.0393H54.3318ZM71.7788 53.9681C72.5133 53.9681 73.2192 54.066 73.8966 54.2619C74.5822 54.4496 75.2187 54.7149 75.8064 55.0576C76.394 55.4004 76.9326 55.8166 77.4223 56.3063C77.912 56.7878 78.3282 57.3265 78.6709 57.9222C79.0137 58.5098 79.279 59.1423 79.4667 59.8197C79.6625 60.4971 79.7605 61.203 79.7605 61.9376C79.7605 63.0393 79.5483 64.0717 79.1239 65.0347C78.7077 65.9978 78.1364 66.8425 77.41 67.5688C76.6918 68.287 75.8472 68.8542 74.876 69.2704C73.9129 69.6867 72.8805 69.8948 71.7788 69.8948C70.677 69.8948 69.6405 69.6867 68.6694 69.2704C67.7063 68.8542 66.8657 68.287 66.1475 67.5688C65.4375 66.8425 64.8744 65.9978 64.4582 65.0347C64.0501 64.0717 63.8461 63.0393 63.8461 61.9376C63.8461 61.203 63.9399 60.4971 64.1276 59.8197C64.3153 59.1423 64.5806 58.5098 64.9233 57.9222C65.2661 57.3265 65.6783 56.7878 66.1598 56.3063C66.6413 55.8166 67.1758 55.4004 67.7635 55.0576C68.3511 54.7149 68.9836 54.4496 69.6609 54.2619C70.3383 54.066 71.0443 53.9681 71.7788 53.9681ZM71.791 56.6246C71.0565 56.6246 70.3669 56.7633 69.7222 57.0408C69.0774 57.3183 68.5143 57.6978 68.0328 58.1793C67.5594 58.6608 67.184 59.2239 66.9065 59.8687C66.6372 60.5134 66.5025 61.203 66.5025 61.9376C66.5025 62.6802 66.6372 63.3739 66.9065 64.0187C67.184 64.6634 67.5594 65.2265 68.0328 65.7081C68.5143 66.1814 69.0774 66.5568 69.7222 66.8343C70.3669 67.1036 71.0565 67.2383 71.791 67.2383C72.5255 67.2383 73.2152 67.1036 73.8599 66.8343C74.5128 66.5568 75.0759 66.1814 75.5493 65.7081C76.0308 65.2265 76.4103 64.6634 76.6878 64.0187C76.9652 63.3739 77.104 62.6802 77.104 61.9376C77.104 61.203 76.9652 60.5134 76.6878 59.8687C76.4103 59.2239 76.0308 58.6608 75.5493 58.1793C75.0759 57.6978 74.5128 57.3183 73.8599 57.0408C73.2152 56.7633 72.5255 56.6246 71.791 56.6246ZM82.6207 59.5504V57.9467C82.6207 57.4081 82.7186 56.9021 82.9145 56.4287C83.1185 55.9472 83.396 55.531 83.7469 55.1801C84.0979 54.821 84.5059 54.5353 84.9711 54.3231C85.4445 54.1109 85.9505 53.9967 86.4891 53.9804C86.5054 53.9804 86.5177 53.9804 86.5258 53.9804C86.5421 53.9722 86.5585 53.9681 86.5748 53.9681C86.9584 53.9681 87.2767 54.0987 87.5297 54.3599C87.7908 54.6128 87.9214 54.9311 87.9214 55.3147C87.9214 55.5024 87.8847 55.6779 87.8112 55.8411C87.7459 55.9962 87.6521 56.1308 87.5297 56.2451C87.4072 56.3594 87.2644 56.4532 87.1012 56.5267C86.938 56.5919 86.7625 56.6246 86.5748 56.6246H86.5136C86.334 56.6328 86.1667 56.6776 86.0117 56.7593C85.8648 56.8327 85.7342 56.9306 85.6199 57.0531C85.5138 57.1755 85.4281 57.3183 85.3628 57.4815C85.3057 57.6366 85.2772 57.8039 85.2772 57.9834V59.5504H86.1708C86.3585 59.5504 86.534 59.5871 86.6972 59.6606C86.8604 59.7259 86.9992 59.8197 87.1134 59.9421C87.2358 60.0564 87.3297 60.1951 87.395 60.3584C87.4684 60.5216 87.5052 60.693 87.5052 60.8725C87.5052 61.0602 87.4684 61.2357 87.395 61.3989C87.3297 61.5621 87.2358 61.705 87.1134 61.8274C86.9992 61.9416 86.8604 62.0355 86.6972 62.1089C86.534 62.1742 86.3585 62.2069 86.1708 62.2069H85.2772V68.4013C85.2772 68.589 85.2404 68.7644 85.167 68.9277C85.1017 69.0909 85.0078 69.2337 84.8854 69.3561C84.763 69.4785 84.6202 69.5765 84.4569 69.6499C84.3019 69.7152 84.1346 69.7479 83.955 69.7479C83.7673 69.7479 83.5919 69.7152 83.4286 69.6499C83.2736 69.5765 83.1348 69.4785 83.0124 69.3561C82.89 69.2337 82.7921 69.0909 82.7186 68.9277C82.6533 68.7644 82.6207 68.589 82.6207 68.4013V62.2069H81.9963C81.8086 62.2069 81.6332 62.1742 81.4699 62.1089C81.3149 62.0355 81.1761 61.9376 81.0537 61.8151C80.9313 61.6927 80.8334 61.5499 80.7599 61.3867C80.6946 61.2235 80.662 61.0521 80.662 60.8725C80.662 60.693 80.6946 60.5216 80.7599 60.3584C80.8334 60.1951 80.9313 60.0564 81.0537 59.9421C81.1761 59.8197 81.3149 59.7259 81.4699 59.6606C81.6332 59.5871 81.8086 59.5504 81.9963 59.5504H82.6207Z" fill="#008838"/>
<path d="M97.8166 60.6032H106.092V55.3882C106.092 55.2086 106.129 55.0372 106.202 54.874C106.276 54.7108 106.374 54.572 106.496 54.4578C106.619 54.3435 106.761 54.2538 106.925 54.1885C107.088 54.115 107.263 54.0783 107.451 54.0783C107.631 54.0783 107.798 54.115 107.953 54.1885C108.116 54.2538 108.255 54.3435 108.369 54.4578C108.492 54.572 108.585 54.7108 108.651 54.874C108.716 55.0372 108.749 55.2086 108.749 55.3882V68.438C108.749 68.6257 108.712 68.8012 108.638 68.9644C108.573 69.1194 108.479 69.2541 108.357 69.3684C108.243 69.4826 108.104 69.5765 107.941 69.6499C107.777 69.7152 107.606 69.7479 107.426 69.7479C107.239 69.7479 107.063 69.7152 106.9 69.6499C106.745 69.5765 106.606 69.4826 106.484 69.3684C106.361 69.2541 106.264 69.1194 106.19 68.9644C106.125 68.8012 106.092 68.6257 106.092 68.438V63.2719H97.8166V68.438C97.8166 68.6257 97.7799 68.8012 97.7065 68.9644C97.6412 69.1194 97.5473 69.2541 97.4249 69.3684C97.3025 69.4826 97.1597 69.5765 96.9964 69.6499C96.8332 69.7152 96.6618 69.7479 96.4823 69.7479C96.2946 69.7479 96.1191 69.7152 95.9559 69.6499C95.8008 69.5765 95.6621 69.4826 95.5396 69.3684C95.4254 69.2541 95.3315 69.1194 95.2581 68.9644C95.1928 68.8012 95.1602 68.6257 95.1602 68.438V55.3882C95.1602 55.2086 95.1928 55.0372 95.2581 54.874C95.3315 54.7108 95.4254 54.572 95.5396 54.4578C95.6621 54.3435 95.8008 54.2538 95.9559 54.1885C96.1191 54.115 96.2946 54.0783 96.4823 54.0783C96.6618 54.0783 96.8332 54.115 96.9964 54.1885C97.1597 54.2538 97.3025 54.3435 97.4249 54.4578C97.5473 54.572 97.6412 54.7108 97.7065 54.874C97.7799 55.0372 97.8166 55.2086 97.8166 55.3882V60.6032ZM113.726 65.2429C113.832 65.553 113.979 65.8305 114.166 66.0753C114.362 66.3201 114.587 66.5323 114.84 66.7119C115.093 66.8833 115.37 67.0179 115.672 67.1159C115.974 67.2056 116.292 67.2505 116.627 67.2505C117.468 67.2505 118.129 67.0302 118.61 66.5895C118.855 66.4181 119.088 66.3161 119.308 66.2834C119.528 66.2508 119.736 66.2671 119.932 66.3324C120.071 66.3814 120.193 66.4589 120.3 66.565C120.414 66.6629 120.508 66.7731 120.581 66.8955C120.663 67.0261 120.72 67.1689 120.753 67.324C120.793 67.4709 120.801 67.6219 120.777 67.7769C120.761 67.932 120.712 68.0871 120.63 68.2421C120.557 68.389 120.442 68.5237 120.287 68.6461C120.108 68.8093 119.904 68.9685 119.675 69.1235C119.447 69.2704 119.181 69.401 118.88 69.5153C118.586 69.6295 118.251 69.7193 117.876 69.7846C117.508 69.858 117.092 69.8948 116.627 69.8948C115.819 69.8948 115.06 69.7438 114.35 69.4418C113.64 69.1317 113.02 68.7114 112.489 68.1809C111.959 67.6504 111.538 67.0343 111.228 66.3324C110.918 65.6224 110.763 64.8634 110.763 64.0554C110.763 63.2474 110.918 62.4884 111.228 61.7784C111.538 61.0684 111.959 60.4522 112.489 59.9299C113.02 59.3994 113.64 58.9832 114.35 58.6812C115.06 58.3711 115.819 58.216 116.627 58.216C117.427 58.216 118.178 58.367 118.88 58.669C119.59 58.9709 120.21 59.3831 120.74 59.9054C121.279 60.4196 121.703 61.0276 122.013 61.7294C122.324 62.4313 122.487 63.1821 122.503 63.9819C122.503 64.3574 122.381 64.6634 122.136 64.9001C121.899 65.1286 121.585 65.2429 121.193 65.2429H113.726ZM119.773 63.0393C119.683 62.7047 119.541 62.4027 119.345 62.1334C119.149 61.8641 118.916 61.6356 118.647 61.4479C118.378 61.2602 118.076 61.1174 117.741 61.0194C117.415 60.9215 117.064 60.8725 116.688 60.8725C116.313 60.8725 115.958 60.9256 115.623 61.0317C115.297 61.1378 114.999 61.2847 114.73 61.4724C114.468 61.6601 114.244 61.8886 114.056 62.1579C113.869 62.4191 113.73 62.7129 113.64 63.0393H119.773ZM123.531 64.0554C123.531 63.2474 123.686 62.4925 123.996 61.7907C124.306 61.0806 124.727 60.4604 125.257 59.9299C125.788 59.3994 126.404 58.9832 127.106 58.6812C127.816 58.3711 128.571 58.216 129.37 58.216C130.178 58.216 130.933 58.3711 131.635 58.6812C132.345 58.9832 132.961 59.3994 133.484 59.9299C134.014 60.4604 134.43 61.0806 134.732 61.7907C135.042 62.4925 135.198 63.2474 135.198 64.0554V68.389C135.198 68.5767 135.161 68.7522 135.087 68.9154C135.022 69.0786 134.928 69.2215 134.806 69.3439C134.683 69.4663 134.536 69.5642 134.365 69.6377C134.202 69.7111 134.026 69.7479 133.839 69.7479C133.52 69.7479 133.251 69.654 133.031 69.4663C132.81 69.2786 132.663 69.0419 132.59 68.7563C132.125 69.1072 131.619 69.3847 131.072 69.5887C130.533 69.7928 129.966 69.8948 129.37 69.8948C128.571 69.8948 127.816 69.7438 127.106 69.4418C126.404 69.1317 125.788 68.7114 125.257 68.1809C124.727 67.6504 124.306 67.0302 123.996 66.3201C123.686 65.6101 123.531 64.8552 123.531 64.0554ZM126.188 64.0554C126.188 64.4879 126.269 64.9001 126.432 65.2918C126.604 65.6754 126.832 66.0141 127.118 66.3079C127.412 66.5935 127.75 66.8221 128.134 66.9934C128.518 67.1567 128.93 67.2383 129.37 67.2383C129.811 67.2383 130.223 67.1567 130.607 66.9934C130.999 66.8221 131.337 66.5935 131.623 66.3079C131.909 66.0141 132.133 65.6754 132.296 65.2918C132.459 64.9001 132.541 64.4879 132.541 64.0554C132.541 63.6147 132.459 63.2026 132.296 62.819C132.133 62.4272 131.909 62.0885 131.623 61.8029C131.337 61.5173 130.999 61.2928 130.607 61.1296C130.223 60.9582 129.811 60.8725 129.37 60.8725C128.938 60.8725 128.526 60.9582 128.134 61.1296C127.75 61.2928 127.412 61.5173 127.118 61.8029C126.832 62.0885 126.604 62.4272 126.432 62.819C126.269 63.2026 126.188 63.6147 126.188 64.0554ZM141.695 67.0914C141.883 67.0914 142.054 67.1281 142.209 67.2016C142.372 67.275 142.511 67.377 142.625 67.5076C142.748 67.63 142.842 67.7728 142.907 67.9361C142.972 68.0993 143.005 68.2707 143.005 68.4502C143.005 68.8256 142.882 69.1358 142.638 69.3806C142.393 69.6254 142.078 69.7479 141.695 69.7479C141.14 69.7479 140.618 69.654 140.128 69.4663C139.646 69.2786 139.222 69.0174 138.855 68.6828C138.488 68.3482 138.194 67.9442 137.973 67.4709C137.761 66.9975 137.651 66.4752 137.643 65.9039V65.8182V55.3025C137.643 55.1148 137.675 54.9393 137.741 54.7761C137.806 54.6128 137.896 54.4741 138.01 54.3599C138.133 54.2374 138.271 54.1436 138.426 54.0783C138.581 54.0048 138.749 53.9681 138.928 53.9681C139.108 53.9681 139.279 54.0048 139.442 54.0783C139.614 54.1436 139.761 54.2374 139.883 54.3599C140.014 54.4741 140.116 54.6128 140.189 54.7761C140.263 54.9393 140.299 55.1148 140.299 55.3025V65.8182C140.299 66.2426 140.43 66.5609 140.691 66.7731C140.952 66.9853 141.287 67.0914 141.695 67.0914ZM147.267 58.3629H151.527C151.707 58.3629 151.878 58.3997 152.041 58.4731C152.205 58.5466 152.347 58.6445 152.47 58.7669C152.592 58.8893 152.69 59.0322 152.764 59.1954C152.837 59.3586 152.874 59.53 152.874 59.7095C152.874 59.8891 152.837 60.0605 152.764 60.2237C152.698 60.3788 152.604 60.5175 152.482 60.6399C152.36 60.7542 152.217 60.848 152.054 60.9215C151.89 60.9868 151.715 61.0194 151.527 61.0194H147.267V64.1166C147.267 64.5492 147.349 64.9572 147.512 65.3408C147.683 65.7162 147.912 66.0467 148.197 66.3324C148.483 66.6099 148.818 66.8302 149.201 66.9934C149.593 67.1567 150.009 67.2383 150.45 67.2383C150.842 67.2383 151.205 67.1852 151.539 67.0791C151.874 66.9649 152.184 66.7813 152.47 66.5283C152.56 66.4466 152.645 66.3773 152.727 66.3201C152.817 66.2549 152.919 66.2018 153.033 66.161C153.237 66.0875 153.449 66.0671 153.67 66.0998C153.89 66.1243 154.098 66.2263 154.294 66.4058C154.441 66.5446 154.543 66.7037 154.6 66.8833C154.665 67.0547 154.69 67.2383 154.673 67.4342C154.665 67.6219 154.62 67.8055 154.539 67.985C154.457 68.1646 154.343 68.3237 154.196 68.4625C153.706 68.9358 153.143 69.2949 152.507 69.5398C151.87 69.7764 151.184 69.8948 150.45 69.8948C149.642 69.8948 148.883 69.7438 148.173 69.4418C147.471 69.1399 146.855 68.7277 146.324 68.2054C145.794 67.6831 145.374 67.071 145.064 66.3691C144.762 65.6591 144.611 64.9001 144.611 64.0921V56.2329C144.611 56.0451 144.643 55.8697 144.708 55.7065C144.782 55.5432 144.88 55.4004 145.002 55.278C145.125 55.1556 145.268 55.0617 145.431 54.9964C145.594 54.923 145.769 54.8862 145.957 54.8862C146.137 54.8862 146.304 54.923 146.459 54.9964C146.622 55.0617 146.761 55.1556 146.875 55.278C146.998 55.4004 147.092 55.5432 147.157 55.7065C147.23 55.8697 147.267 56.0451 147.267 56.2329V58.3629ZM167.324 68.4502C167.324 68.6379 167.287 68.8093 167.213 68.9644C167.148 69.1194 167.054 69.2582 166.932 69.3806C166.809 69.4949 166.667 69.5846 166.503 69.6499C166.34 69.7152 166.169 69.7479 165.989 69.7479C165.81 69.7479 165.638 69.7152 165.475 69.6499C165.32 69.5846 165.181 69.4949 165.059 69.3806C164.936 69.2582 164.839 69.1194 164.765 68.9644C164.7 68.8093 164.667 68.6379 164.667 68.4502V63.933C164.667 63.9085 164.667 63.884 164.667 63.8595C164.667 63.8269 164.671 63.7983 164.679 63.7738C164.663 63.3658 164.586 62.9863 164.447 62.6353C164.316 62.2844 164.128 61.9784 163.884 61.7172C163.647 61.456 163.361 61.252 163.027 61.1051C162.692 60.95 162.321 60.8725 161.913 60.8725C161.496 60.8725 161.109 60.946 160.75 61.0929C160.391 61.2316 160.081 61.4316 159.819 61.6927C159.558 61.9457 159.35 62.2518 159.195 62.6109C159.048 62.9618 158.975 63.3495 158.975 63.7738V68.4257C158.975 68.6135 158.938 68.7889 158.864 68.9521C158.799 69.1072 158.705 69.2459 158.583 69.3684C158.469 69.4826 158.33 69.5765 158.167 69.6499C158.003 69.7152 157.832 69.7479 157.653 69.7479C157.465 69.7479 157.289 69.7152 157.126 69.6499C156.963 69.5765 156.82 69.4826 156.698 69.3684C156.583 69.2459 156.49 69.1072 156.416 68.9521C156.351 68.7889 156.318 68.6135 156.318 68.4257V55.3147C156.318 55.127 156.351 54.9515 156.416 54.7883C156.49 54.6251 156.587 54.4823 156.71 54.3599C156.832 54.2374 156.975 54.1436 157.138 54.0783C157.302 54.0048 157.473 53.9681 157.653 53.9681C157.832 53.9681 158.003 54.0048 158.167 54.0783C158.33 54.1436 158.469 54.2374 158.583 54.3599C158.705 54.4823 158.799 54.6251 158.864 54.7883C158.938 54.9515 158.975 55.127 158.975 55.3147V59.3056C159.399 58.9628 159.856 58.6975 160.346 58.5098C160.844 58.314 161.366 58.216 161.913 58.216C162.688 58.216 163.406 58.367 164.067 58.669C164.728 58.9628 165.3 59.3668 165.781 59.8809C166.263 60.3869 166.638 60.9827 166.907 61.6682C167.185 62.3538 167.324 63.0842 167.324 63.8595V63.9207V63.933V68.4502ZM172.167 64.2635C172.167 64.6797 172.245 65.0715 172.4 65.4387C172.555 65.7978 172.767 66.112 173.036 66.3814C173.306 66.6425 173.624 66.8506 173.991 67.0057C174.358 67.1526 174.75 67.226 175.166 67.226C175.583 67.226 175.97 67.1485 176.329 66.9934C176.697 66.8302 177.011 66.6139 177.272 66.3446C177.541 66.0671 177.754 65.7448 177.909 65.3775C178.064 65.0103 178.141 64.6144 178.141 64.1901V64.1656V59.6851C178.141 59.5055 178.178 59.3382 178.251 59.1831C178.325 59.0199 178.423 58.8771 178.545 58.7547C178.668 58.6323 178.81 58.5384 178.974 58.4731C179.137 58.3997 179.312 58.3629 179.5 58.3629C179.68 58.3629 179.847 58.3997 180.002 58.4731C180.165 58.5384 180.304 58.6323 180.418 58.7547C180.541 58.8771 180.634 59.0199 180.7 59.1831C180.765 59.3382 180.798 59.5055 180.798 59.6851V64.1778V64.1901V64.239C180.798 64.9082 180.687 65.5448 180.467 66.1488C180.247 66.7445 179.945 67.2873 179.561 67.7769C179.178 68.2584 178.721 68.6706 178.19 69.0134C177.66 69.348 177.084 69.5887 176.464 69.7356V72.5512C176.464 72.739 176.427 72.9144 176.354 73.0776C176.289 73.2409 176.195 73.3796 176.072 73.4939C175.95 73.6163 175.807 73.7101 175.644 73.7754C175.489 73.8489 175.321 73.8856 175.142 73.8856C174.758 73.8856 174.44 73.7591 174.187 73.5061C173.934 73.2531 173.808 72.9348 173.808 72.5512V69.7234C173.187 69.5683 172.616 69.3194 172.094 68.9766C171.571 68.6339 171.118 68.2217 170.735 67.7402C170.351 67.2587 170.049 66.72 169.829 66.1243C169.617 65.5285 169.511 64.9001 169.511 64.239V59.6851C169.511 59.5055 169.543 59.3382 169.609 59.1831C169.682 59.0199 169.776 58.8771 169.89 58.7547C170.013 58.6323 170.151 58.5384 170.306 58.4731C170.47 58.3997 170.645 58.3629 170.833 58.3629C171.012 58.3629 171.184 58.3997 171.347 58.4731C171.51 58.5384 171.653 58.6323 171.775 58.7547C171.898 58.8771 171.992 59.0199 172.057 59.1831C172.13 59.3382 172.167 59.5055 172.167 59.6851V64.2635ZM191.519 67.0914L198.314 67.1036C198.493 67.1036 198.665 67.1403 198.828 67.2138C198.991 67.2791 199.13 67.3729 199.244 67.4954C199.366 67.6178 199.46 67.7606 199.526 67.9238C199.599 68.0871 199.636 68.2584 199.636 68.438C199.636 68.6257 199.599 68.8012 199.526 68.9644C199.46 69.1194 199.366 69.2582 199.244 69.3806C199.13 69.4949 198.991 69.5887 198.828 69.6622C198.665 69.7275 198.493 69.756 198.314 69.7479H190.234H190.185C190.136 69.7479 190.087 69.7479 190.038 69.7479C189.997 69.7479 189.957 69.7397 189.916 69.7234C189.883 69.7234 189.85 69.7152 189.818 69.6989C189.54 69.6254 189.312 69.4745 189.132 69.2459C188.953 69.0174 188.863 68.7481 188.863 68.438V55.3882C188.863 55.2086 188.896 55.0372 188.961 54.874C189.034 54.7108 189.128 54.572 189.242 54.4578C189.365 54.3435 189.504 54.2538 189.659 54.1885C189.822 54.115 189.997 54.0783 190.185 54.0783C190.365 54.0783 190.536 54.115 190.699 54.1885C190.862 54.2538 191.005 54.3435 191.128 54.4578C191.25 54.572 191.344 54.7108 191.409 54.874C191.483 55.0372 191.519 55.2086 191.519 55.3882V67.0914ZM201.375 55.6575C201.375 55.4535 201.412 55.2617 201.486 55.0821C201.567 54.9026 201.673 54.7475 201.804 54.6169C201.935 54.4863 202.09 54.3843 202.269 54.3109C202.449 54.2293 202.636 54.1885 202.832 54.1885C203.028 54.1885 203.216 54.2293 203.395 54.3109C203.575 54.3843 203.73 54.4863 203.861 54.6169C203.999 54.7475 204.105 54.9026 204.179 55.0821C204.26 55.2617 204.301 55.4535 204.301 55.6575C204.301 55.8534 204.26 56.0411 204.179 56.2206C204.105 56.392 203.999 56.543 203.861 56.6736C203.73 56.8041 203.575 56.9102 203.395 56.9918C203.216 57.0653 203.028 57.102 202.832 57.102C202.636 57.102 202.449 57.0653 202.269 56.9918C202.09 56.9102 201.935 56.8041 201.804 56.6736C201.673 56.543 201.567 56.392 201.486 56.2206C201.412 56.0411 201.375 55.8534 201.375 55.6575ZM204.167 68.4257C204.167 68.6135 204.13 68.7889 204.056 68.9521C203.991 69.1072 203.897 69.2459 203.775 69.3684C203.661 69.4826 203.522 69.5765 203.359 69.6499C203.195 69.7152 203.024 69.7479 202.844 69.7479C202.665 69.7479 202.494 69.7152 202.33 69.6499C202.167 69.5765 202.024 69.4826 201.902 69.3684C201.779 69.2459 201.682 69.1072 201.608 68.9521C201.543 68.7889 201.51 68.6135 201.51 68.4257V59.6851C201.51 59.5055 201.547 59.3382 201.62 59.1831C201.694 59.0199 201.792 58.8771 201.914 58.7547C202.037 58.6323 202.179 58.5384 202.343 58.4731C202.506 58.3997 202.681 58.3629 202.869 58.3629C203.049 58.3629 203.216 58.3997 203.371 58.4731C203.534 58.5384 203.673 58.6323 203.787 58.7547C203.91 58.8771 204.003 59.0199 204.069 59.1831C204.134 59.3382 204.167 59.5055 204.167 59.6851V68.4257ZM207.645 59.5504V57.9467C207.645 57.4081 207.743 56.9021 207.939 56.4287C208.143 55.9472 208.421 55.531 208.772 55.1801C209.123 54.821 209.531 54.5353 209.996 54.3231C210.469 54.1109 210.975 53.9967 211.514 53.9804C211.53 53.9804 211.542 53.9804 211.551 53.9804C211.567 53.9722 211.583 53.9681 211.6 53.9681C211.983 53.9681 212.301 54.0987 212.554 54.3599C212.816 54.6128 212.946 54.9311 212.946 55.3147C212.946 55.5024 212.909 55.6779 212.836 55.8411C212.771 55.9962 212.677 56.1308 212.554 56.2451C212.432 56.3594 212.289 56.4532 212.126 56.5267C211.963 56.5919 211.787 56.6246 211.6 56.6246H211.538C211.359 56.6328 211.191 56.6776 211.036 56.7593C210.889 56.8327 210.759 56.9306 210.645 57.0531C210.539 57.1755 210.453 57.3183 210.388 57.4815C210.33 57.6366 210.302 57.8039 210.302 57.9834V59.5504H211.196C211.383 59.5504 211.559 59.5871 211.722 59.6606C211.885 59.7259 212.024 59.8197 212.138 59.9421C212.261 60.0564 212.354 60.1951 212.42 60.3584C212.493 60.5216 212.53 60.693 212.53 60.8725C212.53 61.0602 212.493 61.2357 212.42 61.3989C212.354 61.5621 212.261 61.705 212.138 61.8274C212.024 61.9416 211.885 62.0355 211.722 62.1089C211.559 62.1742 211.383 62.2069 211.196 62.2069H210.302V68.4013C210.302 68.589 210.265 68.7644 210.192 68.9277C210.126 69.0909 210.033 69.2337 209.91 69.3561C209.788 69.4785 209.645 69.5765 209.482 69.6499C209.327 69.7152 209.159 69.7479 208.98 69.7479C208.792 69.7479 208.617 69.7152 208.453 69.6499C208.298 69.5765 208.16 69.4785 208.037 69.3561C207.915 69.2337 207.817 69.0909 207.743 68.9277C207.678 68.7644 207.645 68.589 207.645 68.4013V62.2069H207.021C206.833 62.2069 206.658 62.1742 206.495 62.1089C206.34 62.0355 206.201 61.9376 206.078 61.8151C205.956 61.6927 205.858 61.5499 205.785 61.3867C205.719 61.2235 205.687 61.0521 205.687 60.8725C205.687 60.693 205.719 60.5216 205.785 60.3584C205.858 60.1951 205.956 60.0564 206.078 59.9421C206.201 59.8197 206.34 59.7259 206.495 59.6606C206.658 59.5871 206.833 59.5504 207.021 59.5504H207.645ZM216.706 65.2429C216.812 65.553 216.959 65.8305 217.146 66.0753C217.342 66.3201 217.567 66.5323 217.82 66.7119C218.073 66.8833 218.35 67.0179 218.652 67.1159C218.954 67.2056 219.272 67.2505 219.607 67.2505C220.447 67.2505 221.109 67.0302 221.59 66.5895C221.835 66.4181 222.067 66.3161 222.288 66.2834C222.508 66.2508 222.716 66.2671 222.912 66.3324C223.051 66.3814 223.173 66.4589 223.279 66.565C223.394 66.6629 223.488 66.7731 223.561 66.8955C223.643 67.0261 223.7 67.1689 223.732 67.324C223.773 67.4709 223.781 67.6219 223.757 67.7769C223.741 67.932 223.692 68.0871 223.61 68.2421C223.536 68.389 223.422 68.5237 223.267 68.6461C223.088 68.8093 222.884 68.9685 222.655 69.1235C222.427 69.2704 222.161 69.401 221.859 69.5153C221.566 69.6295 221.231 69.7193 220.856 69.7846C220.488 69.858 220.072 69.8948 219.607 69.8948C218.799 69.8948 218.04 69.7438 217.33 69.4418C216.62 69.1317 216 68.7114 215.469 68.1809C214.939 67.6504 214.518 67.0343 214.208 66.3324C213.898 65.6224 213.743 64.8634 213.743 64.0554C213.743 63.2474 213.898 62.4884 214.208 61.7784C214.518 61.0684 214.939 60.4522 215.469 59.9299C216 59.3994 216.62 58.9832 217.33 58.6812C218.04 58.3711 218.799 58.216 219.607 58.216C220.407 58.216 221.157 58.367 221.859 58.669C222.569 58.9709 223.19 59.3831 223.72 59.9054C224.259 60.4196 224.683 61.0276 224.993 61.7294C225.303 62.4313 225.467 63.1821 225.483 63.9819C225.483 64.3574 225.361 64.6634 225.116 64.9001C224.879 65.1286 224.565 65.2429 224.173 65.2429H216.706ZM222.753 63.0393C222.663 62.7047 222.52 62.4027 222.325 62.1334C222.129 61.8641 221.896 61.6356 221.627 61.4479C221.357 61.2602 221.055 61.1174 220.721 61.0194C220.394 60.9215 220.043 60.8725 219.668 60.8725C219.293 60.8725 218.938 60.9256 218.603 61.0317C218.277 61.1378 217.979 61.2847 217.709 61.4724C217.448 61.6601 217.224 61.8886 217.036 62.1579C216.848 62.4191 216.71 62.7129 216.62 63.0393H222.753Z" fill="#F17400"/>
</svg>
