<svg width="157" height="52" viewBox="0 0 157 52" fill="none" xmlns="http://www.w3.org/2000/svg">
<path d="M11.3541 19.9894C9.8152 19.7144 8.39784 19.3216 7.14246 18.8895C5.84659 18.4182 4.7532 17.8289 3.82179 17.1219C2.89038 16.4148 2.16147 15.5506 1.63502 14.6079C1.10858 13.6259 0.865592 12.526 0.865592 11.2297C0.865592 9.93344 1.14905 8.755 1.716 7.65513C2.28294 6.59454 3.01187 5.6518 3.94327 4.86617C4.87468 4.08055 5.96809 3.49133 7.22346 3.05924C8.47883 2.62715 9.77469 2.43074 11.1111 2.43074C12.0425 2.43074 12.9739 2.50931 13.9053 2.70571C14.8367 2.90212 15.6871 3.17708 16.497 3.53061C17.3069 3.88414 18.0764 4.35552 18.7243 4.90545C19.4127 5.45539 19.9392 6.08389 20.3846 6.79095C20.5466 7.02663 20.6276 7.26232 20.6276 7.49801C20.6681 7.7337 20.6276 7.96938 20.5871 8.20507C20.5466 8.44076 20.4251 8.67644 20.3036 8.87285C20.1822 9.06925 20.0607 9.26566 19.8987 9.3835C19.7367 9.54063 19.4937 9.69775 19.2508 9.81559C19.0078 9.93344 18.7243 9.97272 18.4408 10.012C18.1574 10.0513 17.8739 10.012 17.5499 9.93344C17.226 9.85488 16.9425 9.73703 16.659 9.54063C16.2136 9.1871 15.8086 8.87285 15.4441 8.59788C15.0797 8.32291 14.6747 8.1265 14.2293 7.9301C13.8243 7.73369 13.3788 7.61585 12.8929 7.53729C12.4069 7.45872 11.84 7.41945 11.1921 7.41945C10.4631 7.41945 9.8152 7.49801 9.16726 7.69441C8.55982 7.85154 7.99288 8.1265 7.54742 8.44075C7.10197 8.755 6.7375 9.14781 6.45403 9.61919C6.17056 10.0513 6.04907 10.5619 6.04907 11.1512C6.04907 11.8189 6.21105 12.3296 6.57551 12.7617C6.93997 13.1938 7.42594 13.5473 8.03338 13.8223C8.64082 14.0972 9.36973 14.3329 10.2201 14.5293C11.0706 14.7257 11.9615 14.9221 12.9334 15.1186C14.0673 15.3935 15.1607 15.747 16.2136 16.1399C17.2665 16.5327 18.2384 17.0826 19.0483 17.7504C19.8987 18.4182 20.5466 19.2038 21.0326 20.1465C21.5185 21.0893 21.802 22.1891 21.802 23.5247C21.802 24.821 21.5185 26.0387 20.9516 27.1778C20.3846 28.2777 19.6152 29.2597 18.6433 30.0847C17.6714 30.9096 16.5375 31.5773 15.2012 32.0487C13.8648 32.5201 12.4474 32.7558 10.9491 32.7558C9.73421 32.7558 8.55982 32.5986 7.46643 32.2844C6.37303 31.9701 5.36064 31.5773 4.42923 31.0667C3.49782 30.556 2.6879 29.9275 1.99947 29.2205C1.31104 28.5134 0.784595 27.7671 0.379635 26.9814C0.177156 26.5886 0.0556827 26.1958 0.0151868 25.8423C-0.0253092 25.4888 0.0151818 25.1745 0.13667 24.8603C0.258157 24.546 0.420146 24.3103 0.622626 24.0746C0.825106 23.839 1.06808 23.6818 1.35155 23.5247C1.99948 23.1712 2.60692 23.0926 3.17387 23.289C3.74081 23.4854 4.30775 23.9568 4.91519 24.7031C5.60362 25.6459 6.45403 26.3922 7.46643 26.9029C8.47882 27.4135 9.69371 27.6885 11.0706 27.6885C11.759 27.6885 12.4069 27.6099 13.0549 27.4135C13.7028 27.2564 14.2698 26.9814 14.7962 26.6672C15.3227 26.3137 15.7276 25.9209 16.0516 25.4495C16.3755 24.9781 16.5375 24.4282 16.5375 23.7997C16.5375 23.1319 16.3755 22.5427 16.0516 22.1499C15.7276 21.7178 15.3227 21.3642 14.7962 21.1286C14.3103 20.8536 13.7433 20.6572 13.0954 20.5001C12.6094 20.3037 11.9615 20.1465 11.3541 19.9894Z" fill="#F17400"/>
<path d="M67.4411 21.0496C67.4006 20.3033 67.2386 19.557 66.9551 18.8892C66.6716 18.2214 66.2667 17.6322 65.7807 17.1608C65.2948 16.6502 64.7278 16.2574 64.0394 15.9824C63.3509 15.7074 62.622 15.5503 61.8526 15.5503C61.0427 15.5503 60.2732 15.7074 59.5848 15.9824C58.8964 16.2574 58.2889 16.6895 57.803 17.2001C57.317 17.7108 56.9121 18.3 56.6691 19.007C56.3856 19.7141 56.2641 20.4211 56.2641 21.246V30.045C56.2641 30.3985 56.1831 30.7128 56.0617 31.027C55.9402 31.3413 55.7377 31.577 55.5352 31.8126C55.2922 32.0483 55.0493 32.2055 54.7253 32.3233C54.4013 32.4411 54.0774 32.5197 53.7129 32.5197C53.3484 32.5197 53.0245 32.4411 52.7005 32.3233C52.3765 32.2055 52.0931 32.0091 51.8501 31.8126C51.6071 31.577 51.4046 31.3413 51.2426 31.027C51.0807 30.7128 51.0402 30.3985 51.0402 30.045V21.3639V21.2853V21.246C51.0402 19.7534 51.3236 18.3785 51.8501 17.0823C52.417 15.786 53.1459 14.6468 54.1178 13.6648C55.0898 12.6828 56.2236 11.9364 57.56 11.3865C58.8964 10.8366 60.3137 10.5616 61.8121 10.5616C63.3509 10.5616 64.7683 10.8366 66.0642 11.3865C67.3601 11.9364 68.494 12.7221 69.4659 13.6648C70.4378 14.6468 71.1667 15.786 71.7336 17.0823C72.3006 18.3785 72.5435 19.7926 72.5435 21.246V21.2853V21.3639V30.045C72.5435 30.3985 72.4626 30.7128 72.3411 31.027C72.2196 31.3413 72.0171 31.577 71.8146 31.8126C71.5716 32.0483 71.3287 32.2055 71.0047 32.3233C70.6807 32.4411 70.3568 32.5197 69.9923 32.5197C69.6278 32.5197 69.2634 32.4411 68.9799 32.3233C68.6559 32.2055 68.3724 32.0091 68.1295 31.8126C67.8865 31.577 67.684 31.3413 67.5625 31.027C67.4006 30.7128 67.3601 30.3985 67.3601 30.045L67.4411 21.0496Z" fill="#F17400"/>
<path d="M28.388 16.2582C29.976 16.2582 31.2633 15.0095 31.2633 13.4692C31.2633 11.9289 29.976 10.6802 28.388 10.6802C26.8001 10.6802 25.5128 11.9289 25.5128 13.4692C25.5128 15.0095 26.8001 16.2582 28.388 16.2582Z" fill="#F17400"/>
<path d="M44.1813 16.2583C45.7692 16.2583 47.0565 15.0097 47.0565 13.4694C47.0565 11.9291 45.7692 10.6804 44.1813 10.6804C42.5933 10.6804 41.306 11.9291 41.306 13.4694C41.306 15.0097 42.5933 16.2583 44.1813 16.2583Z" fill="#F17400"/>
<path d="M46.8288 24.5854C46.8288 24.8604 46.7883 25.0961 46.7073 25.3318C46.6668 25.4889 46.5858 25.646 46.5048 25.8031C44.804 29.7312 40.7949 32.5202 36.0973 32.5202C31.3998 32.5202 27.3502 29.7312 25.6899 25.7638V25.7246C25.6494 25.6067 25.6089 25.5282 25.5684 25.4103C25.5684 25.4103 25.5684 25.4103 25.5684 25.371C25.4874 25.1353 25.4469 24.8604 25.4469 24.5854C25.4469 23.0927 26.7023 21.875 28.2411 21.875C29.375 21.875 30.3469 22.5035 30.7519 23.4463C30.7924 23.5248 30.8328 23.6427 30.8733 23.7212C31.7238 25.7246 33.7891 27.0994 36.1378 27.0994C38.5271 27.0994 40.5924 25.6853 41.4428 23.6427C41.4428 23.6034 41.4833 23.5641 41.4833 23.5248C41.8883 22.5428 42.9006 21.875 44.0345 21.875C45.5734 21.875 46.8288 23.0927 46.8288 24.5854Z" fill="#F17400"/>
<path d="M79.4983 10.9749V7.82201C79.4983 6.76303 79.6908 5.76823 80.0759 4.83761C80.4771 3.89095 81.0226 3.07265 81.7125 2.38271C82.4025 1.67672 83.2047 1.11514 84.1193 0.697963C85.0499 0.28079 86.0447 0.0561578 87.1037 0.024066C87.1358 0.024066 87.1599 0.024066 87.1759 0.024066C87.208 0.008022 87.2401 0 87.2722 0C88.0263 0 88.6521 0.256722 89.1495 0.770166C89.6629 1.26757 89.9196 1.89333 89.9196 2.64745C89.9196 3.01649 89.8474 3.36146 89.703 3.68236C89.5747 3.98722 89.3901 4.25197 89.1495 4.4766C88.9088 4.70123 88.628 4.88575 88.3071 5.03016C87.9862 5.15852 87.6412 5.2227 87.2722 5.2227H87.1518C86.7988 5.23874 86.4699 5.32699 86.1651 5.48744C85.8763 5.63185 85.6195 5.82439 85.3949 6.06507C85.1863 6.30575 85.0178 6.58654 84.8895 6.90744C84.7772 7.2123 84.721 7.54122 84.721 7.89422V10.9749H86.4779C86.847 10.9749 87.192 11.0471 87.5129 11.1915C87.8338 11.3199 88.1065 11.5044 88.3312 11.7451C88.5718 11.9697 88.7564 12.2425 88.8847 12.5634C89.0291 12.8843 89.1013 13.2212 89.1013 13.5742C89.1013 13.9432 89.0291 14.2882 88.8847 14.6091C88.7564 14.93 88.5718 15.2108 88.3312 15.4515C88.1065 15.6761 87.8338 15.8606 87.5129 16.005C87.192 16.1334 86.847 16.1976 86.4779 16.1976H84.721V28.3759C84.721 28.7449 84.6488 29.0899 84.5044 29.4108C84.376 29.7317 84.1915 30.0125 83.9508 30.2531C83.7102 30.4938 83.4294 30.6864 83.1085 30.8308C82.8036 30.9591 82.4747 31.0233 82.1217 31.0233C81.7526 31.0233 81.4077 30.9591 81.0868 30.8308C80.7819 30.6864 80.5091 30.4938 80.2685 30.2531C80.0278 30.0125 79.8352 29.7317 79.6908 29.4108C79.5625 29.0899 79.4983 28.7449 79.4983 28.3759V16.1976H78.2708C77.9018 16.1976 77.5568 16.1334 77.2359 16.005C76.9311 15.8606 76.6583 15.6681 76.4176 15.4274C76.177 15.1867 75.9844 14.906 75.84 14.585C75.7116 14.2641 75.6475 13.9272 75.6475 13.5742C75.6475 13.2212 75.7116 12.8843 75.84 12.5634C75.9844 12.2425 76.177 11.9697 76.4176 11.7451C76.6583 11.5044 76.9311 11.3199 77.2359 11.1915C77.5568 11.0471 77.9018 10.9749 78.2708 10.9749H79.4983Z" fill="#008838"/>
<path d="M97.3107 22.1664C97.5193 22.7761 97.8081 23.3216 98.1771 23.803C98.5622 24.2843 99.0034 24.7015 99.5008 25.0545C99.9982 25.3915 100.544 25.6562 101.137 25.8488C101.731 26.0252 102.357 26.1135 103.015 26.1135C104.667 26.1135 105.967 25.6803 106.914 24.8138C107.395 24.4769 107.852 24.2763 108.286 24.2121C108.719 24.148 109.128 24.1801 109.513 24.3084C109.786 24.4047 110.026 24.5571 110.235 24.7657C110.46 24.9582 110.644 25.1749 110.789 25.4155C110.949 25.6723 111.061 25.953 111.126 26.2579C111.206 26.5467 111.222 26.8435 111.174 27.1484C111.142 27.4533 111.045 27.7581 110.885 28.063C110.74 28.3518 110.516 28.6165 110.211 28.8572C109.858 29.1781 109.457 29.491 109.008 29.7959C108.558 30.0847 108.037 30.3414 107.443 30.566C106.866 30.7907 106.208 30.9672 105.47 31.0955C104.748 31.2399 103.929 31.3121 103.015 31.3121C101.426 31.3121 99.9341 31.0153 98.5381 30.4216C97.1422 29.8119 95.9228 28.9856 94.8798 27.9426C93.8369 26.8997 93.0106 25.6883 92.4009 24.3084C91.7911 22.9125 91.4863 21.4203 91.4863 19.8318C91.4863 18.2433 91.7911 16.7511 92.4009 15.3552C93.0106 13.9593 93.8369 12.7479 94.8798 11.721C95.9228 10.6781 97.1422 9.85975 98.5381 9.26608C99.9341 8.65636 101.426 8.35151 103.015 8.35151C104.587 8.35151 106.063 8.64834 107.443 9.24201C108.839 9.83568 110.059 10.646 111.101 11.6729C112.16 12.6837 112.995 13.8791 113.605 15.2589C114.214 16.6388 114.535 18.115 114.567 19.6874C114.567 20.4255 114.327 21.0272 113.845 21.4925C113.38 21.9418 112.762 22.1664 111.992 22.1664H97.3107ZM109.2 17.8342C109.024 17.1763 108.743 16.5827 108.358 16.0532C107.973 15.5237 107.515 15.0744 106.986 14.7054C106.456 14.3363 105.863 14.0556 105.205 13.863C104.563 13.6705 103.873 13.5742 103.135 13.5742C102.397 13.5742 101.699 13.6785 101.041 13.8871C100.399 14.0957 99.8137 14.3845 99.2842 14.7535C98.7708 15.1226 98.3295 15.5718 97.9605 16.1013C97.5915 16.6148 97.3187 17.1924 97.1422 17.8342H109.2Z" fill="#008838"/>
<path d="M123.279 21.6128C122.589 21.324 121.875 21.0111 121.137 20.6742C120.399 20.3212 119.725 19.896 119.115 19.3986C118.506 18.8852 118 18.2754 117.599 17.5694C117.214 16.8635 117.021 16.0211 117.021 15.0423C117.021 14.0315 117.222 13.1169 117.623 12.2986C118.024 11.4643 118.578 10.7583 119.284 10.1807C120.006 9.58698 120.856 9.13772 121.835 8.83286C122.814 8.51196 123.889 8.35151 125.06 8.35151C125.734 8.35151 126.432 8.40766 127.154 8.51998C127.876 8.61625 128.558 8.78473 129.2 9.0254C129.858 9.25003 130.443 9.55489 130.957 9.93998C131.47 10.309 131.863 10.7583 132.136 11.2878C132.377 11.8012 132.457 12.3147 132.377 12.8281C132.312 13.3255 132.136 13.7347 131.847 14.0556C131.526 14.4246 131.133 14.6733 130.668 14.8017C130.203 14.93 129.737 14.8899 129.272 14.6813C128.935 14.4727 128.622 14.2882 128.333 14.1278C128.06 13.9673 127.772 13.8309 127.467 13.7186C127.178 13.6063 126.865 13.5261 126.528 13.4779C126.207 13.4138 125.838 13.3817 125.421 13.3817C124.378 13.3817 123.584 13.5261 123.038 13.8149C122.509 14.0876 122.244 14.5128 122.244 15.0905C122.244 15.3953 122.34 15.6521 122.533 15.8606C122.742 16.0532 123.014 16.2297 123.351 16.3901C123.704 16.5506 124.121 16.703 124.603 16.8474C125.1 16.9918 125.638 17.1523 126.215 17.3288C127.162 17.6176 128.06 17.9545 128.911 18.3396C129.777 18.7247 130.531 19.198 131.173 19.7596C131.831 20.3051 132.353 20.955 132.738 21.7091C133.123 22.4632 133.315 23.3537 133.315 24.3806C133.315 25.3433 133.107 26.2499 132.69 27.1003C132.288 27.9346 131.727 28.6647 131.005 29.2904C130.283 29.9162 129.416 30.4136 128.405 30.7826C127.411 31.1356 126.328 31.3121 125.156 31.3121C124.418 31.3121 123.632 31.2399 122.798 31.0955C121.979 30.9672 121.177 30.7425 120.391 30.4216C119.621 30.0847 118.907 29.6595 118.249 29.146C117.591 28.6165 117.062 27.9667 116.66 27.1965C116.259 26.4264 116.131 25.7445 116.275 25.1508C116.436 24.5411 116.757 24.0838 117.238 23.7789C117.719 23.4741 118.305 23.3618 118.995 23.442C119.685 23.5222 120.359 23.8672 121.017 24.4769C121.209 24.7176 121.45 24.9502 121.739 25.1749C122.028 25.3834 122.348 25.576 122.701 25.7525C123.054 25.9129 123.431 26.0413 123.833 26.1376C124.25 26.2338 124.683 26.282 125.132 26.282C125.533 26.282 125.91 26.2419 126.263 26.1616C126.616 26.0654 126.929 25.937 127.202 25.7765C127.475 25.6161 127.691 25.4236 127.852 25.1989C128.012 24.9743 128.093 24.7176 128.093 24.4288C128.093 24.0918 127.916 23.7869 127.563 23.5142C127.21 23.2254 126.777 22.9606 126.263 22.7199C125.766 22.4793 125.237 22.2707 124.675 22.0942C124.129 21.9016 123.664 21.7412 123.279 21.6128Z" fill="#008838"/>
<path d="M142.429 8.64032H150.805C151.158 8.64032 151.495 8.71252 151.816 8.85693C152.137 9.00133 152.418 9.19388 152.658 9.43455C152.899 9.67523 153.091 9.95602 153.236 10.2769C153.38 10.5978 153.452 10.9348 153.452 11.2878C153.452 11.6408 153.38 11.9777 153.236 12.2986C153.107 12.6035 152.923 12.8762 152.682 13.1169C152.442 13.3415 152.161 13.5261 151.84 13.6705C151.519 13.7988 151.174 13.863 150.805 13.863H142.429V19.9522C142.429 20.8025 142.59 21.6048 142.911 22.3589C143.248 23.097 143.697 23.7468 144.259 24.3084C144.82 24.854 145.478 25.2872 146.232 25.6081C147.002 25.929 147.821 26.0894 148.687 26.0894C149.457 26.0894 150.171 25.9851 150.829 25.7765C151.487 25.5519 152.097 25.1909 152.658 24.6935C152.835 24.533 153.003 24.3967 153.164 24.2843C153.34 24.156 153.541 24.0517 153.765 23.9715C154.166 23.8271 154.584 23.7869 155.017 23.8511C155.45 23.8993 155.859 24.0998 156.244 24.4528C156.533 24.7256 156.734 25.0385 156.846 25.3915C156.974 25.7284 157.022 26.0894 156.99 26.4745C156.974 26.8435 156.886 27.2046 156.726 27.5576C156.565 27.9106 156.341 28.2234 156.052 28.4962C155.089 29.4268 153.982 30.1328 152.73 30.6142C151.479 31.0795 150.131 31.3121 148.687 31.3121C147.099 31.3121 145.606 31.0153 144.21 30.4216C142.831 29.8279 141.619 29.0177 140.576 27.9908C139.533 26.9639 138.707 25.7605 138.097 24.3806C137.504 22.9847 137.207 21.4925 137.207 19.904V4.45253C137.207 4.08349 137.271 3.73852 137.399 3.41762C137.544 3.09671 137.736 2.81592 137.977 2.57525C138.218 2.33457 138.498 2.15005 138.819 2.02169C139.14 1.87728 139.485 1.80508 139.854 1.80508C140.207 1.80508 140.536 1.87728 140.841 2.02169C141.162 2.15005 141.435 2.33457 141.659 2.57525C141.9 2.81592 142.084 3.09671 142.213 3.41762C142.357 3.73852 142.429 4.08349 142.429 4.45253V8.64032Z" fill="#008838"/>
<path d="M5.48527 39.298V47.4282C5.48527 47.5586 5.45976 47.6805 5.40873 47.7938C5.36338 47.9016 5.29818 47.9951 5.21314 48.0745C5.12809 48.1539 5.02888 48.2191 4.91548 48.2701C4.80209 48.3154 4.6802 48.3381 4.5498 48.3381C4.42507 48.3381 4.30601 48.3154 4.19262 48.2701C4.0849 48.2191 3.98852 48.1539 3.90347 48.0745C3.8241 47.9951 3.7589 47.9016 3.70787 47.7938C3.66252 47.6805 3.63984 47.5586 3.63984 47.4282V39.298H1.09705C0.966655 39.298 0.84476 39.2754 0.73137 39.23C0.623649 39.179 0.527267 39.111 0.442224 39.0259C0.36285 38.9409 0.29765 38.8445 0.246625 38.7368C0.201268 38.6234 0.17859 38.5015 0.17859 38.3711C0.17859 38.2464 0.201268 38.1273 0.246625 38.0139C0.29765 37.9005 0.36285 37.8041 0.442224 37.7248C0.527267 37.6397 0.623649 37.5745 0.73137 37.5292C0.84476 37.4781 0.966655 37.4526 1.09705 37.4526H8.02806C8.15279 37.4526 8.27185 37.4781 8.38524 37.5292C8.49863 37.5745 8.59501 37.6397 8.67439 37.7248C8.75943 37.8098 8.82463 37.909 8.86998 38.0224C8.92101 38.1358 8.94652 38.2549 8.94652 38.3796C8.94652 38.51 8.92101 38.6319 8.86998 38.7453C8.82463 38.853 8.75943 38.9494 8.67439 39.0344C8.59501 39.1138 8.49863 39.179 8.38524 39.23C8.27185 39.2754 8.15279 39.298 8.02806 39.298H5.48527ZM7.33376 44.3836C7.33376 43.8223 7.44148 43.2979 7.65692 42.8103C7.87237 42.3171 8.16435 41.8862 8.53287 41.5177C8.90139 41.1492 9.32944 40.86 9.81702 40.6502C10.3103 40.4348 10.8347 40.3271 11.3903 40.3271C11.9516 40.3271 12.476 40.4348 12.9636 40.6502C13.4569 40.86 13.8849 41.1492 14.2478 41.5177C14.6163 41.8862 14.9054 42.3171 15.1152 42.8103C15.3306 43.2979 15.4384 43.8223 15.4384 44.3836V47.3941C15.4384 47.5245 15.4128 47.6464 15.3618 47.7598C15.3165 47.8732 15.2513 47.9724 15.1662 48.0575C15.0812 48.1425 14.9791 48.2106 14.8601 48.2616C14.7467 48.3126 14.6248 48.3381 14.4944 48.3381C14.2733 48.3381 14.0862 48.2729 13.9331 48.1425C13.78 48.0121 13.678 47.8477 13.6269 47.6493C13.3038 47.8931 12.9523 48.0858 12.5724 48.2276C12.1982 48.3693 11.8042 48.4402 11.3903 48.4402C10.8347 48.4402 10.3103 48.3353 9.81702 48.1255C9.32944 47.9101 8.90139 47.6181 8.53287 47.2496C8.16435 46.881 7.87237 46.4502 7.65692 45.9569C7.44148 45.4637 7.33376 44.9392 7.33376 44.3836ZM9.17919 44.3836C9.17919 44.6841 9.23589 44.9704 9.34928 45.2426C9.46834 45.509 9.62709 45.7443 9.82552 45.9484C10.0296 46.1468 10.2649 46.3056 10.5314 46.4247C10.7978 46.538 11.0842 46.5947 11.3903 46.5947C11.6965 46.5947 11.9828 46.538 12.2492 46.4247C12.5214 46.3056 12.7567 46.1468 12.9551 45.9484C13.1535 45.7443 13.3094 45.509 13.4228 45.2426C13.5362 44.9704 13.5929 44.6841 13.5929 44.3836C13.5929 44.0775 13.5362 43.7912 13.4228 43.5247C13.3094 43.2525 13.1535 43.0173 12.9551 42.8188C12.7567 42.6204 12.5214 42.4645 12.2492 42.3511C11.9828 42.232 11.6965 42.1725 11.3903 42.1725C11.0898 42.1725 10.8035 42.232 10.5314 42.3511C10.2649 42.4645 10.0296 42.6204 9.82552 42.8188C9.62709 43.0173 9.46834 43.2525 9.34928 43.5247C9.23589 43.7912 9.17919 44.0775 9.17919 44.3836ZM18.9995 45.0129C18.7557 44.9109 18.5034 44.8003 18.2427 44.6813C17.9819 44.5565 17.7437 44.4063 17.5283 44.2305C17.3128 44.0491 17.1343 43.8337 16.9925 43.5842C16.8564 43.3348 16.7884 43.0371 16.7884 42.6913C16.7884 42.3341 16.8593 42.0109 17.001 41.7218C17.1428 41.427 17.3384 41.1775 17.5878 40.9734C17.8429 40.7636 18.1434 40.6049 18.4893 40.4972C18.8351 40.3838 19.215 40.3271 19.6289 40.3271C19.867 40.3271 20.1136 40.3469 20.3687 40.3866C20.6239 40.4206 20.8648 40.4801 21.0916 40.5652C21.324 40.6446 21.531 40.7523 21.7124 40.8884C21.8938 41.0188 22.0327 41.1775 22.1291 41.3646C22.2142 41.546 22.2425 41.7274 22.2142 41.9089C22.1915 42.0846 22.1291 42.2292 22.0271 42.3426C21.9137 42.473 21.7748 42.5609 21.6104 42.6062C21.4459 42.6516 21.2815 42.6374 21.1171 42.5637C20.998 42.49 20.8875 42.4248 20.7854 42.3681C20.6891 42.3114 20.587 42.2632 20.4793 42.2235C20.3772 42.1838 20.2667 42.1555 20.1476 42.1385C20.0342 42.1158 19.9038 42.1045 19.7564 42.1045C19.3879 42.1045 19.1073 42.1555 18.9145 42.2575C18.7274 42.3539 18.6338 42.5042 18.6338 42.7083C18.6338 42.816 18.6679 42.9067 18.7359 42.9804C18.8096 43.0484 18.906 43.1108 19.025 43.1675C19.1498 43.2242 19.2972 43.2781 19.4673 43.3291C19.643 43.3801 19.833 43.4368 20.0371 43.4992C20.3716 43.6012 20.6891 43.7203 20.9895 43.8564C21.2957 43.9924 21.5622 44.1597 21.7889 44.3581C22.0214 44.5509 22.2057 44.7805 22.3417 45.047C22.4778 45.3134 22.5458 45.6281 22.5458 45.9909C22.5458 46.3311 22.4721 46.6514 22.3247 46.9519C22.183 47.2467 21.9845 47.5047 21.7294 47.7258C21.4743 47.9469 21.1681 48.1227 20.8109 48.2531C20.4594 48.3778 20.0767 48.4402 19.6629 48.4402C19.4021 48.4402 19.1243 48.4147 18.8294 48.3636C18.5403 48.3183 18.2568 48.2389 17.979 48.1255C17.7069 48.0065 17.4546 47.8562 17.2221 47.6748C16.9897 47.4877 16.8026 47.2581 16.6609 46.9859C16.5191 46.7138 16.4738 46.4728 16.5248 46.2631C16.5815 46.0476 16.6949 45.886 16.865 45.7783C17.035 45.6706 17.242 45.6309 17.4858 45.6593C17.7296 45.6876 17.9677 45.8095 18.2001 46.025C18.2682 46.11 18.3532 46.1922 18.4553 46.2716C18.5573 46.3453 18.6707 46.4133 18.7954 46.4757C18.9202 46.5324 19.0534 46.5777 19.1951 46.6117C19.3425 46.6458 19.4956 46.6628 19.6544 46.6628C19.7961 46.6628 19.9293 46.6486 20.0541 46.6203C20.1788 46.5862 20.2894 46.5409 20.3857 46.4842C20.4821 46.4275 20.5587 46.3595 20.6153 46.2801C20.672 46.2007 20.7004 46.11 20.7004 46.0079C20.7004 45.8889 20.638 45.7812 20.5133 45.6848C20.3886 45.5827 20.2355 45.4892 20.0541 45.4041C19.8783 45.3191 19.6912 45.2454 19.4928 45.183C19.3 45.115 19.1356 45.0583 18.9995 45.0129ZM25.7663 40.4291H28.7258C28.8505 40.4291 28.9696 40.4546 29.083 40.5057C29.1964 40.5567 29.2956 40.6247 29.3806 40.7098C29.4657 40.7948 29.5337 40.894 29.5847 41.0074C29.6358 41.1208 29.6613 41.2399 29.6613 41.3646C29.6613 41.4893 29.6358 41.6084 29.5847 41.7218C29.5394 41.8295 29.4742 41.9259 29.3891 42.0109C29.3041 42.0903 29.2049 42.1555 29.0915 42.2065C28.9781 42.2519 28.8562 42.2746 28.7258 42.2746H25.7663V44.4261C25.7663 44.7266 25.823 45.0101 25.9364 45.2766C26.0554 45.5374 26.2142 45.767 26.4126 45.9654C26.6111 46.1582 26.8435 46.3113 27.11 46.4247C27.3821 46.538 27.6713 46.5947 27.9774 46.5947C28.2496 46.5947 28.5018 46.5579 28.7343 46.4842C28.9667 46.4048 29.1822 46.2772 29.3806 46.1015C29.443 46.0448 29.5025 45.9966 29.5592 45.9569C29.6216 45.9116 29.6924 45.8747 29.7718 45.8464C29.9136 45.7953 30.061 45.7812 30.214 45.8038C30.3671 45.8208 30.5117 45.8917 30.6478 46.0164C30.7498 46.1128 30.8207 46.2234 30.8604 46.3481C30.9057 46.4672 30.9227 46.5947 30.9114 46.7308C30.9057 46.8612 30.8745 46.9888 30.8178 47.1135C30.7612 47.2382 30.6818 47.3488 30.5797 47.4452C30.2396 47.774 29.8484 48.0235 29.4061 48.1935C28.9639 48.358 28.4877 48.4402 27.9774 48.4402C27.4161 48.4402 26.8889 48.3353 26.3956 48.1255C25.908 47.9157 25.48 47.6294 25.1115 47.2666C24.7429 46.9037 24.451 46.4785 24.2355 45.9909C24.0257 45.4977 23.9209 44.9704 23.9209 44.4091V38.9494C23.9209 38.819 23.9435 38.6971 23.9889 38.5837C24.0399 38.4703 24.108 38.3711 24.193 38.286C24.278 38.201 24.3773 38.1358 24.4907 38.0904C24.604 38.0394 24.7259 38.0139 24.8563 38.0139C24.9811 38.0139 25.0973 38.0394 25.205 38.0904C25.3184 38.1358 25.4148 38.201 25.4942 38.286C25.5792 38.3711 25.6444 38.4703 25.6898 38.5837C25.7408 38.6971 25.7663 38.819 25.7663 38.9494V40.4291ZM33.5427 45.2085C33.6164 45.424 33.7184 45.6167 33.8488 45.7868C33.9849 45.9569 34.1408 46.1043 34.3166 46.2291C34.4923 46.3481 34.6851 46.4417 34.8949 46.5097C35.1046 46.5721 35.3257 46.6032 35.5582 46.6032C36.1422 46.6032 36.6014 46.4502 36.9359 46.144C37.106 46.025 37.2676 45.9541 37.4206 45.9314C37.5737 45.9087 37.7183 45.9201 37.8544 45.9654C37.9507 45.9994 38.0358 46.0533 38.1095 46.127C38.1889 46.195 38.2541 46.2716 38.3051 46.3566C38.3618 46.4473 38.4015 46.5465 38.4241 46.6543C38.4525 46.7563 38.4582 46.8612 38.4412 46.9689C38.4298 47.0766 38.3958 47.1844 38.3391 47.2921C38.2881 47.3941 38.2087 47.4877 38.101 47.5727C37.9763 47.6861 37.8345 47.7967 37.6758 47.9044C37.517 48.0065 37.3328 48.0972 37.123 48.1765C36.9189 48.2559 36.6864 48.3183 36.4256 48.3636C36.1705 48.4147 35.8814 48.4402 35.5582 48.4402C34.9969 48.4402 34.4696 48.3353 33.9764 48.1255C33.4831 47.9101 33.0523 47.6181 32.6837 47.2496C32.3152 46.881 32.0232 46.453 31.8078 45.9654C31.5924 45.4722 31.4846 44.9449 31.4846 44.3836C31.4846 43.8223 31.5924 43.2951 31.8078 42.8018C32.0232 42.3086 32.3152 41.8805 32.6837 41.5177C33.0523 41.1492 33.4831 40.86 33.9764 40.6502C34.4696 40.4348 34.9969 40.3271 35.5582 40.3271C36.1138 40.3271 36.6354 40.432 37.123 40.6417C37.6162 40.8515 38.0471 41.1378 38.4156 41.5007C38.7898 41.8578 39.0846 42.2802 39.3001 42.7678C39.5155 43.2554 39.6289 43.777 39.6403 44.3326C39.6403 44.5934 39.5552 44.806 39.3851 44.9704C39.2207 45.1292 39.0024 45.2085 38.7303 45.2085H33.5427ZM37.7438 43.6778C37.6814 43.4453 37.5822 43.2355 37.4462 43.0484C37.3101 42.8614 37.1485 42.7026 36.9614 42.5722C36.7743 42.4418 36.5645 42.3426 36.3321 42.2746C36.1053 42.2065 35.8615 42.1725 35.6007 42.1725C35.3399 42.1725 35.0933 42.2094 34.8608 42.2831C34.6341 42.3568 34.4271 42.4588 34.24 42.5892C34.0586 42.7196 33.9027 42.8784 33.7723 43.0655C33.6419 43.2469 33.5455 43.451 33.4832 43.6778H37.7438ZM49.864 37.3761C50.3743 37.3761 50.8647 37.4441 51.3353 37.5802C51.8115 37.7106 52.2537 37.8948 52.6619 38.133C53.0701 38.3711 53.4443 38.6602 53.7845 39.0004C54.1247 39.3349 54.4138 39.7091 54.6519 40.123C54.8901 40.5312 55.0743 40.9706 55.2047 41.4411C55.3408 41.9117 55.4088 42.4021 55.4088 42.9124C55.4088 43.6778 55.2614 44.395 54.9666 45.064C54.6775 45.733 54.2806 46.3198 53.776 46.8244C53.2771 47.3233 52.6903 47.7173 52.0156 48.0065C51.3466 48.2956 50.6294 48.4402 49.864 48.4402C49.0986 48.4402 48.3786 48.2956 47.7039 48.0065C47.0349 47.7173 46.451 47.3233 45.952 46.8244C45.4588 46.3198 45.0676 45.733 44.7785 45.064C44.495 44.395 44.3532 43.6778 44.3532 42.9124C44.3532 42.4021 44.4184 41.9117 44.5488 41.4411C44.6792 40.9706 44.8635 40.5312 45.1016 40.123C45.3397 39.7091 45.626 39.3349 45.9605 39.0004C46.2951 38.6602 46.6664 38.3711 47.0746 38.133C47.4828 37.8948 47.9222 37.7106 48.3928 37.5802C48.8633 37.4441 49.3538 37.3761 49.864 37.3761ZM49.8725 39.2215C49.3623 39.2215 48.8832 39.3179 48.4353 39.5107C47.9874 39.7034 47.5962 39.9671 47.2617 40.3016C46.9329 40.6361 46.6721 41.0273 46.4793 41.4752C46.2922 41.923 46.1987 42.4021 46.1987 42.9124C46.1987 43.4283 46.2922 43.9102 46.4793 44.3581C46.6721 44.806 46.9329 45.1972 47.2617 45.5317C47.5962 45.8605 47.9874 46.1213 48.4353 46.3141C48.8832 46.5012 49.3623 46.5947 49.8725 46.5947C50.3828 46.5947 50.8619 46.5012 51.3098 46.3141C51.7633 46.1213 52.1545 45.8605 52.4833 45.5317C52.8178 45.1972 53.0815 44.806 53.2742 44.3581C53.467 43.9102 53.5634 43.4283 53.5634 42.9124C53.5634 42.4021 53.467 41.923 53.2742 41.4752C53.0815 41.0273 52.8178 40.6361 52.4833 40.3016C52.1545 39.9671 51.7633 39.7034 51.3098 39.5107C50.8619 39.3179 50.3828 39.2215 49.8725 39.2215ZM57.3958 41.254V40.14C57.3958 39.7658 57.4638 39.4143 57.5999 39.0854C57.7416 38.7509 57.9344 38.4618 58.1782 38.218C58.422 37.9685 58.7054 37.7701 59.0286 37.6227C59.3574 37.4753 59.7089 37.3959 60.0831 37.3846C60.0945 37.3846 60.103 37.3846 60.1086 37.3846C60.12 37.3789 60.1313 37.3761 60.1427 37.3761C60.4091 37.3761 60.6302 37.4668 60.806 37.6482C60.9874 37.824 61.0781 38.0451 61.0781 38.3116C61.0781 38.442 61.0526 38.5638 61.0016 38.6772C60.9562 38.785 60.891 38.8785 60.806 38.9579C60.721 39.0373 60.6217 39.1025 60.5083 39.1535C60.395 39.1988 60.2731 39.2215 60.1427 39.2215H60.1001C59.9754 39.2272 59.8592 39.2584 59.7515 39.3151C59.6494 39.3661 59.5587 39.4341 59.4793 39.5192C59.4056 39.6042 59.3461 39.7034 59.3007 39.8168C59.261 39.9245 59.2412 40.0408 59.2412 40.1655V41.254H59.862C59.9924 41.254 60.1143 41.2796 60.2277 41.3306C60.3411 41.3759 60.4375 41.4411 60.5169 41.5262C60.6019 41.6055 60.6671 41.7019 60.7124 41.8153C60.7635 41.9287 60.789 42.0478 60.789 42.1725C60.789 42.3029 60.7635 42.4248 60.7124 42.5382C60.6671 42.6516 60.6019 42.7508 60.5169 42.8358C60.4375 42.9152 60.3411 42.9804 60.2277 43.0314C60.1143 43.0768 59.9924 43.0995 59.862 43.0995H59.2412V47.4026C59.2412 47.533 59.2157 47.6549 59.1647 47.7683C59.1193 47.8817 59.0541 47.9809 58.9691 48.066C58.884 48.151 58.7848 48.2191 58.6714 48.2701C58.5637 48.3154 58.4475 48.3381 58.3227 48.3381C58.1923 48.3381 58.0704 48.3154 57.9571 48.2701C57.8493 48.2191 57.753 48.151 57.6679 48.066C57.5829 47.9809 57.5148 47.8817 57.4638 47.7683C57.4185 47.6549 57.3958 47.533 57.3958 47.4026V43.0995H56.9621C56.8317 43.0995 56.7098 43.0768 56.5964 43.0314C56.4886 42.9804 56.3923 42.9124 56.3072 42.8273C56.2222 42.7423 56.1541 42.6431 56.1031 42.5297C56.0578 42.4163 56.0351 42.2972 56.0351 42.1725C56.0351 42.0478 56.0578 41.9287 56.1031 41.8153C56.1541 41.7019 56.2222 41.6055 56.3072 41.5262C56.3923 41.4411 56.4886 41.3759 56.5964 41.3306C56.7098 41.2796 56.8317 41.254 56.9621 41.254H57.3958Z" fill="#008838"/>
<path d="M67.9523 41.9854H73.7012V38.3626C73.7012 38.2378 73.7267 38.1188 73.7777 38.0054C73.8287 37.892 73.8968 37.7956 73.9818 37.7163C74.0669 37.6369 74.1661 37.5745 74.2795 37.5292C74.3929 37.4781 74.5147 37.4526 74.6451 37.4526C74.7699 37.4526 74.8861 37.4781 74.9938 37.5292C75.1072 37.5745 75.2036 37.6369 75.283 37.7163C75.368 37.7956 75.4332 37.892 75.4786 38.0054C75.5239 38.1188 75.5466 38.2378 75.5466 38.3626V47.4282C75.5466 47.5586 75.5211 47.6805 75.4701 47.7938C75.4247 47.9016 75.3595 47.9951 75.2745 48.0745C75.1951 48.1539 75.0987 48.2191 74.9853 48.2701C74.8719 48.3154 74.7529 48.3381 74.6281 48.3381C74.4977 48.3381 74.3758 48.3154 74.2625 48.2701C74.1547 48.2191 74.0584 48.1539 73.9733 48.0745C73.8883 47.9951 73.8202 47.9016 73.7692 47.7938C73.7238 47.6805 73.7012 47.5586 73.7012 47.4282V43.8393H67.9523V47.4282C67.9523 47.5586 67.9268 47.6805 67.8757 47.7938C67.8304 47.9016 67.7652 47.9951 67.6801 48.0745C67.5951 48.1539 67.4959 48.2191 67.3825 48.2701C67.2691 48.3154 67.15 48.3381 67.0253 48.3381C66.8949 48.3381 66.773 48.3154 66.6596 48.2701C66.5519 48.2191 66.4555 48.1539 66.3705 48.0745C66.2911 47.9951 66.2259 47.9016 66.1749 47.7938C66.1295 47.6805 66.1068 47.5586 66.1068 47.4282V38.3626C66.1068 38.2378 66.1295 38.1188 66.1749 38.0054C66.2259 37.892 66.2911 37.7956 66.3705 37.7163C66.4555 37.6369 66.5519 37.5745 66.6596 37.5292C66.773 37.4781 66.8949 37.4526 67.0253 37.4526C67.15 37.4526 67.2691 37.4781 67.3825 37.5292C67.4959 37.5745 67.5951 37.6369 67.6801 37.7163C67.7652 37.7956 67.8304 37.892 67.8757 38.0054C67.9268 38.1188 67.9523 38.2378 67.9523 38.3626V41.9854ZM79.0041 45.2085C79.0778 45.424 79.1799 45.6167 79.3103 45.7868C79.4464 45.9569 79.6023 46.1043 79.778 46.2291C79.9538 46.3481 80.1465 46.4417 80.3563 46.5097C80.5661 46.5721 80.7872 46.6032 81.0197 46.6032C81.6036 46.6032 82.0628 46.4502 82.3974 46.144C82.5674 46.025 82.729 45.9541 82.8821 45.9314C83.0352 45.9087 83.1797 45.9201 83.3158 45.9654C83.4122 45.9994 83.4972 46.0533 83.5709 46.127C83.6503 46.195 83.7155 46.2716 83.7665 46.3566C83.8232 46.4473 83.8629 46.5465 83.8856 46.6543C83.914 46.7563 83.9196 46.8612 83.9026 46.9689C83.8913 47.0766 83.8573 47.1844 83.8006 47.2921C83.7495 47.3941 83.6702 47.4877 83.5624 47.5727C83.4377 47.6861 83.296 47.7967 83.1372 47.9044C82.9785 48.0065 82.7942 48.0972 82.5844 48.1765C82.3803 48.2559 82.1479 48.3183 81.8871 48.3636C81.632 48.4147 81.3428 48.4402 81.0197 48.4402C80.4584 48.4402 79.9311 48.3353 79.4379 48.1255C78.9446 47.9101 78.5137 47.6181 78.1452 47.2496C77.7767 46.881 77.4847 46.453 77.2693 45.9654C77.0538 45.4722 76.9461 44.9449 76.9461 44.3836C76.9461 43.8223 77.0538 43.2951 77.2693 42.8018C77.4847 42.3086 77.7767 41.8805 78.1452 41.5177C78.5137 41.1492 78.9446 40.86 79.4379 40.6502C79.9311 40.4348 80.4584 40.3271 81.0197 40.3271C81.5753 40.3271 82.0969 40.432 82.5844 40.6417C83.0777 40.8515 83.5086 41.1378 83.8771 41.5007C84.2513 41.8578 84.5461 42.2802 84.7615 42.7678C84.977 43.2554 85.0904 43.777 85.1017 44.3326C85.1017 44.5934 85.0167 44.806 84.8466 44.9704C84.6822 45.1292 84.4639 45.2085 84.1918 45.2085H79.0041ZM83.2053 43.6778C83.1429 43.4453 83.0437 43.2355 82.9076 43.0484C82.7715 42.8614 82.61 42.7026 82.4229 42.5722C82.2358 42.4418 82.026 42.3426 81.7935 42.2746C81.5668 42.2065 81.323 42.1725 81.0622 42.1725C80.8014 42.1725 80.5548 42.2094 80.3223 42.2831C80.0955 42.3568 79.8886 42.4588 79.7015 42.5892C79.5201 42.7196 79.3642 42.8784 79.2338 43.0655C79.1034 43.2469 79.007 43.451 78.9446 43.6778H83.2053ZM85.8158 44.3836C85.8158 43.8223 85.9235 43.2979 86.139 42.8103C86.3544 42.3171 86.6464 41.8862 87.0149 41.5177C87.3834 41.1492 87.8115 40.86 88.2991 40.6502C88.7923 40.4348 89.3167 40.3271 89.8724 40.3271C90.4336 40.3271 90.9581 40.4348 91.4457 40.6502C91.9389 40.86 92.367 41.1492 92.7298 41.5177C93.0983 41.8862 93.3875 42.3171 93.5972 42.8103C93.8127 43.2979 93.9204 43.8223 93.9204 44.3836V47.3941C93.9204 47.5245 93.8949 47.6464 93.8439 47.7598C93.7985 47.8732 93.7333 47.9724 93.6483 48.0575C93.5632 48.1425 93.4612 48.2106 93.3421 48.2616C93.2287 48.3126 93.1068 48.3381 92.9764 48.3381C92.7553 48.3381 92.5682 48.2729 92.4151 48.1425C92.2621 48.0121 92.16 47.8477 92.109 47.6493C91.7858 47.8931 91.4343 48.0858 91.0545 48.2276C90.6803 48.3693 90.2862 48.4402 89.8724 48.4402C89.3167 48.4402 88.7923 48.3353 88.2991 48.1255C87.8115 47.9101 87.3834 47.6181 87.0149 47.2496C86.6464 46.881 86.3544 46.4502 86.139 45.9569C85.9235 45.4637 85.8158 44.9392 85.8158 44.3836ZM87.6612 44.3836C87.6612 44.6841 87.7179 44.9704 87.8313 45.2426C87.9504 45.509 88.1091 45.7443 88.3076 45.9484C88.5117 46.1468 88.747 46.3056 89.0134 46.4247C89.2799 46.538 89.5662 46.5947 89.8724 46.5947C90.1785 46.5947 90.4648 46.538 90.7313 46.4247C91.0034 46.3056 91.2387 46.1468 91.4372 45.9484C91.6356 45.7443 91.7915 45.509 91.9049 45.2426C92.0183 44.9704 92.075 44.6841 92.075 44.3836C92.075 44.0775 92.0183 43.7912 91.9049 43.5247C91.7915 43.2525 91.6356 43.0173 91.4372 42.8188C91.2387 42.6204 91.0034 42.4645 90.7313 42.3511C90.4648 42.232 90.1785 42.1725 89.8724 42.1725C89.5719 42.1725 89.2856 42.232 89.0134 42.3511C88.747 42.4645 88.5117 42.6204 88.3076 42.8188C88.1091 43.0173 87.9504 43.2525 87.8313 43.5247C87.7179 43.7912 87.6612 44.0775 87.6612 44.3836ZM98.4341 46.4927C98.5645 46.4927 98.6835 46.5182 98.7912 46.5692C98.9046 46.6203 99.001 46.6911 99.0804 46.7818C99.1654 46.8669 99.2306 46.9661 99.276 47.0795C99.3213 47.1929 99.344 47.3119 99.344 47.4367C99.344 47.6975 99.259 47.9129 99.0889 48.083C98.9188 48.2531 98.7005 48.3381 98.4341 48.3381C98.0485 48.3381 97.6857 48.2729 97.3455 48.1425C97.011 48.0121 96.7162 47.8307 96.4611 47.5982C96.2059 47.3658 96.0018 47.0852 95.8488 46.7563C95.7013 46.4275 95.6248 46.0646 95.6191 45.6678V45.6082V38.303C95.6191 38.1726 95.6418 38.0508 95.6872 37.9374C95.7325 37.824 95.7949 37.7276 95.8743 37.6482C95.9593 37.5632 96.0557 37.498 96.1634 37.4526C96.2711 37.4016 96.3874 37.3761 96.5121 37.3761C96.6368 37.3761 96.7559 37.4016 96.8693 37.4526C96.9883 37.498 97.0904 37.5632 97.1754 37.6482C97.2661 37.7276 97.337 37.824 97.388 37.9374C97.4391 38.0508 97.4646 38.1726 97.4646 38.303V45.6082C97.4646 45.9031 97.5553 46.1242 97.7367 46.2716C97.9181 46.419 98.1506 46.4927 98.4341 46.4927ZM102.305 40.4291H105.264C105.389 40.4291 105.508 40.4546 105.622 40.5057C105.735 40.5567 105.834 40.6247 105.919 40.7098C106.004 40.7948 106.072 40.894 106.123 41.0074C106.174 41.1208 106.2 41.2399 106.2 41.3646C106.2 41.4893 106.174 41.6084 106.123 41.7218C106.078 41.8295 106.013 41.9259 105.928 42.0109C105.843 42.0903 105.744 42.1555 105.63 42.2065C105.517 42.2519 105.395 42.2746 105.264 42.2746H102.305V44.4261C102.305 44.7266 102.362 45.0101 102.475 45.2766C102.594 45.5374 102.753 45.767 102.951 45.9654C103.15 46.1582 103.382 46.3113 103.649 46.4247C103.921 46.538 104.21 46.5947 104.516 46.5947C104.788 46.5947 105.041 46.5579 105.273 46.4842C105.505 46.4048 105.721 46.2772 105.919 46.1015C105.982 46.0448 106.041 45.9966 106.098 45.9569C106.16 45.9116 106.231 45.8747 106.311 45.8464C106.452 45.7953 106.6 45.7812 106.753 45.8038C106.906 45.8208 107.05 45.8917 107.186 46.0164C107.288 46.1128 107.359 46.2234 107.399 46.3481C107.444 46.4672 107.461 46.5947 107.45 46.7308C107.444 46.8612 107.413 46.9888 107.357 47.1135C107.3 47.2382 107.22 47.3488 107.118 47.4452C106.778 47.774 106.387 48.0235 105.945 48.1935C105.503 48.358 105.026 48.4402 104.516 48.4402C103.955 48.4402 103.428 48.3353 102.934 48.1255C102.447 47.9157 102.019 47.6294 101.65 47.2666C101.282 46.9037 100.99 46.4785 100.774 45.9909C100.564 45.4977 100.46 44.9704 100.46 44.4091V38.9494C100.46 38.819 100.482 38.6971 100.528 38.5837C100.579 38.4703 100.647 38.3711 100.732 38.286C100.817 38.201 100.916 38.1358 101.029 38.0904C101.143 38.0394 101.265 38.0139 101.395 38.0139C101.52 38.0139 101.636 38.0394 101.744 38.0904C101.857 38.1358 101.953 38.201 102.033 38.286C102.118 38.3711 102.183 38.4703 102.228 38.5837C102.279 38.6971 102.305 38.819 102.305 38.9494V40.4291ZM116.238 47.4367C116.238 47.5671 116.213 47.6861 116.162 47.7938C116.116 47.9016 116.051 47.9979 115.966 48.083C115.881 48.1624 115.782 48.2247 115.668 48.2701C115.555 48.3154 115.436 48.3381 115.311 48.3381C115.186 48.3381 115.067 48.3154 114.954 48.2701C114.846 48.2247 114.75 48.1624 114.665 48.083C114.58 47.9979 114.512 47.9016 114.461 47.7938C114.415 47.6861 114.393 47.5671 114.393 47.4367V44.2986C114.393 44.2816 114.393 44.2646 114.393 44.2476C114.393 44.2249 114.395 44.205 114.401 44.188C114.39 43.9045 114.336 43.6409 114.24 43.3971C114.149 43.1533 114.018 42.9407 113.848 42.7593C113.684 42.5779 113.486 42.4361 113.253 42.3341C113.021 42.2264 112.763 42.1725 112.479 42.1725C112.19 42.1725 111.921 42.2235 111.671 42.3256C111.422 42.422 111.206 42.5609 111.025 42.7423C110.844 42.918 110.699 43.1307 110.591 43.3801C110.489 43.6239 110.438 43.8932 110.438 44.188V47.4197C110.438 47.5501 110.413 47.6719 110.362 47.7853C110.316 47.8931 110.251 47.9894 110.166 48.0745C110.087 48.1539 109.99 48.2191 109.877 48.2701C109.763 48.3154 109.644 48.3381 109.52 48.3381C109.389 48.3381 109.267 48.3154 109.154 48.2701C109.041 48.2191 108.941 48.1539 108.856 48.0745C108.777 47.9894 108.712 47.8931 108.661 47.7853C108.615 47.6719 108.593 47.5501 108.593 47.4197V38.3116C108.593 38.1812 108.615 38.0593 108.661 37.9459C108.712 37.8325 108.78 37.7333 108.865 37.6482C108.95 37.5632 109.049 37.498 109.163 37.4526C109.276 37.4016 109.395 37.3761 109.52 37.3761C109.644 37.3761 109.763 37.4016 109.877 37.4526C109.99 37.498 110.087 37.5632 110.166 37.6482C110.251 37.7333 110.316 37.8325 110.362 37.9459C110.413 38.0593 110.438 38.1812 110.438 38.3116V41.084C110.733 40.8458 111.05 40.6616 111.391 40.5312C111.736 40.3951 112.099 40.3271 112.479 40.3271C113.018 40.3271 113.517 40.432 113.976 40.6417C114.435 40.8458 114.832 41.1265 115.167 41.4837C115.501 41.8352 115.762 42.249 115.949 42.7253C116.142 43.2015 116.238 43.7089 116.238 44.2476V44.2901V44.2986V47.4367ZM119.603 44.5282C119.603 44.8173 119.657 45.0895 119.764 45.3446C119.872 45.5941 120.02 45.8123 120.207 45.9994C120.394 46.1809 120.615 46.3254 120.87 46.4332C121.125 46.5352 121.397 46.5862 121.686 46.5862C121.976 46.5862 122.245 46.5324 122.494 46.4247C122.749 46.3113 122.968 46.161 123.149 45.9739C123.336 45.7812 123.484 45.5572 123.591 45.3021C123.699 45.047 123.753 44.772 123.753 44.4772V44.4602V41.3476C123.753 41.2229 123.778 41.1066 123.829 40.9989C123.881 40.8855 123.949 40.7863 124.034 40.7013C124.119 40.6162 124.218 40.551 124.331 40.5057C124.445 40.4546 124.567 40.4291 124.697 40.4291C124.822 40.4291 124.938 40.4546 125.046 40.5057C125.159 40.551 125.255 40.6162 125.335 40.7013C125.42 40.7863 125.485 40.8855 125.53 40.9989C125.576 41.1066 125.598 41.2229 125.598 41.3476V44.4687V44.4772V44.5112C125.598 44.9761 125.522 45.4183 125.369 45.8379C125.216 46.2517 125.006 46.6288 124.739 46.9689C124.473 47.3034 124.155 47.5897 123.787 47.8279C123.418 48.0603 123.019 48.2276 122.588 48.3296V50.2856C122.588 50.416 122.562 50.5379 122.511 50.6513C122.466 50.7647 122.401 50.8611 122.316 50.9404C122.231 51.0255 122.131 51.0907 122.018 51.136C121.91 51.1871 121.794 51.2126 121.669 51.2126C121.403 51.2126 121.182 51.1247 121.006 50.9489C120.83 50.7732 120.742 50.5521 120.742 50.2856V48.3211C120.312 48.2134 119.915 48.0405 119.552 47.8023C119.189 47.5642 118.874 47.2779 118.608 46.9434C118.341 46.6089 118.132 46.2347 117.979 45.8208C117.831 45.407 117.757 44.9704 117.757 44.5112V41.3476C117.757 41.2229 117.78 41.1066 117.825 40.9989C117.876 40.8855 117.942 40.7863 118.021 40.7013C118.106 40.6162 118.202 40.551 118.31 40.5057C118.424 40.4546 118.545 40.4291 118.676 40.4291C118.801 40.4291 118.92 40.4546 119.033 40.5057C119.146 40.551 119.246 40.6162 119.331 40.7013C119.416 40.7863 119.481 40.8855 119.526 40.9989C119.577 41.1066 119.603 41.2229 119.603 41.3476V44.5282ZM133.047 46.4927L137.767 46.5012C137.891 46.5012 138.01 46.5267 138.124 46.5777C138.237 46.6231 138.334 46.6883 138.413 46.7733C138.498 46.8584 138.563 46.9576 138.609 47.071C138.66 47.1844 138.685 47.3034 138.685 47.4282C138.685 47.5586 138.66 47.6805 138.609 47.7938C138.563 47.9016 138.498 47.9979 138.413 48.083C138.334 48.1624 138.237 48.2276 138.124 48.2786C138.01 48.3239 137.891 48.3438 137.767 48.3381H132.154H132.12C132.086 48.3381 132.052 48.3381 132.018 48.3381C131.989 48.3381 131.961 48.3324 131.933 48.3211C131.91 48.3211 131.887 48.3154 131.865 48.3041C131.672 48.2531 131.513 48.1482 131.388 47.9894C131.264 47.8307 131.201 47.6436 131.201 47.4282V38.3626C131.201 38.2378 131.224 38.1188 131.269 38.0054C131.32 37.892 131.386 37.7956 131.465 37.7163C131.55 37.6369 131.646 37.5745 131.754 37.5292C131.867 37.4781 131.989 37.4526 132.12 37.4526C132.244 37.4526 132.364 37.4781 132.477 37.5292C132.59 37.5745 132.69 37.6369 132.775 37.7163C132.86 37.7956 132.925 37.892 132.97 38.0054C133.021 38.1188 133.047 38.2378 133.047 38.3626V46.4927ZM139.894 38.5497C139.894 38.4079 139.919 38.2747 139.97 38.15C140.027 38.0252 140.101 37.9175 140.191 37.8268C140.282 37.7361 140.39 37.6652 140.514 37.6142C140.639 37.5575 140.77 37.5292 140.906 37.5292C141.042 37.5292 141.172 37.5575 141.297 37.6142C141.422 37.6652 141.529 37.7361 141.62 37.8268C141.716 37.9175 141.79 38.0252 141.841 38.15C141.898 38.2747 141.926 38.4079 141.926 38.5497C141.926 38.6857 141.898 38.8161 141.841 38.9409C141.79 39.0599 141.716 39.1648 141.62 39.2555C141.529 39.3462 141.422 39.4199 141.297 39.4766C141.172 39.5277 141.042 39.5532 140.906 39.5532C140.77 39.5532 140.639 39.5277 140.514 39.4766C140.39 39.4199 140.282 39.3462 140.191 39.2555C140.101 39.1648 140.027 39.0599 139.97 38.9409C139.919 38.8161 139.894 38.6857 139.894 38.5497ZM141.833 47.4197C141.833 47.5501 141.807 47.6719 141.756 47.7853C141.711 47.8931 141.645 47.9894 141.56 48.0745C141.481 48.1539 141.385 48.2191 141.271 48.2701C141.158 48.3154 141.039 48.3381 140.914 48.3381C140.789 48.3381 140.67 48.3154 140.557 48.2701C140.444 48.2191 140.344 48.1539 140.259 48.0745C140.174 47.9894 140.106 47.8931 140.055 47.7853C140.01 47.6719 139.987 47.5501 139.987 47.4197V41.3476C139.987 41.2229 140.013 41.1066 140.064 40.9989C140.115 40.8855 140.183 40.7863 140.268 40.7013C140.353 40.6162 140.452 40.551 140.565 40.5057C140.679 40.4546 140.801 40.4291 140.931 40.4291C141.056 40.4291 141.172 40.4546 141.28 40.5057C141.393 40.551 141.49 40.6162 141.569 40.7013C141.654 40.7863 141.719 40.8855 141.765 40.9989C141.81 41.1066 141.833 41.2229 141.833 41.3476V47.4197ZM144.249 41.254V40.14C144.249 39.7658 144.317 39.4143 144.453 39.0854C144.595 38.7509 144.788 38.4618 145.032 38.218C145.275 37.9685 145.559 37.7701 145.882 37.6227C146.211 37.4753 146.562 37.3959 146.937 37.3846C146.948 37.3846 146.956 37.3846 146.962 37.3846C146.973 37.3789 146.985 37.3761 146.996 37.3761C147.263 37.3761 147.484 37.4668 147.659 37.6482C147.841 37.824 147.932 38.0451 147.932 38.3116C147.932 38.442 147.906 38.5638 147.855 38.6772C147.81 38.785 147.745 38.8785 147.659 38.9579C147.574 39.0373 147.475 39.1025 147.362 39.1535C147.248 39.1988 147.127 39.2215 146.996 39.2215H146.954C146.829 39.2272 146.713 39.2584 146.605 39.3151C146.503 39.3661 146.412 39.4341 146.333 39.5192C146.259 39.6042 146.2 39.7034 146.154 39.8168C146.115 39.9245 146.095 40.0408 146.095 40.1655V41.254H146.715C146.846 41.254 146.968 41.2796 147.081 41.3306C147.195 41.3759 147.291 41.4411 147.37 41.5262C147.455 41.6055 147.521 41.7019 147.566 41.8153C147.617 41.9287 147.642 42.0478 147.642 42.1725C147.642 42.3029 147.617 42.4248 147.566 42.5382C147.521 42.6516 147.455 42.7508 147.37 42.8358C147.291 42.9152 147.195 42.9804 147.081 43.0314C146.968 43.0768 146.846 43.0995 146.715 43.0995H146.095V47.4026C146.095 47.533 146.069 47.6549 146.018 47.7683C145.973 47.8817 145.908 47.9809 145.823 48.066C145.737 48.151 145.638 48.2191 145.525 48.2701C145.417 48.3154 145.301 48.3381 145.176 48.3381C145.046 48.3381 144.924 48.3154 144.811 48.2701C144.703 48.2191 144.606 48.151 144.521 48.066C144.436 47.9809 144.368 47.8817 144.317 47.7683C144.272 47.6549 144.249 47.533 144.249 47.4026V43.0995H143.816C143.685 43.0995 143.563 43.0768 143.45 43.0314C143.342 42.9804 143.246 42.9124 143.161 42.8273C143.076 42.7423 143.008 42.6431 142.957 42.5297C142.911 42.4163 142.889 42.2972 142.889 42.1725C142.889 42.0478 142.911 41.9287 142.957 41.8153C143.008 41.7019 143.076 41.6055 143.161 41.5262C143.246 41.4411 143.342 41.3759 143.45 41.3306C143.563 41.2796 143.685 41.254 143.816 41.254H144.249ZM150.543 45.2085C150.617 45.424 150.719 45.6167 150.849 45.7868C150.985 45.9569 151.141 46.1043 151.317 46.2291C151.493 46.3481 151.686 46.4417 151.895 46.5097C152.105 46.5721 152.326 46.6032 152.559 46.6032C153.143 46.6032 153.602 46.4502 153.936 46.144C154.107 46.025 154.268 45.9541 154.421 45.9314C154.574 45.9087 154.719 45.9201 154.855 45.9654C154.951 45.9994 155.036 46.0533 155.11 46.127C155.189 46.195 155.255 46.2716 155.306 46.3566C155.362 46.4473 155.402 46.5465 155.425 46.6543C155.453 46.7563 155.459 46.8612 155.442 46.9689C155.43 47.0766 155.396 47.1844 155.34 47.2921C155.289 47.3941 155.209 47.4877 155.102 47.5727C154.977 47.6861 154.835 47.7967 154.676 47.9044C154.518 48.0065 154.333 48.0972 154.124 48.1765C153.919 48.2559 153.687 48.3183 153.426 48.3636C153.171 48.4147 152.882 48.4402 152.559 48.4402C151.997 48.4402 151.47 48.3353 150.977 48.1255C150.484 47.9101 150.053 47.6181 149.684 47.2496C149.316 46.881 149.024 46.453 148.808 45.9654C148.593 45.4722 148.485 44.9449 148.485 44.3836C148.485 43.8223 148.593 43.2951 148.808 42.8018C149.024 42.3086 149.316 41.8805 149.684 41.5177C150.053 41.1492 150.484 40.86 150.977 40.6502C151.47 40.4348 151.997 40.3271 152.559 40.3271C153.114 40.3271 153.636 40.432 154.124 40.6417C154.617 40.8515 155.048 41.1378 155.416 41.5007C155.79 41.8578 156.085 42.2802 156.301 42.7678C156.516 43.2554 156.629 43.777 156.641 44.3326C156.641 44.5934 156.556 44.806 156.386 44.9704C156.221 45.1292 156.003 45.2085 155.731 45.2085H150.543ZM154.744 43.6778C154.682 43.4453 154.583 43.2355 154.447 43.0484C154.311 42.8614 154.149 42.7026 153.962 42.5722C153.775 42.4418 153.565 42.3426 153.333 42.2746C153.106 42.2065 152.862 42.1725 152.601 42.1725C152.34 42.1725 152.094 42.2094 151.861 42.2831C151.635 42.3568 151.428 42.4588 151.241 42.5892C151.059 42.7196 150.903 42.8784 150.773 43.0655C150.642 43.2469 150.546 43.451 150.484 43.6778H154.744Z" fill="#F17400"/>
</svg>
