<svg width="141" height="20" viewBox="0 0 141 20" fill="none" xmlns="http://www.w3.org/2000/svg">
<path d="M0 4.27661H1.78542L3.69836 13.1535L5.26796 7.48406H6.80812L8.39734 13.1535L10.3103 4.27661H12.0957L9.52549 15.2624H7.79893L6.04295 9.23982L4.29677 15.2624H2.57021L0 4.27661Z" fill="#A337B2"/>
<path d="M23.0142 9.31829V10.2011H15.1957V10.2599C15.1957 11.4566 15.5063 12.3819 16.1276 13.0358C16.7554 13.6897 17.6383 14.0167 18.7763 14.0167C19.3518 14.0167 19.9535 13.9251 20.5813 13.742C21.2092 13.5589 21.8795 13.281 22.5924 12.9083V14.7033C21.9057 14.9845 21.2419 15.1937 20.601 15.331C19.9666 15.4749 19.3518 15.5468 18.7567 15.5468C17.0497 15.5468 15.7156 15.0368 14.7542 14.0167C13.7928 12.99 13.3121 11.5776 13.3121 9.7793C13.3121 8.02681 13.783 6.62743 14.7248 5.58117C15.6665 4.5349 16.9222 4.01177 18.4918 4.01177C19.8914 4.01177 20.9933 4.48586 21.7978 5.43404C22.6087 6.38221 23.0142 7.67697 23.0142 9.31829ZM21.2092 8.78862C21.183 7.72928 20.9312 6.92496 20.4538 6.37567C19.9829 5.81985 19.3028 5.54193 18.4133 5.54193C17.5435 5.54193 16.8274 5.82966 16.2649 6.4051C15.7025 6.98055 15.369 7.77832 15.2643 8.79843L21.2092 8.78862Z" fill="#A337B2"/>
<path d="M36.3067 19.2153V20H24.211V19.2153H36.3067Z" fill="#A337B2"/>
<path d="M42.6047 9.74007C41.5518 9.74007 40.7572 9.92644 40.2209 10.2992C39.6912 10.6654 39.4263 11.2146 39.4263 11.947C39.4263 12.6075 39.6258 13.1208 40.0247 13.487C40.4236 13.8532 40.9763 14.0363 41.6826 14.0363C42.6767 14.0363 43.4582 13.693 44.0272 13.0064C44.5961 12.3132 44.8839 11.3585 44.8905 10.1422V9.74007H42.6047ZM46.7053 8.99461V15.2624H44.8905V13.6341C44.5046 14.2881 44.0174 14.7719 43.4288 15.0858C42.8467 15.3932 42.1371 15.5468 41.3 15.5468C40.1817 15.5468 39.289 15.233 38.6219 14.6052C37.9548 13.9709 37.6213 13.1241 37.6213 12.0647C37.6213 10.8419 38.03 9.91336 38.8475 9.27906C39.6715 8.64476 40.8782 8.32761 42.4674 8.32761H44.8905V8.04316C44.8839 7.16691 44.6615 6.53261 44.2234 6.14027C43.7852 5.74138 43.0854 5.54193 42.124 5.54193C41.5093 5.54193 40.888 5.63021 40.2601 5.80677C39.6323 5.98333 39.0208 6.24162 38.4257 6.58166V4.77685C39.0928 4.52182 39.7304 4.33219 40.3386 4.20795C40.9534 4.07716 41.5485 4.01177 42.124 4.01177C43.0331 4.01177 43.8081 4.14582 44.449 4.41393C45.0965 4.68203 45.6197 5.08419 46.0186 5.6204C46.2671 5.94736 46.4437 6.35279 46.5483 6.83668C46.653 7.31404 46.7053 8.03335 46.7053 8.99461Z" fill="#A337B2"/>
<path d="M59.7526 6.54242C59.3667 6.24162 58.9743 6.02256 58.5754 5.88524C58.1764 5.74792 57.7382 5.67926 57.2608 5.67926C56.1359 5.67926 55.2759 6.03237 54.6808 6.7386C54.0857 7.44483 53.7881 8.46493 53.7881 9.79892V15.2624H51.9733V4.27661H53.7881V6.42472C54.0889 5.64656 54.55 5.0515 55.1713 4.63953C55.7991 4.22102 56.5414 4.01177 57.3982 4.01177C57.8429 4.01177 58.2582 4.06735 58.644 4.17852C59.0299 4.28968 59.3994 4.46297 59.7526 4.69838V6.54242Z" fill="#A337B2"/>
<path d="M71.4362 9.31829V10.2011H63.6177V10.2599C63.6177 11.4566 63.9284 12.3819 64.5497 13.0358C65.1775 13.6897 66.0604 14.0167 67.1983 14.0167C67.7739 14.0167 68.3755 13.9251 69.0034 13.742C69.6312 13.5589 70.3016 13.281 71.0144 12.9083V14.7033C70.3277 14.9845 69.6639 15.1937 69.023 15.331C68.3886 15.4749 67.7739 15.5468 67.1787 15.5468C65.4718 15.5468 64.1376 15.0368 63.1762 14.0167C62.2149 12.99 61.7342 11.5776 61.7342 9.7793C61.7342 8.02681 62.2051 6.62743 63.1468 5.58117C64.0886 4.5349 65.3442 4.01177 66.9138 4.01177C68.3134 4.01177 69.4154 4.48586 70.2198 5.43404C71.0308 6.38221 71.4362 7.67697 71.4362 9.31829ZM69.6312 8.78862C69.605 7.72928 69.3533 6.92496 68.8758 6.37567C68.405 5.81985 67.7248 5.54193 66.8354 5.54193C65.9655 5.54193 65.2494 5.82966 64.687 6.4051C64.1245 6.98055 63.791 7.77832 63.6864 8.79843L69.6312 8.78862Z" fill="#A337B2"/>
<path d="M76.1254 8.95537H81.2364V10.564H76.1254V8.95537Z" fill="#A337B2"/>
<path d="M89.2806 0H93.44V1.40265H91.0856V16.5081H93.44V17.9107H89.2806V0Z" fill="#A337B2"/>
<path d="M96.8441 4.27661H98.6295L100.542 13.1535L102.112 7.48406H103.652L105.241 13.1535L107.154 4.27661H108.94L106.37 15.2624H104.643L102.887 9.23982L101.141 15.2624H99.4143L96.8441 4.27661Z" fill="#A337B2"/>
<path d="M119.858 9.31829V10.2011H112.04V10.2599C112.04 11.4566 112.35 12.3819 112.972 13.0358C113.6 13.6897 114.482 14.0167 115.62 14.0167C116.196 14.0167 116.798 13.9251 117.425 13.742C118.053 13.5589 118.724 13.281 119.436 12.9083V14.7033C118.75 14.9845 118.086 15.1937 117.445 15.331C116.811 15.4749 116.196 15.5468 115.601 15.5468C113.894 15.5468 112.56 15.0368 111.598 14.0167C110.637 12.99 110.156 11.5776 110.156 9.7793C110.156 8.02681 110.627 6.62743 111.569 5.58117C112.511 4.5349 113.766 4.01177 115.336 4.01177C116.735 4.01177 117.837 4.48586 118.642 5.43404C119.453 6.38221 119.858 7.67697 119.858 9.31829ZM118.053 8.78862C118.027 7.72928 117.775 6.92496 117.298 6.37567C116.827 5.81985 116.147 5.54193 115.257 5.54193C114.388 5.54193 113.671 5.82966 113.109 6.4051C112.547 6.98055 112.213 7.77832 112.108 8.79843L118.053 8.78862Z" fill="#A337B2"/>
<path d="M130.061 9.7793C130.061 8.37992 129.838 7.32385 129.394 6.61108C128.949 5.89832 128.292 5.54193 127.422 5.54193C126.545 5.54193 125.882 5.90159 125.43 6.62089C124.979 7.33366 124.753 8.38646 124.753 9.7793C124.753 11.1656 124.979 12.2184 125.43 12.9377C125.882 13.657 126.545 14.0167 127.422 14.0167C128.292 14.0167 128.949 13.6603 129.394 12.9475C129.838 12.2348 130.061 11.1787 130.061 9.7793ZM124.753 5.67926C125.041 5.14304 125.437 4.73108 125.94 4.44336C126.451 4.15563 127.039 4.01177 127.706 4.01177C129.027 4.01177 130.067 4.52182 130.826 5.54193C131.584 6.5555 131.964 7.95488 131.964 9.74007C131.964 11.5514 131.581 12.9737 130.816 14.0069C130.057 15.0335 129.014 15.5468 127.687 15.5468C127.033 15.5468 126.454 15.4062 125.95 15.1251C125.453 14.8373 125.054 14.4221 124.753 13.8794V15.2624H122.948V0H124.753V5.67926Z" fill="#A337B2"/>
<path d="M140.714 0V17.9107H136.555V16.5081H138.909V1.40265H136.555V0H140.714Z" fill="#A337B2"/>
</svg>
