<svg width="685" height="46" viewBox="0 0 685 46" fill="none" xmlns="http://www.w3.org/2000/svg">
<path d="M27.3011 0.315415C27.8151 0.315415 28.3058 0.420555 28.7731 0.630835C29.2404 0.817749 29.6376 1.08644 29.9647 1.4369C30.2918 1.764 30.5488 2.16119 30.7357 2.62848C30.946 3.09576 31.0511 3.5981 31.0511 4.13547C31.0511 4.67285 30.946 5.17518 30.7357 5.64247C30.5488 6.08639 30.2918 6.48358 29.9647 6.83404C29.6376 7.16114 29.2404 7.42983 28.7731 7.64011C28.3058 7.82702 27.8151 7.92048 27.3011 7.92048H7.60506V20.432H22.5699C23.0839 20.432 23.5745 20.5372 24.0418 20.7475C24.5091 20.9577 24.9063 21.2498 25.2334 21.6236C25.5839 21.9741 25.8525 22.3946 26.0395 22.8853C26.2497 23.3526 26.3549 23.8432 26.3549 24.3572C26.3549 24.8946 26.2497 25.3853 26.0395 25.8292C25.8525 26.2731 25.5839 26.6586 25.2334 26.9857C24.9063 27.3128 24.5091 27.5698 24.0418 27.7567C23.5745 27.9436 23.0839 28.0371 22.5699 28.0371H7.60506V41.4248C7.60506 41.9622 7.49993 42.4645 7.28965 42.9318C7.10273 43.3757 6.83404 43.7729 6.48358 44.1234C6.13312 44.4505 5.72424 44.7075 5.25696 44.8944C4.78967 45.0813 4.29902 45.1748 3.78501 45.1748C3.24763 45.1748 2.7453 45.0813 2.27801 44.8944C1.83409 44.6841 1.4369 44.4154 1.08644 44.0883C0.759338 43.7612 0.490649 43.3757 0.280371 42.9318C0.093457 42.4645 0 41.9622 0 41.4248V3.96024C0 3.56305 0.0700927 3.15417 0.210278 2.73362C0.350464 2.2897 0.560742 1.89251 0.841113 1.54204C1.14485 1.19158 1.53036 0.899521 1.99764 0.665879C2.48829 0.432237 3.08408 0.315415 3.78501 0.315415H27.3011Z" fill="#008838"/>
<path d="M38.585 41.4248C38.585 41.9622 38.4798 42.4645 38.2696 42.9318C38.0826 43.3757 37.8256 43.7612 37.4985 44.0883C37.1714 44.4154 36.7859 44.6841 36.342 44.8944C35.8981 45.0813 35.4191 45.1748 34.9051 45.1748C34.3677 45.1748 33.8537 45.0813 33.3631 44.8944C32.8958 44.6841 32.4869 44.4154 32.1364 44.0883C31.786 43.7612 31.5056 43.3757 31.2953 42.9318C31.085 42.4645 30.9799 41.9622 30.9799 41.4248V30.1048C30.9799 27.6983 31.4355 25.432 32.3467 23.3058C33.2813 21.1797 34.543 19.3222 36.1317 17.7335C37.7205 16.1447 39.5779 14.8947 41.7041 13.9835C43.8302 13.0489 46.0849 12.5816 48.468 12.5816H48.5381C49.7998 12.5816 50.7694 12.9438 51.447 13.6681C52.1479 14.369 52.4984 15.2685 52.4984 16.3667C52.4984 16.904 52.3932 17.4064 52.183 17.8737C51.9727 18.3409 51.6806 18.7498 51.3068 19.1003C50.9563 19.4274 50.5358 19.6961 50.0451 19.9063C49.5779 20.0933 49.0755 20.1867 48.5381 20.1867H48.468C47.1363 20.1867 45.8629 20.4437 44.648 20.9577C43.4564 21.4717 42.4167 22.1727 41.5289 23.0605C40.641 23.9484 39.9284 24.9881 39.391 26.1796C38.8537 27.3712 38.585 28.6446 38.585 29.9997V41.4248Z" fill="#008838"/>
<path d="M64.1184 29.439C64.1184 30.6305 64.3287 31.752 64.7493 32.8034C65.1932 33.8314 65.789 34.731 66.5366 35.502C67.3077 36.273 68.2072 36.8805 69.2352 37.3244C70.2866 37.7683 71.4081 37.9903 72.5997 37.9903C73.8146 37.9903 74.9011 37.7683 75.859 37.3244C76.8169 36.8571 77.623 36.238 78.2772 35.4669C78.9548 34.6726 79.4688 33.7497 79.8192 32.6983C80.193 31.6469 80.38 30.5254 80.38 29.3338V16.3667C80.38 15.8526 80.4851 15.362 80.6954 14.8947C80.9057 14.4274 81.186 14.0302 81.5365 13.7031C81.9103 13.3527 82.3309 13.084 82.7982 12.8971C83.2654 12.6868 83.7561 12.5816 84.2701 12.5816C84.7841 12.5816 85.2631 12.6868 85.707 12.8971C86.1743 13.084 86.5715 13.3527 86.8986 13.7031C87.2491 14.0302 87.5177 14.4274 87.7047 14.8947C87.8916 15.362 87.985 15.8526 87.985 16.3667V29.2287C87.985 31.4716 87.5995 33.5861 86.8285 35.5721C86.0808 37.558 85.0294 39.2987 83.6743 40.794C82.3192 42.2659 80.6954 43.4341 78.8029 44.2986C76.9104 45.1631 74.8426 45.5953 72.5997 45.5953C70.3567 45.5953 68.2539 45.1748 66.2913 44.3337C64.3521 43.4692 62.6582 42.301 61.2096 40.829C59.761 39.3571 58.6162 37.6398 57.7751 35.6772C56.9339 33.7146 56.5134 31.6235 56.5134 29.4039V16.3667C56.5134 15.8526 56.6068 15.362 56.7938 14.8947C57.004 14.4274 57.2727 14.0302 57.5998 13.7031C57.9503 13.3527 58.3475 13.084 58.7914 12.8971C59.2587 12.6868 59.761 12.5816 60.2984 12.5816C60.8124 12.5816 61.3031 12.6868 61.7703 12.8971C62.2376 13.084 62.6465 13.3527 62.997 13.7031C63.3474 14.0302 63.6161 14.4274 63.803 14.8947C64.0133 15.362 64.1184 15.8526 64.1184 16.3667V29.439Z" fill="#008838"/>
<path d="M94.8251 4.8364C94.8251 4.25229 94.9302 3.70323 95.1405 3.18922C95.3742 2.67521 95.6779 2.23129 96.0517 1.85746C96.4255 1.48363 96.8695 1.19158 97.3835 0.981299C97.8975 0.747656 98.4349 0.630835 98.9956 0.630835C99.5564 0.630835 100.094 0.747656 100.608 0.981299C101.122 1.19158 101.566 1.48363 101.94 1.85746C102.337 2.23129 102.64 2.67521 102.851 3.18922C103.084 3.70323 103.201 4.25229 103.201 4.8364C103.201 5.39714 103.084 5.93452 102.851 6.44853C102.64 6.93918 102.337 7.37142 101.94 7.74525C101.566 8.11908 101.122 8.42281 100.608 8.65646C100.094 8.86673 99.5564 8.97187 98.9956 8.97187C98.4349 8.97187 97.8975 8.86673 97.3835 8.65646C96.8695 8.42281 96.4255 8.11908 96.0517 7.74525C95.6779 7.37142 95.3742 6.93918 95.1405 6.44853C94.9302 5.93452 94.8251 5.39714 94.8251 4.8364ZM102.816 41.3898C102.816 41.9272 102.711 42.4295 102.5 42.8968C102.313 43.3407 102.045 43.7379 101.694 44.0883C101.367 44.4154 100.97 44.6841 100.503 44.8944C100.035 45.0813 99.5447 45.1748 99.0307 45.1748C98.5166 45.1748 98.026 45.0813 97.5587 44.8944C97.0914 44.6841 96.6826 44.4154 96.3321 44.0883C95.9816 43.7379 95.7013 43.3407 95.491 42.8968C95.3041 42.4295 95.2106 41.9272 95.2106 41.3898V16.3667C95.2106 15.8526 95.3157 15.3737 95.526 14.9298C95.7363 14.4625 96.0167 14.0536 96.3671 13.7031C96.7176 13.3527 97.1265 13.084 97.5938 12.8971C98.061 12.6868 98.5634 12.5816 99.1008 12.5816C99.6148 12.5816 100.094 12.6868 100.538 12.8971C101.005 13.084 101.402 13.3527 101.729 13.7031C102.08 14.0536 102.348 14.4625 102.535 14.9298C102.722 15.3737 102.816 15.8526 102.816 16.3667V41.3898Z" fill="#008838"/>
<path d="M117.892 12.5816H130.088C130.602 12.5816 131.092 12.6868 131.56 12.8971C132.027 13.1073 132.436 13.3877 132.786 13.7382C133.137 14.0886 133.417 14.4975 133.627 14.9648C133.838 15.4321 133.943 15.9227 133.943 16.4368C133.943 16.9508 133.838 17.4414 133.627 17.9087C133.441 18.3526 133.172 18.7498 132.821 19.1003C132.471 19.4274 132.062 19.6961 131.595 19.9063C131.127 20.0933 130.625 20.1867 130.088 20.1867H117.892V29.0534C117.892 30.2918 118.125 31.46 118.593 32.5581C119.083 33.6328 119.737 34.5791 120.555 35.3968C121.373 36.1912 122.331 36.8221 123.429 37.2893C124.55 37.7566 125.742 37.9903 127.004 37.9903C128.125 37.9903 129.165 37.8384 130.123 37.5347C131.081 37.2076 131.969 36.6819 132.786 35.9576C133.043 35.7239 133.289 35.5253 133.522 35.3618C133.779 35.1749 134.071 35.023 134.398 34.9062C134.983 34.6959 135.59 34.6375 136.221 34.731C136.852 34.8011 137.448 35.0931 138.008 35.6071C138.429 36.0043 138.721 36.4599 138.884 36.9739C139.071 37.4646 139.141 37.9903 139.095 38.551C139.071 39.0884 138.943 39.6141 138.709 40.1281C138.476 40.6421 138.148 41.0977 137.728 41.4949C136.326 42.85 134.714 43.8781 132.891 44.579C131.069 45.2566 129.106 45.5953 127.004 45.5953C124.691 45.5953 122.518 45.1631 120.485 44.2986C118.476 43.4341 116.712 42.2543 115.193 40.7589C113.674 39.2636 112.471 37.5113 111.583 35.502C110.719 33.4693 110.287 31.2964 110.287 28.9834V6.48358C110.287 5.9462 110.38 5.44387 110.567 4.97658C110.777 4.5093 111.058 4.10043 111.408 3.74996C111.759 3.3995 112.167 3.13081 112.635 2.9439C113.102 2.73362 113.604 2.62848 114.142 2.62848C114.656 2.62848 115.135 2.73362 115.579 2.9439C116.046 3.13081 116.443 3.3995 116.77 3.74996C117.121 4.10043 117.389 4.5093 117.576 4.97658C117.787 5.44387 117.892 5.9462 117.892 6.48358V12.5816Z" fill="#008838"/>
<path d="M186.007 36.5884H165.96L163.332 42.8968C163.122 43.3874 162.83 43.808 162.456 44.1584C162.082 44.5089 161.661 44.7659 161.194 44.9295C160.75 45.093 160.26 45.1748 159.722 45.1748C159.208 45.1514 158.706 45.0346 158.215 44.8243C157.701 44.614 157.281 44.3337 156.954 43.9832C156.626 43.6094 156.381 43.2005 156.218 42.7566C156.077 42.3127 156.019 41.8337 156.042 41.3197C156.089 40.8057 156.218 40.3033 156.428 39.8127L172.444 2.62848C172.771 1.88082 173.238 1.3084 173.846 0.911207C174.453 0.514013 175.154 0.315415 175.949 0.315415C176.696 0.315415 177.374 0.514013 177.981 0.911207C178.589 1.3084 179.056 1.86914 179.383 2.59343L195.505 39.8127C195.925 40.794 195.984 41.7636 195.68 42.7215C195.399 43.6795 194.769 44.3804 193.787 44.8243C193.297 45.0346 192.794 45.1514 192.28 45.1748C191.766 45.1748 191.276 45.093 190.808 44.9295C190.364 44.7425 189.956 44.4855 189.582 44.1584C189.208 43.808 188.904 43.3874 188.671 42.8968L186.007 36.5884ZM169.01 28.9834H182.853L175.984 12.4765L169.01 28.9834Z" fill="#008838"/>
<path d="M230.667 41.4949C230.667 42.0323 230.561 42.5346 230.351 43.0019C230.164 43.4458 229.907 43.843 229.58 44.1935C229.253 44.5206 228.856 44.7776 228.388 44.9645C227.945 45.1514 227.466 45.2449 226.952 45.2449C226.414 45.2449 225.912 45.1514 225.445 44.9645C224.977 44.7776 224.568 44.5206 224.218 44.1935C223.868 43.843 223.587 43.4458 223.377 43.0019C223.167 42.5346 223.061 42.0323 223.061 41.4949V28.4577C223.061 28.2707 223.073 28.1306 223.096 28.0371C223.05 26.8923 222.804 25.8175 222.361 24.8128C221.94 23.8082 221.368 22.932 220.643 22.1844C219.942 21.4367 219.101 20.8526 218.12 20.432C217.139 19.9881 216.076 19.7662 214.931 19.7662C213.739 19.7662 212.641 19.9881 211.636 20.432C210.632 20.8526 209.767 21.4484 209.043 22.2194C208.342 22.9904 207.781 23.9016 207.361 24.953C206.963 25.981 206.765 27.0909 206.765 28.2824V41.4949C206.765 42.0323 206.671 42.5346 206.484 43.0019C206.298 43.4458 206.029 43.843 205.678 44.1935C205.351 44.5206 204.954 44.7776 204.487 44.9645C204.043 45.1514 203.564 45.2449 203.05 45.2449C202.536 45.2449 202.045 45.1514 201.578 44.9645C201.111 44.7776 200.69 44.5206 200.316 44.1935C199.966 43.843 199.686 43.4458 199.475 43.0019C199.265 42.5346 199.16 42.0323 199.16 41.4949V28.2824C199.16 26.0395 199.557 23.9484 200.351 22.0091C201.169 20.0465 202.279 18.3409 203.681 16.8924C205.106 15.4204 206.777 14.2639 208.692 13.4228C210.632 12.5817 212.711 12.1611 214.931 12.1611C217.174 12.1611 219.253 12.5817 221.169 13.4228C223.085 14.2639 224.744 15.4204 226.146 16.8924C227.547 18.3409 228.645 20.0465 229.44 22.0091C230.258 23.9484 230.667 26.0395 230.667 28.2824V41.4949Z" fill="#008838"/>
<path d="M268.564 29.0184C268.541 30.5371 268.331 32.009 267.933 33.4342C267.536 34.8361 266.964 36.1562 266.216 37.3945C265.492 38.6094 264.616 39.7192 263.588 40.7239C262.583 41.7286 261.462 42.593 260.223 43.3173C258.985 44.0416 257.653 44.6024 256.228 44.9996C254.826 45.3967 253.366 45.5953 251.847 45.5953C249.534 45.5953 247.361 45.1631 245.328 44.2986C243.319 43.4108 241.555 42.2075 240.036 40.6888C238.541 39.1702 237.35 37.3945 236.462 35.3618C235.597 33.3291 235.165 31.1679 235.165 28.8782C235.165 26.5652 235.597 24.3923 236.462 22.3596C237.35 20.3269 238.541 18.5629 240.036 17.0676C241.555 15.5489 243.319 14.3573 245.328 13.4929C247.361 12.605 249.534 12.1611 251.847 12.1611C253.529 12.1611 255.13 12.4064 256.648 12.8971C258.191 13.3644 259.627 14.0302 260.959 14.8947V3.96024C260.959 3.3995 261.053 2.88548 261.24 2.4182C261.426 1.92755 261.683 1.50699 262.011 1.15653C262.361 0.782701 262.758 0.50233 263.202 0.315415C263.669 0.105138 264.183 0 264.744 0C265.282 0 265.784 0.105138 266.251 0.315415C266.718 0.50233 267.116 0.782701 267.443 1.15653C267.793 1.50699 268.062 1.92755 268.249 2.4182C268.459 2.88548 268.564 3.3995 268.564 3.96024V29.0184ZM260.959 28.8782C260.959 27.6165 260.714 26.4367 260.223 25.3385C259.756 24.217 259.102 23.2474 258.261 22.4297C257.443 21.6119 256.485 20.9694 255.387 20.5021C254.289 20.0115 253.109 19.7662 251.847 19.7662C250.585 19.7662 249.406 20.0115 248.307 20.5021C247.209 20.9694 246.24 21.6119 245.399 22.4297C244.581 23.2474 243.938 24.217 243.471 25.3385C243.004 26.4367 242.77 27.6165 242.77 28.8782C242.77 30.1165 243.004 31.2964 243.471 32.4179C243.938 33.516 244.581 34.4856 245.399 35.3268C246.216 36.1445 247.174 36.7987 248.272 37.2893C249.394 37.7566 250.585 37.9903 251.847 37.9903C253.109 37.9903 254.289 37.7566 255.387 37.2893C256.485 36.7987 257.443 36.1445 258.261 35.3268C259.102 34.4856 259.756 33.516 260.223 32.4179C260.714 31.2964 260.959 30.1165 260.959 28.8782Z" fill="#008838"/>
<path d="M299.955 14.2989V41.4248C299.955 41.9622 299.85 42.4645 299.639 42.9318C299.452 43.3757 299.184 43.7612 298.833 44.0883C298.483 44.4154 298.074 44.6841 297.607 44.8944C297.139 45.0813 296.649 45.1748 296.135 45.1748C295.597 45.1748 295.095 45.0813 294.628 44.8944C294.184 44.6841 293.787 44.4154 293.436 44.0883C293.109 43.7612 292.84 43.3757 292.63 42.9318C292.443 42.4645 292.35 41.9622 292.35 41.4248V4.17052C292.35 3.16585 292.677 2.31306 293.331 1.61213C293.635 1.21494 294.02 0.899521 294.488 0.665879C294.955 0.432237 295.504 0.315415 296.135 0.315415C296.695 0.315415 297.233 0.443919 297.747 0.700927C298.284 0.934569 298.752 1.28503 299.149 1.75232L323.401 30.8759V4.06538C323.401 3.55137 323.506 3.06072 323.716 2.59343C323.927 2.12615 324.207 1.72895 324.557 1.40185C324.908 1.07476 325.317 0.817749 325.784 0.630835C326.251 0.420555 326.754 0.315415 327.291 0.315415C327.805 0.315415 328.284 0.420555 328.728 0.630835C329.195 0.817749 329.592 1.07476 329.919 1.40185C330.27 1.72895 330.539 2.12615 330.726 2.59343C330.912 3.06072 331.006 3.55137 331.006 4.06538V41.4248C331.006 42.0323 330.877 42.593 330.62 43.107C330.363 43.6211 330.013 44.0416 329.569 44.3687C329.289 44.6257 328.962 44.8243 328.588 44.9645C328.237 45.1047 327.828 45.1748 327.361 45.1748H327.151C326.59 45.1514 326.099 45.0229 325.679 44.7893C325.258 44.5323 324.861 44.1701 324.487 43.7028L299.955 14.2989Z" fill="#008838"/>
<path d="M346.132 29.439C346.132 30.6305 346.343 31.752 346.763 32.8034C347.207 33.8314 347.803 34.731 348.55 35.502C349.322 36.273 350.221 36.8805 351.249 37.3244C352.3 37.7683 353.422 37.9903 354.613 37.9903C355.828 37.9903 356.915 37.7683 357.873 37.3244C358.831 36.8571 359.637 36.238 360.291 35.4669C360.969 34.6726 361.483 33.7497 361.833 32.6983C362.207 31.6469 362.394 30.5254 362.394 29.3338V16.3667C362.394 15.8526 362.499 15.362 362.709 14.8947C362.919 14.4274 363.2 14.0302 363.55 13.7031C363.924 13.3527 364.345 13.084 364.812 12.8971C365.279 12.6868 365.77 12.5816 366.284 12.5816C366.798 12.5816 367.277 12.6868 367.721 12.8971C368.188 13.084 368.585 13.3527 368.912 13.7031C369.263 14.0302 369.532 14.4274 369.718 14.8947C369.905 15.362 369.999 15.8526 369.999 16.3667V29.2287C369.999 31.4716 369.613 33.5861 368.842 35.5721C368.095 37.558 367.043 39.2987 365.688 40.794C364.333 42.2659 362.709 43.4341 360.817 44.2986C358.924 45.1631 356.856 45.5953 354.613 45.5953C352.371 45.5953 350.268 45.1748 348.305 44.3337C346.366 43.4692 344.672 42.301 343.223 40.829C341.775 39.3571 340.63 37.6398 339.789 35.6772C338.948 33.7146 338.527 31.6235 338.527 29.4039V16.3667C338.527 15.8526 338.621 15.362 338.808 14.8947C339.018 14.4274 339.287 14.0302 339.614 13.7031C339.964 13.3527 340.361 13.084 340.805 12.8971C341.272 12.6868 341.775 12.5816 342.312 12.5816C342.826 12.5816 343.317 12.6868 343.784 12.8971C344.251 13.084 344.66 13.3527 345.011 13.7031C345.361 14.0302 345.63 14.4274 345.817 14.8947C346.027 15.362 346.132 15.8526 346.132 16.3667V29.439Z" fill="#008838"/>
<path d="M384.094 12.5816H396.29C396.804 12.5816 397.294 12.6868 397.762 12.8971C398.229 13.1073 398.638 13.3877 398.988 13.7382C399.339 14.0886 399.619 14.4975 399.829 14.9648C400.04 15.4321 400.145 15.9227 400.145 16.4368C400.145 16.9508 400.04 17.4414 399.829 17.9087C399.642 18.3526 399.374 18.7498 399.023 19.1003C398.673 19.4274 398.264 19.6961 397.797 19.9063C397.329 20.0933 396.827 20.1867 396.29 20.1867H384.094V29.0534C384.094 30.2918 384.327 31.46 384.794 32.5581C385.285 33.6328 385.939 34.5791 386.757 35.3968C387.575 36.1912 388.533 36.8221 389.631 37.2893C390.752 37.7566 391.944 37.9903 393.206 37.9903C394.327 37.9903 395.367 37.8384 396.325 37.5347C397.283 37.2076 398.171 36.6819 398.988 35.9576C399.245 35.7239 399.491 35.5253 399.724 35.3618C399.981 35.1749 400.273 35.023 400.6 34.9062C401.184 34.6959 401.792 34.6375 402.423 34.731C403.054 34.8011 403.649 35.0931 404.21 35.6071C404.631 36.0043 404.923 36.4599 405.086 36.9739C405.273 37.4646 405.343 37.9903 405.297 38.551C405.273 39.0884 405.145 39.6141 404.911 40.1281C404.677 40.6421 404.35 41.0977 403.93 41.4949C402.528 42.85 400.916 43.8781 399.093 44.579C397.271 45.2566 395.308 45.5953 393.206 45.5953C390.893 45.5953 388.72 45.1631 386.687 44.2986C384.678 43.4341 382.914 42.2543 381.395 40.7589C379.876 39.2636 378.673 37.5113 377.785 35.502C376.921 33.4693 376.488 31.2964 376.488 28.9834V6.48358C376.488 5.9462 376.582 5.44387 376.769 4.97658C376.979 4.5093 377.259 4.10043 377.61 3.74996C377.96 3.3995 378.369 3.13081 378.837 2.9439C379.304 2.73362 379.806 2.62848 380.344 2.62848C380.858 2.62848 381.337 2.73362 381.78 2.9439C382.248 3.13081 382.645 3.3995 382.972 3.74996C383.323 4.10043 383.591 4.5093 383.778 4.97658C383.988 5.44387 384.094 5.9462 384.094 6.48358V12.5816Z" fill="#008838"/>
<path d="M417.47 31.4716C416.466 31.0511 415.426 30.5955 414.351 30.1048C413.276 29.5908 412.295 28.9717 411.407 28.2474C410.519 27.4997 409.783 26.6119 409.199 25.5839C408.639 24.5558 408.358 23.3292 408.358 21.904C408.358 20.432 408.65 19.1003 409.234 17.9087C409.818 16.6938 410.625 15.6657 411.653 14.8246C412.704 13.9601 413.942 13.3059 415.367 12.862C416.793 12.3947 418.358 12.1611 420.064 12.1611C421.045 12.1611 422.061 12.2429 423.113 12.4064C424.164 12.5466 425.157 12.7919 426.092 13.1424C427.05 13.4695 427.902 13.9134 428.65 14.4742C429.398 15.0115 429.97 15.6657 430.367 16.4368C430.718 17.1844 430.835 17.9321 430.718 18.6797C430.624 19.404 430.367 19.9998 429.947 20.4671C429.48 21.0045 428.907 21.3666 428.23 21.5535C427.552 21.7404 426.874 21.682 426.197 21.3783C425.706 21.0746 425.251 20.8059 424.83 20.5722C424.433 20.3386 424.012 20.14 423.568 19.9764C423.148 19.8129 422.692 19.6961 422.202 19.626C421.734 19.5325 421.197 19.4858 420.589 19.4858C419.071 19.4858 417.914 19.6961 417.12 20.1166C416.349 20.5138 415.963 21.133 415.963 21.9741C415.963 22.418 416.103 22.7918 416.384 23.0956C416.688 23.3759 417.085 23.6329 417.575 23.8666C418.089 24.1002 418.697 24.3222 419.398 24.5325C420.122 24.7427 420.905 24.9764 421.746 25.2334C423.124 25.654 424.433 26.1446 425.671 26.7053C426.933 27.2661 428.031 27.9553 428.966 28.7731C429.923 29.5675 430.683 30.5137 431.243 31.6118C431.804 32.71 432.085 34.0067 432.085 35.502C432.085 36.9038 431.781 38.2239 431.173 39.4622C430.589 40.6772 429.772 41.7402 428.72 42.6514C427.669 43.5626 426.407 44.2869 424.935 44.8243C423.487 45.3383 421.91 45.5953 420.204 45.5953C419.129 45.5953 417.984 45.4902 416.769 45.2799C415.578 45.093 414.41 44.7659 413.265 44.2986C412.143 43.808 411.104 43.1888 410.146 42.4412C409.188 41.6701 408.417 40.7239 407.833 39.6024C407.248 38.4809 407.062 37.4879 407.272 36.6235C407.505 35.7356 407.973 35.0697 408.674 34.6258C409.375 34.1819 410.227 34.0184 411.232 34.1352C412.237 34.252 413.218 34.7543 414.176 35.6422C414.456 35.9926 414.807 36.3314 415.227 36.6585C415.648 36.9622 416.115 37.2426 416.629 37.4996C417.143 37.7333 417.692 37.9202 418.276 38.0604C418.884 38.2006 419.515 38.2706 420.169 38.2706C420.753 38.2706 421.302 38.2122 421.816 38.0954C422.33 37.9552 422.786 37.7683 423.183 37.5347C423.58 37.301 423.895 37.0207 424.129 36.6936C424.363 36.3665 424.48 35.9926 424.48 35.5721C424.48 35.0814 424.223 34.6375 423.709 34.2403C423.195 33.8198 422.564 33.4342 421.816 33.0838C421.092 32.7333 420.321 32.4296 419.503 32.1726C418.709 31.8922 418.031 31.6586 417.47 31.4716Z" fill="#008838"/>
<path d="M481.672 0.315415C482.186 0.315415 482.677 0.420555 483.144 0.630835C483.611 0.817749 484.008 1.08644 484.335 1.4369C484.663 1.764 484.92 2.16119 485.107 2.62848C485.317 3.09576 485.422 3.5981 485.422 4.13547C485.422 4.67285 485.317 5.17518 485.107 5.64247C484.92 6.08639 484.663 6.48358 484.335 6.83404C484.008 7.16114 483.611 7.42983 483.144 7.64011C482.677 7.82702 482.186 7.92048 481.672 7.92048H461.976V20.432H476.941C477.455 20.432 477.945 20.5372 478.413 20.7475C478.88 20.9577 479.277 21.2498 479.604 21.6236C479.955 21.9741 480.223 22.3946 480.41 22.8853C480.621 23.3526 480.726 23.8432 480.726 24.3572C480.726 24.8946 480.621 25.3853 480.41 25.8292C480.223 26.2731 479.955 26.6586 479.604 26.9857C479.277 27.3128 478.88 27.5698 478.413 27.7567C477.945 27.9436 477.455 28.0371 476.941 28.0371H461.976V41.4248C461.976 41.9622 461.871 42.4645 461.66 42.9318C461.474 43.3757 461.205 43.7729 460.854 44.1234C460.504 44.4505 460.095 44.7075 459.628 44.8944C459.16 45.0813 458.67 45.1748 458.156 45.1748C457.618 45.1748 457.116 45.0813 456.649 44.8944C456.205 44.6841 455.808 44.4154 455.457 44.0883C455.13 43.7612 454.861 43.3757 454.651 42.9318C454.464 42.4645 454.371 41.9622 454.371 41.4248V3.96024C454.371 3.56305 454.441 3.15417 454.581 2.73362C454.721 2.2897 454.932 1.89251 455.212 1.54204C455.516 1.19158 455.901 0.899521 456.368 0.665879C456.859 0.432237 457.455 0.315415 458.156 0.315415H481.672Z" fill="#008838"/>
<path d="M492.257 32.2777C492.56 33.1656 492.981 33.9599 493.518 34.6609C494.079 35.3618 494.721 35.9693 495.446 36.4833C496.17 36.9739 496.964 37.3594 497.829 37.6398C498.693 37.8968 499.605 38.0253 500.562 38.0253C502.969 38.0253 504.862 37.3945 506.24 36.1328C506.941 35.6422 507.607 35.3501 508.238 35.2567C508.868 35.1632 509.464 35.2099 510.025 35.3968C510.422 35.537 510.773 35.759 511.076 36.0627C511.404 36.3431 511.672 36.6585 511.882 37.009C512.116 37.3828 512.28 37.7917 512.373 38.2356C512.49 38.6562 512.513 39.0884 512.443 39.5323C512.396 39.9762 512.256 40.4202 512.023 40.8641C511.812 41.2846 511.485 41.6701 511.041 42.0206C510.527 42.4879 509.943 42.9435 509.289 43.3874C508.635 43.808 507.875 44.1818 507.011 44.5089C506.17 44.836 505.212 45.093 504.137 45.2799C503.086 45.4902 501.894 45.5953 500.562 45.5953C498.249 45.5953 496.077 45.1631 494.044 44.2986C492.011 43.4108 490.236 42.2075 488.717 40.6888C487.198 39.1702 485.995 37.4062 485.107 35.3968C484.219 33.3642 483.775 31.1913 483.775 28.8782C483.775 26.5652 484.219 24.3923 485.107 22.3596C485.995 20.3269 487.198 18.5629 488.717 17.0676C490.236 15.5489 492.011 14.3573 494.044 13.4929C496.077 12.605 498.249 12.1611 500.562 12.1611C502.852 12.1611 505.002 12.5933 507.011 13.4578C509.044 14.3223 510.819 15.5022 512.338 16.9975C513.88 18.4694 515.095 20.2101 515.983 22.2194C516.871 24.2287 517.338 26.3782 517.385 28.6679C517.385 29.7427 517.034 30.6189 516.333 31.2964C515.656 31.9506 514.756 32.2777 513.635 32.2777H492.257ZM509.569 25.9694C509.312 25.0114 508.904 24.147 508.343 23.3759C507.782 22.6049 507.116 21.9507 506.345 21.4133C505.574 20.876 504.71 20.4671 503.752 20.1867C502.817 19.9063 501.812 19.7662 500.738 19.7662C499.663 19.7662 498.647 19.918 497.689 20.2218C496.754 20.5255 495.901 20.9461 495.13 21.4834C494.383 22.0208 493.74 22.675 493.203 23.446C492.665 24.1937 492.268 25.0348 492.011 25.9694H509.569Z" fill="#008838"/>
<path d="M530.07 31.4716C529.066 31.0511 528.026 30.5955 526.951 30.1048C525.877 29.5908 524.895 28.9717 524.007 28.2474C523.12 27.4997 522.384 26.6119 521.799 25.5839C521.239 24.5558 520.958 23.3292 520.958 21.904C520.958 20.432 521.25 19.1003 521.835 17.9087C522.419 16.6938 523.225 15.6657 524.253 14.8246C525.304 13.9601 526.542 13.3059 527.968 12.862C529.393 12.3947 530.958 12.1611 532.664 12.1611C533.645 12.1611 534.661 12.2429 535.713 12.4064C536.764 12.5466 537.757 12.7919 538.692 13.1424C539.65 13.4695 540.503 13.9134 541.25 14.4742C541.998 15.0115 542.57 15.6657 542.968 16.4368C543.318 17.1844 543.435 17.9321 543.318 18.6797C543.225 19.404 542.967 19.9998 542.547 20.4671C542.08 21.0045 541.507 21.3666 540.83 21.5535C540.152 21.7404 539.475 21.682 538.797 21.3783C538.306 21.0746 537.851 20.8059 537.43 20.5722C537.033 20.3386 536.612 20.14 536.169 19.9764C535.748 19.8129 535.292 19.6961 534.802 19.626C534.334 19.5325 533.797 19.4858 533.19 19.4858C531.671 19.4858 530.514 19.6961 529.72 20.1166C528.949 20.5138 528.563 21.133 528.563 21.9741C528.563 22.418 528.704 22.7918 528.984 23.0956C529.288 23.3759 529.685 23.6329 530.176 23.8666C530.69 24.1002 531.297 24.3222 531.998 24.5325C532.722 24.7427 533.505 24.9764 534.346 25.2334C535.725 25.654 537.033 26.1446 538.271 26.7053C539.533 27.2661 540.631 27.9553 541.566 28.7731C542.524 29.5675 543.283 30.5137 543.844 31.6118C544.404 32.71 544.685 34.0067 544.685 35.502C544.685 36.9038 544.381 38.2239 543.774 39.4622C543.189 40.6772 542.372 41.7402 541.32 42.6514C540.269 43.5626 539.007 44.2869 537.535 44.8243C536.087 45.3383 534.51 45.5953 532.804 45.5953C531.729 45.5953 530.584 45.4902 529.37 45.2799C528.178 45.093 527.01 44.7659 525.865 44.2986C524.743 43.808 523.704 43.1888 522.746 42.4412C521.788 41.6701 521.017 40.7239 520.433 39.6024C519.849 38.4809 519.662 37.4879 519.872 36.6235C520.106 35.7356 520.573 35.0697 521.274 34.6258C521.975 34.1819 522.828 34.0184 523.832 34.1352C524.837 34.252 525.818 34.7543 526.776 35.6422C527.056 35.9926 527.407 36.3314 527.827 36.6585C528.248 36.9622 528.715 37.2426 529.229 37.4996C529.743 37.7333 530.292 37.9202 530.877 38.0604C531.484 38.2006 532.115 38.2706 532.769 38.2706C533.353 38.2706 533.902 38.2122 534.416 38.0954C534.93 37.9552 535.386 37.7683 535.783 37.5347C536.18 37.301 536.496 37.0207 536.729 36.6936C536.963 36.3665 537.08 35.9926 537.08 35.5721C537.08 35.0814 536.823 34.6375 536.309 34.2403C535.795 33.8198 535.164 33.4342 534.416 33.0838C533.692 32.7333 532.921 32.4296 532.103 32.1726C531.309 31.8922 530.631 31.6586 530.07 31.4716Z" fill="#008838"/>
<path d="M557.956 12.5816H570.153C570.667 12.5816 571.157 12.6868 571.625 12.8971C572.092 13.1073 572.501 13.3877 572.851 13.7382C573.202 14.0886 573.482 14.4975 573.692 14.9648C573.903 15.4321 574.008 15.9227 574.008 16.4368C574.008 16.9508 573.903 17.4414 573.692 17.9087C573.505 18.3526 573.237 18.7498 572.886 19.1003C572.536 19.4274 572.127 19.6961 571.66 19.9063C571.192 20.0933 570.69 20.1867 570.153 20.1867H557.956V29.0534C557.956 30.2918 558.19 31.46 558.657 32.5581C559.148 33.6328 559.802 34.5791 560.62 35.3968C561.438 36.1912 562.396 36.8221 563.494 37.2893C564.615 37.7566 565.807 37.9903 567.068 37.9903C568.19 37.9903 569.23 37.8384 570.188 37.5347C571.146 37.2076 572.033 36.6819 572.851 35.9576C573.108 35.7239 573.354 35.5253 573.587 35.3618C573.844 35.1749 574.136 35.023 574.463 34.9062C575.047 34.6959 575.655 34.6375 576.286 34.731C576.917 34.8011 577.512 35.0931 578.073 35.6071C578.494 36.0043 578.786 36.4599 578.949 36.9739C579.136 37.4646 579.206 37.9903 579.159 38.551C579.136 39.0884 579.008 39.6141 578.774 40.1281C578.54 40.6421 578.213 41.0977 577.793 41.4949C576.391 42.85 574.779 43.8781 572.956 44.579C571.134 45.2566 569.171 45.5953 567.068 45.5953C564.755 45.5953 562.583 45.1631 560.55 44.2986C558.541 43.4341 556.777 42.2543 555.258 40.7589C553.739 39.2636 552.536 37.5113 551.648 35.502C550.784 33.4693 550.351 31.2964 550.351 28.9834V6.48358C550.351 5.9462 550.445 5.44387 550.632 4.97658C550.842 4.5093 551.122 4.10043 551.473 3.74996C551.823 3.3995 552.232 3.13081 552.699 2.9439C553.167 2.73362 553.669 2.62848 554.206 2.62848C554.721 2.62848 555.199 2.73362 555.643 2.9439C556.111 3.13081 556.508 3.3995 556.835 3.74996C557.185 4.10043 557.454 4.5093 557.641 4.97658C557.851 5.44387 557.956 5.9462 557.956 6.48358V12.5816Z" fill="#008838"/>
<path d="M583.763 4.8364C583.763 4.25229 583.868 3.70323 584.079 3.18922C584.312 2.67521 584.616 2.23129 584.99 1.85746C585.364 1.48363 585.807 1.19158 586.322 0.981299C586.836 0.747656 587.373 0.630835 587.934 0.630835C588.494 0.630835 589.032 0.747656 589.546 0.981299C590.06 1.19158 590.504 1.48363 590.878 1.85746C591.275 2.23129 591.578 2.67521 591.789 3.18922C592.022 3.70323 592.139 4.25229 592.139 4.8364C592.139 5.39714 592.022 5.93452 591.789 6.44853C591.578 6.93918 591.275 7.37142 590.878 7.74525C590.504 8.11908 590.06 8.42281 589.546 8.65646C589.032 8.86673 588.494 8.97187 587.934 8.97187C587.373 8.97187 586.836 8.86673 586.322 8.65646C585.807 8.42281 585.364 8.11908 584.99 7.74525C584.616 7.37142 584.312 6.93918 584.079 6.44853C583.868 5.93452 583.763 5.39714 583.763 4.8364ZM591.754 41.3898C591.754 41.9272 591.649 42.4295 591.438 42.8968C591.251 43.3407 590.983 43.7379 590.632 44.0883C590.305 44.4154 589.908 44.6841 589.441 44.8944C588.973 45.0813 588.483 45.1748 587.969 45.1748C587.455 45.1748 586.964 45.0813 586.497 44.8944C586.029 44.6841 585.621 44.4154 585.27 44.0883C584.92 43.7379 584.639 43.3407 584.429 42.8968C584.242 42.4295 584.149 41.9272 584.149 41.3898V16.3667C584.149 15.8526 584.254 15.3737 584.464 14.9298C584.674 14.4625 584.955 14.0536 585.305 13.7031C585.656 13.3527 586.065 13.084 586.532 12.8971C586.999 12.6868 587.501 12.5816 588.039 12.5816C588.553 12.5816 589.032 12.6868 589.476 12.8971C589.943 13.084 590.34 13.3527 590.667 13.7031C591.018 14.0536 591.286 14.4625 591.473 14.9298C591.66 15.3737 591.754 15.8526 591.754 16.3667V41.3898Z" fill="#008838"/>
<path d="M611.491 33.0137L619.727 14.8947C619.937 14.4041 620.229 13.9835 620.603 13.633C620.977 13.2826 621.386 13.0256 621.83 12.862C622.273 12.6751 622.741 12.5933 623.231 12.6167C623.745 12.6167 624.248 12.7218 624.738 12.9321C625.229 13.1424 625.638 13.4344 625.965 13.8083C626.315 14.1821 626.572 14.6027 626.736 15.0699C626.923 15.5139 627.016 15.9928 627.016 16.5068C627.016 17.0209 626.9 17.5232 626.666 18.0138L614.995 42.8617C614.622 43.6327 614.108 44.2052 613.453 44.579C612.823 44.9295 612.227 45.1281 611.666 45.1748C610.778 45.1748 610.019 44.9645 609.388 44.5439C608.781 44.1 608.313 43.5393 607.986 42.8617L596.281 17.9788C596.047 17.4881 595.919 16.9858 595.895 16.4718C595.895 15.9578 595.977 15.4788 596.141 15.0349C596.327 14.5676 596.596 14.1471 596.947 13.7732C597.297 13.3994 597.706 13.1073 598.173 12.8971C598.664 12.6868 599.154 12.5816 599.645 12.5816C600.136 12.5583 600.603 12.6401 601.047 12.827C601.514 12.9905 601.935 13.2475 602.309 13.598C602.683 13.9485 602.975 14.369 603.185 14.8597L611.491 33.0137Z" fill="#008838"/>
<path d="M628.615 28.8782C628.615 26.5652 629.059 24.404 629.947 22.3946C630.835 20.3619 632.038 18.5863 633.557 17.0676C635.076 15.5489 636.84 14.3573 638.849 13.4929C640.882 12.605 643.043 12.1611 645.333 12.1611C647.646 12.1611 649.807 12.605 651.816 13.4929C653.849 14.3573 655.613 15.5489 657.108 17.0676C658.627 18.5863 659.818 20.3619 660.683 22.3946C661.571 24.404 662.015 26.5652 662.015 28.8782V41.2846C662.015 41.822 661.909 42.3243 661.699 42.7916C661.512 43.2589 661.244 43.6678 660.893 44.0183C660.543 44.3687 660.122 44.6491 659.631 44.8594C659.164 45.0696 658.662 45.1748 658.124 45.1748C657.213 45.1748 656.442 44.9061 655.811 44.3687C655.181 43.8313 654.76 43.1538 654.55 42.336C653.218 43.3407 651.769 44.1351 650.204 44.7192C648.662 45.3033 647.038 45.5953 645.333 45.5953C643.043 45.5953 640.882 45.1631 638.849 44.2986C636.84 43.4108 635.076 42.2075 633.557 40.6888C632.038 39.1702 630.835 37.3945 629.947 35.3618C629.059 33.3291 628.615 31.1679 628.615 28.8782ZM636.22 28.8782C636.22 30.1165 636.454 31.2964 636.921 32.4179C637.412 33.516 638.066 34.4856 638.884 35.3268C639.725 36.1445 640.695 36.7987 641.793 37.2893C642.891 37.7566 644.071 37.9903 645.333 37.9903C646.594 37.9903 647.774 37.7566 648.872 37.2893C649.994 36.7987 650.963 36.1445 651.781 35.3268C652.599 34.4856 653.241 33.516 653.709 32.4179C654.176 31.2964 654.41 30.1165 654.41 28.8782C654.41 27.6165 654.176 26.4367 653.709 25.3385C653.241 24.217 652.599 23.2474 651.781 22.4297C650.963 21.6119 649.994 20.9694 648.872 20.5021C647.774 20.0115 646.594 19.7662 645.333 19.7662C644.094 19.7662 642.914 20.0115 641.793 20.5021C640.695 20.9694 639.725 21.6119 638.884 22.4297C638.066 23.2474 637.412 24.217 636.921 25.3385C636.454 26.4367 636.22 27.6165 636.22 28.8782Z" fill="#008838"/>
<path d="M680.615 37.5697C681.153 37.5697 681.643 37.6749 682.087 37.8851C682.555 38.0954 682.952 38.3875 683.279 38.7613C683.629 39.1118 683.898 39.5206 684.085 39.9879C684.272 40.4552 684.365 40.9459 684.365 41.4599C684.365 42.5346 684.015 43.4225 683.314 44.1234C682.613 44.8243 681.714 45.1748 680.615 45.1748C679.027 45.1748 677.531 44.9061 676.13 44.3687C674.751 43.8313 673.536 43.0837 672.485 42.1257C671.433 41.1678 670.592 40.0113 669.961 38.6562C669.354 37.301 669.038 35.8057 669.015 34.1702V3.82005C669.015 3.28268 669.109 2.78035 669.295 2.31306C669.482 1.84578 669.739 1.44858 670.066 1.12148C670.417 0.771019 670.814 0.50233 671.258 0.315415C671.702 0.105138 672.181 0 672.695 0C673.209 0 673.7 0.105138 674.167 0.315415C674.658 0.50233 675.078 0.771019 675.429 1.12148C675.802 1.44858 676.094 1.84578 676.305 2.31306C676.515 2.78035 676.62 3.28268 676.62 3.82005V33.9249C676.62 35.1398 676.994 36.051 677.742 36.6585C678.489 37.266 679.447 37.5697 680.615 37.5697Z" fill="#008838"/>
</svg>
