<svg width="653" height="58" viewBox="0 0 653 58" fill="none" xmlns="http://www.w3.org/2000/svg">
<path d="M21.8689 7.92048V41.4248C21.8689 41.9622 21.7638 42.4645 21.5535 42.9318C21.3666 43.3757 21.0979 43.7612 20.7475 44.0883C20.397 44.4154 19.9881 44.6841 19.5208 44.8944C19.0535 45.0813 18.5512 45.1748 18.0138 45.1748C17.4998 45.1748 17.0092 45.0813 16.5419 44.8944C16.098 44.6841 15.7008 44.4154 15.3503 44.0883C15.0232 43.7612 14.7545 43.3757 14.5442 42.9318C14.3573 42.4645 14.2639 41.9622 14.2639 41.4248V7.92048H3.78501C3.24763 7.92048 2.7453 7.82702 2.27801 7.64011C1.83409 7.42983 1.4369 7.14946 1.08644 6.799C0.759338 6.44853 0.490649 6.05134 0.280371 5.60742C0.093457 5.14013 0 4.6378 0 4.10043C0 3.58641 0.093457 3.09576 0.280371 2.62848C0.490649 2.16119 0.759338 1.764 1.08644 1.4369C1.4369 1.08644 1.83409 0.817749 2.27801 0.630835C2.7453 0.420555 3.24763 0.315415 3.78501 0.315415H32.3478C32.8618 0.315415 33.3525 0.420555 33.8198 0.630835C34.287 0.817749 34.6842 1.08644 35.0113 1.4369C35.3618 1.78737 35.6305 2.19624 35.8174 2.66352C36.0277 3.13081 36.1328 3.62146 36.1328 4.13547C36.1328 4.67285 36.0277 5.17518 35.8174 5.64247C35.6305 6.08639 35.3618 6.48358 35.0113 6.83404C34.6842 7.16114 34.287 7.42983 33.8198 7.64011C33.3525 7.82702 32.8618 7.92048 32.3478 7.92048H21.8689Z" fill="#008838"/>
<path d="M29.4866 28.8782C29.4866 26.5652 29.9305 24.404 30.8184 22.3946C31.7062 20.3619 32.9095 18.5863 34.4281 17.0676C35.9468 15.5489 37.7108 14.3573 39.7201 13.4929C41.7528 12.605 43.914 12.1611 46.2037 12.1611C48.5168 12.1611 50.678 12.605 52.6873 13.4929C54.72 14.3573 56.484 15.5489 57.9793 17.0676C59.498 18.5863 60.6896 20.3619 61.554 22.3946C62.4419 24.404 62.8858 26.5652 62.8858 28.8782V41.2846C62.8858 41.822 62.7807 42.3243 62.5704 42.7916C62.3835 43.2589 62.1148 43.6678 61.7643 44.0183C61.4139 44.3687 60.9933 44.6491 60.5026 44.8594C60.0354 45.0696 59.533 45.1748 58.9957 45.1748C58.0844 45.1748 57.3134 44.9061 56.6826 44.3687C56.0518 43.8313 55.6312 43.1538 55.4209 42.336C54.0892 43.3407 52.6406 44.1351 51.0752 44.7192C49.5331 45.3033 47.9093 45.5953 46.2037 45.5953C43.914 45.5953 41.7528 45.1631 39.7201 44.2986C37.7108 43.4108 35.9468 42.2075 34.4281 40.6888C32.9095 39.1702 31.7062 37.3945 30.8184 35.3618C29.9305 33.3291 29.4866 31.1679 29.4866 28.8782ZM37.0917 28.8782C37.0917 30.1165 37.3253 31.2964 37.7926 32.4179C38.2832 33.516 38.9374 34.4856 39.7552 35.3268C40.5963 36.1445 41.5659 36.7987 42.664 37.2893C43.7622 37.7566 44.9421 37.9903 46.2037 37.9903C47.4654 37.9903 48.6453 37.7566 49.7434 37.2893C50.8649 36.7987 51.8345 36.1445 52.6523 35.3268C53.47 34.4856 54.1125 33.516 54.5798 32.4179C55.0471 31.2964 55.2807 30.1165 55.2807 28.8782C55.2807 27.6165 55.0471 26.4367 54.5798 25.3385C54.1125 24.217 53.47 23.2474 52.6523 22.4297C51.8345 21.6119 50.8649 20.9694 49.7434 20.5021C48.6453 20.0115 47.4654 19.7662 46.2037 19.7662C44.9654 19.7662 43.7855 20.0115 42.664 20.5021C41.5659 20.9694 40.5963 21.6119 39.7552 22.4297C38.9374 23.2474 38.2832 24.217 37.7926 25.3385C37.3253 26.4367 37.0917 27.6165 37.0917 28.8782Z" fill="#008838"/>
<path d="M77.5615 31.4716C76.5568 31.0511 75.5171 30.5955 74.4423 30.1048C73.3676 29.5908 72.3863 28.9717 71.4985 28.2474C70.6106 27.4997 69.8746 26.6119 69.2905 25.5839C68.7298 24.5558 68.4494 23.3292 68.4494 21.904C68.4494 20.432 68.7415 19.1003 69.3256 17.9087C69.9097 16.6938 70.7157 15.6657 71.7438 14.8246C72.7952 13.9601 74.0335 13.3059 75.4587 12.862C76.8839 12.3947 78.4493 12.1611 80.1549 12.1611C81.1362 12.1611 82.1525 12.2429 83.2039 12.4064C84.2553 12.5466 85.2483 12.7919 86.1829 13.1424C87.1408 13.4695 87.9936 13.9134 88.7413 14.4742C89.4889 15.0115 90.0613 15.6657 90.4585 16.4368C90.809 17.1844 90.9258 17.9321 90.809 18.6797C90.7155 19.404 90.4585 19.9998 90.038 20.4671C89.5707 21.0045 88.9983 21.3666 88.3207 21.5535C87.6431 21.7404 86.9656 21.682 86.288 21.3783C85.7974 21.0746 85.3418 20.8059 84.9212 20.5722C84.524 20.3386 84.1035 20.14 83.6595 19.9764C83.239 19.8129 82.7834 19.6961 82.2927 19.626C81.8254 19.5325 81.2881 19.4858 80.6806 19.4858C79.1619 19.4858 78.0054 19.6961 77.211 20.1166C76.44 20.5138 76.0545 21.133 76.0545 21.9741C76.0545 22.418 76.1947 22.7918 76.475 23.0956C76.7788 23.3759 77.176 23.6329 77.6666 23.8666C78.1806 24.1002 78.7881 24.3222 79.489 24.5325C80.2133 24.7427 80.996 24.9764 81.8371 25.2334C83.2156 25.654 84.524 26.1446 85.7623 26.7053C87.024 27.2661 88.1221 27.9553 89.0567 28.7731C90.0146 29.5675 90.774 30.5137 91.3347 31.6118C91.8954 32.71 92.1758 34.0067 92.1758 35.502C92.1758 36.9038 91.8721 38.2239 91.2646 39.4622C90.6805 40.6772 89.8628 41.7402 88.8114 42.6514C87.76 43.5626 86.4983 44.2869 85.0264 44.8243C83.5778 45.3383 82.0007 45.5953 80.2951 45.5953C79.2203 45.5953 78.0755 45.4902 76.8605 45.2799C75.669 45.093 74.5008 44.7659 73.3559 44.2986C72.2344 43.808 71.1947 43.1888 70.2368 42.4412C69.2788 41.6701 68.5078 40.7239 67.9237 39.6024C67.3396 38.4809 67.1527 37.4879 67.363 36.6235C67.5966 35.7356 68.0639 35.0697 68.7648 34.6258C69.4658 34.1819 70.3186 34.0184 71.3232 34.1352C72.3279 34.252 73.3092 34.7543 74.2671 35.6422C74.5475 35.9926 74.8979 36.3314 75.3185 36.6585C75.7391 36.9622 76.2063 37.2426 76.7204 37.4996C77.2344 37.7333 77.7834 37.9202 78.3675 38.0604C78.975 38.2006 79.6059 38.2706 80.26 38.2706C80.8442 38.2706 81.3932 38.2122 81.9072 38.0954C82.4212 37.9552 82.8768 37.7683 83.274 37.5347C83.6712 37.301 83.9866 37.0207 84.2203 36.6936C84.4539 36.3665 84.5707 35.9926 84.5707 35.5721C84.5707 35.0814 84.3137 34.6375 83.7997 34.2403C83.2857 33.8198 82.6549 33.4342 81.9072 33.0838C81.1829 32.7333 80.4119 32.4296 79.5942 32.1726C78.7998 31.8922 78.1222 31.6586 77.5615 31.4716Z" fill="#008838"/>
<path d="M105.447 12.5816H117.644C118.158 12.5816 118.648 12.6868 119.116 12.8971C119.583 13.1073 119.992 13.3877 120.342 13.7382C120.693 14.0886 120.973 14.4975 121.183 14.9648C121.394 15.4321 121.499 15.9227 121.499 16.4368C121.499 16.9508 121.394 17.4414 121.183 17.9087C120.996 18.3526 120.728 18.7498 120.377 19.1003C120.027 19.4274 119.618 19.6961 119.151 19.9063C118.683 20.0933 118.181 20.1867 117.644 20.1867H105.447V29.0534C105.447 30.2918 105.681 31.46 106.148 32.5581C106.639 33.6328 107.293 34.5791 108.111 35.3968C108.929 36.1912 109.887 36.8221 110.985 37.2893C112.106 37.7566 113.298 37.9903 114.56 37.9903C115.681 37.9903 116.721 37.8384 117.679 37.5347C118.637 37.2076 119.524 36.6819 120.342 35.9576C120.599 35.7239 120.844 35.5253 121.078 35.3618C121.335 35.1749 121.627 35.023 121.954 34.9062C122.538 34.6959 123.146 34.6375 123.777 34.731C124.408 34.8011 125.003 35.0931 125.564 35.6071C125.985 36.0043 126.277 36.4599 126.44 36.9739C126.627 37.4646 126.697 37.9903 126.65 38.551C126.627 39.0884 126.499 39.6141 126.265 40.1281C126.031 40.6421 125.704 41.0977 125.284 41.4949C123.882 42.85 122.27 43.8781 120.447 44.579C118.625 45.2566 116.662 45.5953 114.56 45.5953C112.246 45.5953 110.074 45.1631 108.041 44.2986C106.032 43.4341 104.268 42.2543 102.749 40.7589C101.23 39.2636 100.027 37.5113 99.1391 35.502C98.2746 33.4693 97.8424 31.2964 97.8424 28.9834V6.48358C97.8424 5.9462 97.9358 5.44387 98.1227 4.97658C98.333 4.5093 98.6134 4.10043 98.9639 3.74996C99.3143 3.3995 99.7232 3.13081 100.19 2.9439C100.658 2.73362 101.16 2.62848 101.697 2.62848C102.211 2.62848 102.69 2.73362 103.134 2.9439C103.602 3.13081 103.999 3.3995 104.326 3.74996C104.676 4.10043 104.945 4.5093 105.132 4.97658C105.342 5.44387 105.447 5.9462 105.447 6.48358V12.5816Z" fill="#008838"/>
<path d="M137.494 32.2777C137.798 33.1656 138.218 33.9599 138.756 34.6609C139.316 35.3618 139.959 35.9693 140.683 36.4833C141.408 36.9739 142.202 37.3594 143.066 37.6398C143.931 37.8968 144.842 38.0253 145.8 38.0253C148.207 38.0253 150.099 37.3945 151.478 36.1328C152.178 35.6422 152.844 35.3501 153.475 35.2567C154.106 35.1632 154.702 35.2099 155.263 35.3968C155.66 35.537 156.01 35.759 156.314 36.0627C156.641 36.3431 156.91 36.6585 157.12 37.009C157.354 37.3828 157.517 37.7917 157.611 38.2356C157.728 38.6562 157.751 39.0884 157.681 39.5323C157.634 39.9762 157.494 40.4202 157.26 40.8641C157.05 41.2846 156.723 41.6701 156.279 42.0206C155.765 42.4879 155.181 42.9435 154.527 43.3874C153.872 43.808 153.113 44.1818 152.249 44.5089C151.407 44.836 150.45 45.093 149.375 45.2799C148.323 45.4902 147.132 45.5953 145.8 45.5953C143.487 45.5953 141.314 45.1631 139.281 44.2986C137.249 43.4108 135.473 42.2075 133.954 40.6888C132.436 39.1702 131.232 37.4062 130.345 35.3968C129.457 33.3642 129.013 31.1913 129.013 28.8782C129.013 26.5652 129.457 24.3923 130.345 22.3596C131.232 20.3269 132.436 18.5629 133.954 17.0676C135.473 15.5489 137.249 14.3573 139.281 13.4929C141.314 12.605 143.487 12.1611 145.8 12.1611C148.09 12.1611 150.239 12.5933 152.249 13.4578C154.281 14.3223 156.057 15.5022 157.576 16.9975C159.118 18.4694 160.333 20.2101 161.22 22.2194C162.108 24.2287 162.576 26.3782 162.622 28.6679C162.622 29.7427 162.272 30.6189 161.571 31.2964C160.893 31.9506 159.994 32.2777 158.872 32.2777H137.494ZM154.807 25.9694C154.55 25.0114 154.141 24.147 153.58 23.3759C153.02 22.6049 152.354 21.9507 151.583 21.4133C150.812 20.876 149.947 20.4671 148.989 20.1867C148.055 19.9063 147.05 19.7662 145.975 19.7662C144.901 19.7662 143.884 19.918 142.926 20.2218C141.992 20.5255 141.139 20.9461 140.368 21.4834C139.62 22.0208 138.978 22.675 138.44 23.446C137.903 24.1937 137.506 25.0348 137.249 25.9694H154.807Z" fill="#008838"/>
<path d="M204.755 0C206.857 0 208.878 0.28037 210.818 0.841111C212.78 1.37849 214.603 2.13783 216.285 3.11913C217.967 4.10042 219.509 5.292 220.911 6.69386C222.313 8.07235 223.504 9.61439 224.486 11.32C225.467 13.0022 226.226 14.8129 226.764 16.7522C227.325 18.6914 227.605 20.7124 227.605 22.8152C227.605 25.9694 226.997 28.9249 225.782 31.6819C224.591 34.4389 222.955 36.8571 220.876 38.9365C218.82 40.9926 216.402 42.6164 213.621 43.808C210.864 44.9996 207.909 45.5953 204.755 45.5953C201.6 45.5953 198.633 44.9996 195.853 43.808C193.096 42.6164 190.689 40.9926 188.633 38.9365C186.601 36.8571 184.988 34.4389 183.797 31.6819C182.629 28.9249 182.045 25.9694 182.045 22.8152C182.045 20.7124 182.313 18.6914 182.851 16.7522C183.388 14.8129 184.147 13.0022 185.129 11.32C186.11 9.61439 187.29 8.07235 188.668 6.69386C190.047 5.292 191.577 4.10042 193.259 3.11913C194.942 2.13783 196.752 1.37849 198.692 0.841111C200.631 0.28037 202.652 0 204.755 0ZM204.79 7.60506C202.687 7.60506 200.713 8.00226 198.867 8.79664C197.021 9.59102 195.409 10.6775 194.03 12.056C192.675 13.4344 191.601 15.0466 190.806 16.8924C190.035 18.7381 189.65 20.7124 189.65 22.8152C189.65 24.9413 190.035 26.9273 190.806 28.7731C191.601 30.6189 192.675 32.231 194.03 33.6095C195.409 34.9646 197.021 36.0394 198.867 36.8337C200.713 37.6048 202.687 37.9903 204.79 37.9903C206.892 37.9903 208.867 37.6048 210.713 36.8337C212.582 36.0394 214.194 34.9646 215.549 33.6095C216.927 32.231 218.014 30.6189 218.808 28.7731C219.603 26.9273 220 24.9413 220 22.8152C220 20.7124 219.603 18.7381 218.808 16.8924C218.014 15.0466 216.927 13.4344 215.549 12.056C214.194 10.6775 212.582 9.59102 210.713 8.79664C208.867 8.00226 206.892 7.60506 204.79 7.60506Z" fill="#008838"/>
<path d="M235.793 15.9811V11.3901C235.793 9.84803 236.074 8.39945 236.634 7.04432C237.218 5.66583 238.013 4.47425 239.017 3.46959C240.022 2.44156 241.19 1.62381 242.522 1.01634C243.877 0.408874 245.326 0.0817745 246.868 0.0350438C246.915 0.0350438 246.95 0.0350438 246.973 0.0350438C247.02 0.0116813 247.066 0 247.113 0C248.211 0 249.122 0.373827 249.847 1.12148C250.594 1.84577 250.968 2.75698 250.968 3.8551C250.968 4.39248 250.863 4.89481 250.653 5.3621C250.466 5.80602 250.197 6.19153 249.847 6.51863C249.496 6.84572 249.087 7.11441 248.62 7.32469C248.153 7.51161 247.65 7.60506 247.113 7.60506H246.938C246.424 7.62843 245.945 7.75693 245.501 7.99057C245.08 8.20085 244.707 8.48122 244.38 8.83169C244.076 9.18215 243.83 9.59102 243.644 10.0583C243.48 10.5022 243.398 10.9812 243.398 11.4952V15.9811H245.957C246.494 15.9811 246.996 16.0863 247.464 16.2966C247.931 16.4835 248.328 16.7522 248.655 17.1026C249.006 17.4297 249.274 17.8269 249.461 18.2942C249.672 18.7615 249.777 19.2521 249.777 19.7662C249.777 20.3035 249.672 20.8059 249.461 21.2732C249.274 21.7404 249.006 22.1493 248.655 22.4998C248.328 22.8269 247.931 23.0956 247.464 23.3058C246.996 23.4928 246.494 23.5862 245.957 23.5862H243.398V41.3197C243.398 41.8571 243.293 42.3594 243.083 42.8267C242.896 43.294 242.627 43.7028 242.277 44.0533C241.926 44.4038 241.517 44.6841 241.05 44.8944C240.606 45.0813 240.127 45.1748 239.613 45.1748C239.076 45.1748 238.573 45.0813 238.106 44.8944C237.662 44.6841 237.265 44.4038 236.915 44.0533C236.564 43.7028 236.284 43.294 236.074 42.8267C235.887 42.3594 235.793 41.8571 235.793 41.3197V23.5862H234.006C233.468 23.5862 232.966 23.4928 232.499 23.3058C232.055 23.0956 231.658 22.8152 231.307 22.4647C230.957 22.1143 230.676 21.7054 230.466 21.2381C230.279 20.7708 230.186 20.2802 230.186 19.7662C230.186 19.2521 230.279 18.7615 230.466 18.2942C230.676 17.8269 230.957 17.4297 231.307 17.1026C231.658 16.7522 232.055 16.4835 232.499 16.2966C232.966 16.0863 233.468 15.9811 234.006 15.9811H235.793Z" fill="#008838"/>
<path d="M286.846 18.9951H310.537V4.06538C310.537 3.55137 310.642 3.06072 310.852 2.59343C311.063 2.12615 311.343 1.72895 311.694 1.40185C312.044 1.07476 312.453 0.817749 312.92 0.630835C313.387 0.420555 313.89 0.315415 314.427 0.315415C314.941 0.315415 315.42 0.420555 315.864 0.630835C316.331 0.817749 316.729 1.07476 317.056 1.40185C317.406 1.72895 317.675 2.12615 317.862 2.59343C318.049 3.06072 318.142 3.55137 318.142 4.06538V41.4248C318.142 41.9622 318.037 42.4645 317.827 42.9318C317.64 43.3757 317.371 43.7612 317.021 44.0883C316.694 44.4154 316.296 44.6841 315.829 44.8944C315.362 45.0813 314.871 45.1748 314.357 45.1748C313.82 45.1748 313.317 45.0813 312.85 44.8944C312.406 44.6841 312.009 44.4154 311.659 44.0883C311.308 43.7612 311.028 43.3757 310.817 42.9318C310.63 42.4645 310.537 41.9622 310.537 41.4248V26.6352H286.846V41.4248C286.846 41.9622 286.741 42.4645 286.53 42.9318C286.343 43.3757 286.075 43.7612 285.724 44.0883C285.374 44.4154 284.965 44.6841 284.498 44.8944C284.03 45.0813 283.54 45.1748 283.026 45.1748C282.488 45.1748 281.986 45.0813 281.519 44.8944C281.075 44.6841 280.677 44.4154 280.327 44.0883C280 43.7612 279.731 43.3757 279.521 42.9318C279.334 42.4645 279.241 41.9622 279.241 41.4248V4.06538C279.241 3.55137 279.334 3.06072 279.521 2.59343C279.731 2.12615 280 1.72895 280.327 1.40185C280.677 1.07476 281.075 0.817749 281.519 0.630835C281.986 0.420555 282.488 0.315415 283.026 0.315415C283.54 0.315415 284.03 0.420555 284.498 0.630835C284.965 0.817749 285.374 1.07476 285.724 1.40185C286.075 1.72895 286.343 2.12615 286.53 2.59343C286.741 3.06072 286.846 3.55137 286.846 4.06538V18.9951Z" fill="#008838"/>
<path d="M332.391 32.2777C332.694 33.1656 333.115 33.9599 333.652 34.6609C334.213 35.3618 334.856 35.9693 335.58 36.4833C336.304 36.9739 337.099 37.3594 337.963 37.6398C338.827 37.8968 339.739 38.0253 340.697 38.0253C343.103 38.0253 344.996 37.3945 346.374 36.1328C347.075 35.6422 347.741 35.3501 348.372 35.2567C349.003 35.1632 349.598 35.2099 350.159 35.3968C350.556 35.537 350.907 35.759 351.211 36.0627C351.538 36.3431 351.806 36.6585 352.017 37.009C352.25 37.3828 352.414 37.7917 352.507 38.2356C352.624 38.6562 352.647 39.0884 352.577 39.5323C352.531 39.9762 352.39 40.4202 352.157 40.8641C351.947 41.2846 351.619 41.6701 351.175 42.0206C350.661 42.4879 350.077 42.9435 349.423 43.3874C348.769 43.808 348.01 44.1818 347.145 44.5089C346.304 44.836 345.346 45.093 344.271 45.2799C343.22 45.4902 342.028 45.5953 340.697 45.5953C338.384 45.5953 336.211 45.1631 334.178 44.2986C332.145 43.4108 330.37 42.2075 328.851 40.6888C327.332 39.1702 326.129 37.4062 325.241 35.3968C324.353 33.3642 323.909 31.1913 323.909 28.8782C323.909 26.5652 324.353 24.3923 325.241 22.3596C326.129 20.3269 327.332 18.5629 328.851 17.0676C330.37 15.5489 332.145 14.3573 334.178 13.4929C336.211 12.605 338.384 12.1611 340.697 12.1611C342.986 12.1611 345.136 12.5933 347.145 13.4578C349.178 14.3223 350.954 15.5022 352.472 16.9975C354.014 18.4694 355.229 20.2101 356.117 22.2194C357.005 24.2287 357.472 26.3782 357.519 28.6679C357.519 29.7427 357.168 30.6189 356.467 31.2964C355.79 31.9506 354.89 32.2777 353.769 32.2777H332.391ZM349.704 25.9694C349.447 25.0114 349.038 24.147 348.477 23.3759C347.916 22.6049 347.25 21.9507 346.479 21.4133C345.708 20.876 344.844 20.4671 343.886 20.1867C342.951 19.9063 341.947 19.7662 340.872 19.7662C339.797 19.7662 338.781 19.918 337.823 20.2218C336.888 20.5255 336.035 20.9461 335.264 21.4834C334.517 22.0208 333.874 22.675 333.337 23.446C332.799 24.1937 332.402 25.0348 332.145 25.9694H349.704Z" fill="#008838"/>
<path d="M360.462 28.8782C360.462 26.5652 360.906 24.404 361.793 22.3946C362.681 20.3619 363.885 18.5863 365.403 17.0676C366.922 15.5489 368.686 14.3573 370.695 13.4929C372.728 12.605 374.889 12.1611 377.179 12.1611C379.492 12.1611 381.653 12.605 383.662 13.4929C385.695 14.3573 387.459 15.5489 388.954 17.0676C390.473 18.5863 391.665 20.3619 392.529 22.3946C393.417 24.404 393.861 26.5652 393.861 28.8782V41.2846C393.861 41.822 393.756 42.3243 393.545 42.7916C393.359 43.2589 393.09 43.6678 392.739 44.0183C392.389 44.3687 391.968 44.6491 391.478 44.8594C391.01 45.0696 390.508 45.1748 389.971 45.1748C389.06 45.1748 388.288 44.9061 387.658 44.3687C387.027 43.8313 386.606 43.1538 386.396 42.336C385.064 43.3407 383.616 44.1351 382.05 44.7192C380.508 45.3033 378.884 45.5953 377.179 45.5953C374.889 45.5953 372.728 45.1631 370.695 44.2986C368.686 43.4108 366.922 42.2075 365.403 40.6888C363.885 39.1702 362.681 37.3945 361.793 35.3618C360.906 33.3291 360.462 31.1679 360.462 28.8782ZM368.067 28.8782C368.067 30.1165 368.3 31.2964 368.768 32.4179C369.258 33.516 369.913 34.4856 370.73 35.3268C371.571 36.1445 372.541 36.7987 373.639 37.2893C374.737 37.7566 375.917 37.9903 377.179 37.9903C378.44 37.9903 379.62 37.7566 380.718 37.2893C381.84 36.7987 382.81 36.1445 383.627 35.3268C384.445 34.4856 385.088 33.516 385.555 32.4179C386.022 31.2964 386.256 30.1165 386.256 28.8782C386.256 27.6165 386.022 26.4367 385.555 25.3385C385.088 24.217 384.445 23.2474 383.627 22.4297C382.81 21.6119 381.84 20.9694 380.718 20.5021C379.62 20.0115 378.44 19.7662 377.179 19.7662C375.94 19.7662 374.761 20.0115 373.639 20.5021C372.541 20.9694 371.571 21.6119 370.73 22.4297C369.913 23.2474 369.258 24.217 368.768 25.3385C368.3 26.4367 368.067 27.6165 368.067 28.8782Z" fill="#008838"/>
<path d="M412.462 37.5697C412.999 37.5697 413.49 37.6749 413.934 37.8851C414.401 38.0954 414.798 38.3875 415.125 38.7613C415.476 39.1118 415.744 39.5206 415.931 39.9879C416.118 40.4552 416.212 40.9459 416.212 41.4599C416.212 42.5346 415.861 43.4225 415.16 44.1234C414.459 44.8243 413.56 45.1748 412.462 45.1748C410.873 45.1748 409.378 44.9061 407.976 44.3687C406.597 43.8313 405.382 43.0837 404.331 42.1257C403.28 41.1678 402.438 40.0113 401.808 38.6562C401.2 37.301 400.885 35.8057 400.861 34.1702V3.82005C400.861 3.28268 400.955 2.78035 401.142 2.31306C401.329 1.84578 401.586 1.44858 401.913 1.12148C402.263 0.771019 402.66 0.50233 403.104 0.315415C403.548 0.105138 404.027 0 404.541 0C405.055 0 405.546 0.105138 406.013 0.315415C406.504 0.50233 406.924 0.771019 407.275 1.12148C407.649 1.44858 407.941 1.84578 408.151 2.31306C408.361 2.78035 408.466 3.28268 408.466 3.82005V33.9249C408.466 35.1398 408.84 36.051 409.588 36.6585C410.336 37.266 411.294 37.5697 412.462 37.5697Z" fill="#008838"/>
<path d="M428.414 12.5816H440.61C441.124 12.5816 441.615 12.6868 442.082 12.8971C442.549 13.1073 442.958 13.3877 443.309 13.7382C443.659 14.0886 443.939 14.4975 444.15 14.9648C444.36 15.4321 444.465 15.9227 444.465 16.4368C444.465 16.9508 444.36 17.4414 444.15 17.9087C443.963 18.3526 443.694 18.7498 443.344 19.1003C442.993 19.4274 442.584 19.6961 442.117 19.9063C441.65 20.0933 441.147 20.1867 440.61 20.1867H428.414V29.0534C428.414 30.2918 428.648 31.46 429.115 32.5581C429.605 33.6328 430.26 34.5791 431.077 35.3968C431.895 36.1912 432.853 36.8221 433.951 37.2893C435.073 37.7566 436.264 37.9903 437.526 37.9903C438.647 37.9903 439.687 37.8384 440.645 37.5347C441.603 37.2076 442.491 36.6819 443.309 35.9576C443.566 35.7239 443.811 35.5253 444.045 35.3618C444.302 35.1749 444.594 35.023 444.921 34.9062C445.505 34.6959 446.112 34.6375 446.743 34.731C447.374 34.8011 447.97 35.0931 448.53 35.6071C448.951 36.0043 449.243 36.4599 449.407 36.9739C449.594 37.4646 449.664 37.9903 449.617 38.551C449.594 39.0884 449.465 39.6141 449.231 40.1281C448.998 40.6421 448.671 41.0977 448.25 41.4949C446.848 42.85 445.236 43.8781 443.414 44.579C441.591 45.2566 439.629 45.5953 437.526 45.5953C435.213 45.5953 433.04 45.1631 431.007 44.2986C428.998 43.4341 427.234 42.2543 425.715 40.7589C424.197 39.2636 422.993 37.5113 422.106 35.502C421.241 33.4693 420.809 31.2964 420.809 28.9834V6.48358C420.809 5.9462 420.902 5.44387 421.089 4.97658C421.299 4.5093 421.58 4.10043 421.93 3.74996C422.281 3.3995 422.69 3.13081 423.157 2.9439C423.624 2.73362 424.127 2.62848 424.664 2.62848C425.178 2.62848 425.657 2.73362 426.101 2.9439C426.568 3.13081 426.965 3.3995 427.292 3.74996C427.643 4.10043 427.912 4.5093 428.098 4.97658C428.309 5.44387 428.414 5.9462 428.414 6.48358V12.5816Z" fill="#008838"/>
<path d="M485.832 41.4599C485.832 41.9972 485.727 42.4879 485.517 42.9318C485.33 43.3757 485.061 43.7729 484.711 44.1234C484.36 44.4505 483.952 44.7075 483.484 44.8944C483.017 45.0813 482.526 45.1748 482.012 45.1748C481.498 45.1748 481.008 45.0813 480.54 44.8944C480.097 44.7075 479.699 44.4505 479.349 44.1234C478.998 43.7729 478.718 43.3757 478.508 42.9318C478.321 42.4879 478.227 41.9972 478.227 41.4599V28.5278C478.227 28.4577 478.227 28.3876 478.227 28.3175C478.227 28.224 478.239 28.1422 478.262 28.0721C478.216 26.9039 477.994 25.8175 477.597 24.8128C477.223 23.8082 476.685 22.932 475.984 22.1844C475.307 21.4367 474.489 20.8526 473.531 20.432C472.573 19.9881 471.51 19.7662 470.342 19.7662C469.15 19.7662 468.041 19.9764 467.013 20.397C465.984 20.7942 465.097 21.3666 464.349 22.1143C463.601 22.8386 463.006 23.7147 462.562 24.7427C462.141 25.7474 461.931 26.8572 461.931 28.0721V41.3898C461.931 41.9272 461.826 42.4295 461.615 42.8968C461.428 43.3407 461.16 43.7379 460.809 44.0883C460.482 44.4154 460.085 44.6841 459.618 44.8944C459.15 45.0813 458.66 45.1748 458.146 45.1748C457.608 45.1748 457.106 45.0813 456.639 44.8944C456.172 44.6841 455.763 44.4154 455.412 44.0883C455.085 43.7379 454.816 43.3407 454.606 42.8968C454.419 42.4295 454.326 41.9272 454.326 41.3898V3.8551C454.326 3.31772 454.419 2.81539 454.606 2.34811C454.816 1.88082 455.097 1.47195 455.447 1.12148C455.798 0.771019 456.207 0.50233 456.674 0.315415C457.141 0.105138 457.632 0 458.146 0C458.66 0 459.15 0.105138 459.618 0.315415C460.085 0.50233 460.482 0.771019 460.809 1.12148C461.16 1.47195 461.428 1.88082 461.615 2.34811C461.826 2.81539 461.931 3.31772 461.931 3.8551V15.2802C463.146 14.2989 464.454 13.5396 465.856 13.0022C467.281 12.4415 468.777 12.1611 470.342 12.1611C472.562 12.1611 474.618 12.5933 476.51 13.4578C478.403 14.2989 480.038 15.4555 481.417 16.9274C482.795 18.376 483.87 20.0816 484.641 22.0442C485.435 24.0068 485.832 26.0979 485.832 28.3175V41.4599Z" fill="#008838"/>
<path d="M499.699 29.474C499.699 30.6656 499.921 31.7871 500.365 32.8385C500.809 33.8665 501.416 34.766 502.187 35.537C502.958 36.2847 503.869 36.8805 504.921 37.3244C505.972 37.7449 507.094 37.9552 508.285 37.9552C509.477 37.9552 510.586 37.7333 511.615 37.2893C512.666 36.8221 513.565 36.2029 514.313 35.4319C515.084 34.6375 515.692 33.7146 516.135 32.6632C516.579 31.6118 516.801 30.4787 516.801 29.2637V16.3667C516.801 15.8526 516.907 15.3737 517.117 14.9298C517.327 14.4625 517.607 14.0536 517.958 13.7031C518.308 13.3527 518.717 13.084 519.185 12.8971C519.652 12.6868 520.154 12.5816 520.692 12.5816C521.206 12.5816 521.685 12.6868 522.128 12.8971C522.596 13.084 522.993 13.3527 523.32 13.7031C523.67 14.0536 523.939 14.4625 524.126 14.9298C524.313 15.3737 524.406 15.8526 524.406 16.3667V29.4039C524.406 31.3198 524.091 33.1422 523.46 34.8711C522.829 36.5767 521.965 38.1305 520.867 39.5323C519.769 40.9108 518.46 42.0907 516.942 43.072C515.423 44.0299 513.776 44.7192 512 45.1397V53.2004C512 53.7378 511.895 54.2401 511.685 54.7074C511.498 55.1747 511.229 55.5719 510.879 55.899C510.528 56.2494 510.119 56.5181 509.652 56.705C509.208 56.9153 508.729 57.0205 508.215 57.0205C507.117 57.0205 506.206 56.6583 505.481 55.934C504.757 55.2097 504.395 54.2985 504.395 53.2004V45.1047C502.619 44.6608 500.984 43.9482 499.488 42.9669C497.993 41.9856 496.696 40.8057 495.598 39.4272C494.5 38.0487 493.636 36.5066 493.005 34.8011C492.397 33.0955 492.094 31.2964 492.094 29.4039V16.3667C492.094 15.8526 492.187 15.3737 492.374 14.9298C492.584 14.4625 492.853 14.0536 493.18 13.7031C493.531 13.3527 493.928 13.084 494.372 12.8971C494.839 12.6868 495.341 12.5816 495.879 12.5816C496.393 12.5816 496.883 12.6868 497.351 12.8971C497.818 13.084 498.227 13.3527 498.577 13.7031C498.928 14.0536 499.196 14.4625 499.383 14.9298C499.594 15.3737 499.699 15.8526 499.699 16.3667V29.474Z" fill="#008838"/>
<path d="M555.101 37.5697L574.552 37.6048C575.066 37.6048 575.556 37.7099 576.024 37.9202C576.491 38.1071 576.888 38.3758 577.215 38.7262C577.566 39.0767 577.834 39.4856 578.021 39.9529C578.232 40.4202 578.337 40.9108 578.337 41.4248C578.337 41.9622 578.232 42.4645 578.021 42.9318C577.834 43.3757 577.566 43.7729 577.215 44.1234C576.888 44.4505 576.491 44.7192 576.024 44.9295C575.556 45.1164 575.066 45.1982 574.552 45.1748H551.281C551.141 45.1748 551.001 45.1748 550.86 45.1748C550.744 45.1748 550.627 45.1514 550.51 45.1047C550.417 45.1047 550.323 45.0813 550.23 45.0346C549.435 44.8243 548.781 44.3921 548.267 43.7379C547.753 43.0837 547.496 42.3127 547.496 41.4248V4.06538C547.496 3.55137 547.589 3.06072 547.776 2.59343C547.987 2.12615 548.255 1.72895 548.582 1.40185C548.933 1.07476 549.33 0.817749 549.774 0.630835C550.241 0.420555 550.744 0.315415 551.281 0.315415C551.795 0.315415 552.286 0.420555 552.753 0.630835C553.22 0.817749 553.629 1.07476 553.98 1.40185C554.33 1.72895 554.599 2.12615 554.786 2.59343C554.996 3.06072 555.101 3.55137 555.101 4.06538V37.5697Z" fill="#008838"/>
<path d="M583.317 4.8364C583.317 4.25229 583.422 3.70323 583.633 3.18922C583.866 2.67521 584.17 2.23129 584.544 1.85746C584.918 1.48363 585.362 1.19158 585.876 0.981299C586.39 0.747656 586.927 0.630835 587.488 0.630835C588.049 0.630835 588.586 0.747656 589.1 0.981299C589.614 1.19158 590.058 1.48363 590.432 1.85746C590.829 2.23129 591.133 2.67521 591.343 3.18922C591.577 3.70323 591.693 4.25229 591.693 4.8364C591.693 5.39714 591.577 5.93452 591.343 6.44853C591.133 6.93918 590.829 7.37142 590.432 7.74525C590.058 8.11908 589.614 8.42281 589.1 8.65646C588.586 8.86673 588.049 8.97187 587.488 8.97187C586.927 8.97187 586.39 8.86673 585.876 8.65646C585.362 8.42281 584.918 8.11908 584.544 7.74525C584.17 7.37142 583.866 6.93918 583.633 6.44853C583.422 5.93452 583.317 5.39714 583.317 4.8364ZM591.308 41.3898C591.308 41.9272 591.203 42.4295 590.992 42.8968C590.806 43.3407 590.537 43.7379 590.186 44.0883C589.859 44.4154 589.462 44.6841 588.995 44.8944C588.527 45.0813 588.037 45.1748 587.523 45.1748C587.009 45.1748 586.518 45.0813 586.051 44.8944C585.584 44.6841 585.175 44.4154 584.824 44.0883C584.474 43.7379 584.193 43.3407 583.983 42.8968C583.796 42.4295 583.703 41.9272 583.703 41.3898V16.3667C583.703 15.8526 583.808 15.3737 584.018 14.9298C584.228 14.4625 584.509 14.0536 584.859 13.7031C585.21 13.3527 585.619 13.084 586.086 12.8971C586.553 12.6868 587.056 12.5816 587.593 12.5816C588.107 12.5816 588.586 12.6868 589.03 12.8971C589.497 13.084 589.894 13.3527 590.221 13.7031C590.572 14.0536 590.841 14.4625 591.027 14.9298C591.214 15.3737 591.308 15.8526 591.308 16.3667V41.3898Z" fill="#008838"/>
<path d="M601.267 15.9811V11.3901C601.267 9.84803 601.547 8.39945 602.108 7.04432C602.692 5.66583 603.487 4.47425 604.491 3.46959C605.496 2.44156 606.664 1.62381 607.996 1.01634C609.351 0.408874 610.8 0.0817745 612.342 0.0350438C612.388 0.0350438 612.423 0.0350438 612.447 0.0350438C612.494 0.0116813 612.54 0 612.587 0C613.685 0 614.596 0.373827 615.321 1.12148C616.068 1.84577 616.442 2.75698 616.442 3.8551C616.442 4.39248 616.337 4.89481 616.127 5.3621C615.94 5.80602 615.671 6.19153 615.321 6.51863C614.97 6.84572 614.561 7.11441 614.094 7.32469C613.627 7.51161 613.124 7.60506 612.587 7.60506H612.412C611.898 7.62843 611.419 7.75693 610.975 7.99057C610.554 8.20085 610.18 8.48122 609.853 8.83169C609.55 9.18215 609.304 9.59102 609.117 10.0583C608.954 10.5022 608.872 10.9812 608.872 11.4952V15.9811H611.43C611.968 15.9811 612.47 16.0863 612.937 16.2966C613.405 16.4835 613.802 16.7522 614.129 17.1026C614.479 17.4297 614.748 17.8269 614.935 18.2942C615.145 18.7615 615.25 19.2521 615.25 19.7662C615.25 20.3035 615.145 20.8059 614.935 21.2732C614.748 21.7404 614.479 22.1493 614.129 22.4998C613.802 22.8269 613.405 23.0956 612.937 23.3058C612.47 23.4928 611.968 23.5862 611.43 23.5862H608.872V41.3197C608.872 41.8571 608.767 42.3594 608.557 42.8267C608.37 43.294 608.101 43.7028 607.751 44.0533C607.4 44.4038 606.991 44.6841 606.524 44.8944C606.08 45.0813 605.601 45.1748 605.087 45.1748C604.55 45.1748 604.047 45.0813 603.58 44.8944C603.136 44.6841 602.739 44.4038 602.388 44.0533C602.038 43.7028 601.758 43.294 601.547 42.8267C601.36 42.3594 601.267 41.8571 601.267 41.3197V23.5862H599.48C598.942 23.5862 598.44 23.4928 597.973 23.3058C597.529 23.0956 597.131 22.8152 596.781 22.4647C596.431 22.1143 596.15 21.7054 595.94 21.2381C595.753 20.7708 595.66 20.2802 595.66 19.7662C595.66 19.2521 595.753 18.7615 595.94 18.2942C596.15 17.8269 596.431 17.4297 596.781 17.1026C597.131 16.7522 597.529 16.4835 597.973 16.2966C598.44 16.0863 598.942 15.9811 599.48 15.9811H601.267Z" fill="#008838"/>
<path d="M627.205 32.2777C627.508 33.1656 627.929 33.9599 628.466 34.6609C629.027 35.3618 629.669 35.9693 630.394 36.4833C631.118 36.9739 631.912 37.3594 632.777 37.6398C633.641 37.8968 634.553 38.0253 635.511 38.0253C637.917 38.0253 639.81 37.3945 641.188 36.1328C641.889 35.6422 642.555 35.3501 643.186 35.2567C643.817 35.1632 644.412 35.2099 644.973 35.3968C645.37 35.537 645.721 35.759 646.025 36.0627C646.352 36.3431 646.62 36.6585 646.831 37.009C647.064 37.3828 647.228 37.7917 647.321 38.2356C647.438 38.6562 647.461 39.0884 647.391 39.5323C647.345 39.9762 647.204 40.4202 646.971 40.8641C646.76 41.2846 646.433 41.6701 645.989 42.0206C645.475 42.4879 644.891 42.9435 644.237 43.3874C643.583 43.808 642.824 44.1818 641.959 44.5089C641.118 44.836 640.16 45.093 639.085 45.2799C638.034 45.4902 636.842 45.5953 635.511 45.5953C633.198 45.5953 631.025 45.1631 628.992 44.2986C626.959 43.4108 625.184 42.2075 623.665 40.6888C622.146 39.1702 620.943 37.4062 620.055 35.3968C619.167 33.3642 618.723 31.1913 618.723 28.8782C618.723 26.5652 619.167 24.3923 620.055 22.3596C620.943 20.3269 622.146 18.5629 623.665 17.0676C625.184 15.5489 626.959 14.3573 628.992 13.4929C631.025 12.605 633.198 12.1611 635.511 12.1611C637.8 12.1611 639.95 12.5933 641.959 13.4578C643.992 14.3223 645.767 15.5022 647.286 16.9975C648.828 18.4694 650.043 20.2101 650.931 22.2194C651.819 24.2287 652.286 26.3782 652.333 28.6679C652.333 29.7427 651.982 30.6189 651.281 31.2964C650.604 31.9506 649.704 32.2777 648.583 32.2777H627.205ZM644.517 25.9694C644.26 25.0114 643.852 24.147 643.291 23.3759C642.73 22.6049 642.064 21.9507 641.293 21.4133C640.522 20.876 639.658 20.4671 638.7 20.1867C637.765 19.9063 636.761 19.7662 635.686 19.7662C634.611 19.7662 633.595 19.918 632.637 20.2218C631.702 20.5255 630.849 20.9461 630.078 21.4834C629.331 22.0208 628.688 22.675 628.151 23.446C627.614 24.1937 627.216 25.0348 626.959 25.9694H644.517Z" fill="#008838"/>
</svg>
