<svg width="60" height="60" viewBox="0 0 60 60" fill="none" xmlns="http://www.w3.org/2000/svg">
<g id="cart">
<path id="Rectangle 2" fill-rule="evenodd" clip-rule="evenodd" d="M14.276 15H53.2304L49.5204 37.5H17.9859L14.276 15Z" fill="#008838" stroke="#008838" stroke-width="2" stroke-linecap="round" stroke-linejoin="round"/>
<path id="Oval 8" fill-rule="evenodd" clip-rule="evenodd" d="M22.5 50C23.8807 50 25 48.8807 25 47.5C25 46.1193 23.8807 45 22.5 45C21.1193 45 20 46.1193 20 47.5C20 48.8807 21.1193 50 22.5 50Z" stroke="#008838" stroke-width="2"/>
<path id="Oval 8_2" fill-rule="evenodd" clip-rule="evenodd" d="M45 50C46.3807 50 47.5 48.8807 47.5 47.5C47.5 46.1193 46.3807 45 45 45C43.6193 45 42.5 46.1193 42.5 47.5C42.5 48.8807 43.6193 50 45 50Z" stroke="#008838" stroke-width="2"/>
<path id="Path 2" d="M17.5 15H7.5" stroke="#008838" stroke-width="2" stroke-linecap="round"/>
</g>
</svg>
