<svg width="146" height="145" viewBox="0 0 146 145" fill="none" xmlns="http://www.w3.org/2000/svg">
<path d="M51.3971 63.2638C55.6794 63.9309 59.6755 61.1044 60.3226 56.9506C60.9697 52.7967 58.0228 48.8886 53.7405 48.2215C49.4582 47.5544 45.4621 50.3809 44.815 54.5347C44.1679 58.6885 47.1148 62.5967 51.3971 63.2638Z" fill="#F17400"/>
<path d="M91.2729 63.2638C95.5552 63.9309 99.5513 61.1044 100.198 56.9506C100.845 52.7967 97.8986 48.8886 93.6163 48.2215C89.334 47.5544 85.3378 50.3809 84.6907 54.5347C84.0436 58.6885 86.9906 62.5967 91.2729 63.2638Z" fill="#F17400"/>
<path d="M52.8843 85.0048C55.7578 92.1885 61.5047 99.3721 72.9986 99.3721C84.4925 99.3721 90.2395 92.1885 93.1129 85.0048" stroke="#F17400" stroke-width="12.3326" stroke-linecap="round" stroke-linejoin="round"/>
<path d="M50.5632 141.357C50.4542 141.327 50.3565 141.275 50.27 141.202C50.1822 141.134 50.1141 141.053 50.0658 140.959C50.0162 140.87 49.9856 140.771 49.974 140.66C49.9576 140.549 49.9655 140.436 49.9978 140.322C50.0301 140.208 50.0827 140.108 50.1554 140.021C50.2217 139.938 50.3001 139.869 50.3906 139.815C50.4796 139.765 50.58 139.732 50.6917 139.716C50.8021 139.704 50.9117 139.714 51.0207 139.745L55.1975 140.93L55.9502 138.276L52.7768 137.376C52.6678 137.345 52.5701 137.293 52.4836 137.221C52.3972 137.148 52.3305 137.062 52.2836 136.963C52.2304 136.868 52.1987 136.762 52.1886 136.647C52.1721 136.535 52.1794 136.425 52.2103 136.316C52.2426 136.202 52.2944 136.104 52.3657 136.023C52.4321 135.94 52.5122 135.874 52.6062 135.826C52.6953 135.776 52.795 135.746 52.9053 135.734C53.0157 135.723 53.1253 135.733 53.2343 135.763L56.4078 136.664L57.2132 133.825C57.2455 133.711 57.298 133.611 57.3707 133.524C57.4371 133.441 57.518 133.373 57.6134 133.32C57.7074 133.272 57.8095 133.242 57.9199 133.23C58.0302 133.219 58.1399 133.228 58.2489 133.259C58.3628 133.292 58.4637 133.342 58.5516 133.41C58.6331 133.481 58.7011 133.562 58.7558 133.652C58.8055 133.741 58.8392 133.839 58.8571 133.946C58.8687 134.056 58.8583 134.168 58.8259 134.282L56.5719 142.227C56.548 142.311 56.5086 142.394 56.4535 142.474C56.3971 142.56 56.3286 142.632 56.2481 142.689C56.1626 142.745 56.0633 142.784 55.9501 142.805C55.832 142.825 55.6986 142.814 55.55 142.772L50.5632 141.357Z" fill="#008838"/>
<path d="M46.4785 138.993C46.4289 139.101 46.3638 139.193 46.2833 139.269C46.1981 139.343 46.1076 139.398 46.012 139.433C45.9095 139.471 45.8052 139.488 45.699 139.485C45.5861 139.484 45.4758 139.458 45.3683 139.409L42.7935 138.222C42.3304 138.008 41.9342 137.724 41.6049 137.368C41.2735 137.017 41.0236 136.624 40.8554 136.189C40.6804 135.756 40.5991 135.299 40.6114 134.817C40.6169 134.338 40.7264 133.867 40.9398 133.403C41.0864 133.085 41.2676 132.803 41.4833 132.557C41.699 132.31 41.94 132.101 42.2065 131.929C42.4708 131.761 42.7558 131.629 43.0615 131.532C43.3672 131.435 43.6788 131.38 43.9964 131.367L43.4196 129.205C43.3768 129.088 43.3582 128.975 43.3639 128.864C43.3696 128.753 43.3974 128.65 43.4474 128.554C43.4927 128.456 43.5556 128.368 43.6361 128.292C43.7166 128.216 43.8105 128.16 43.9177 128.124C44.027 128.084 44.1347 128.065 44.2408 128.069C44.3423 128.07 44.4374 128.091 44.5263 128.132C44.6151 128.173 44.6954 128.233 44.767 128.311C44.8339 128.388 44.8876 128.48 44.9279 128.59L45.8338 131.755L47.5948 132.567L48.3968 130.827C48.4463 130.719 48.5137 130.628 48.599 130.554C48.6773 130.482 48.7667 130.43 48.867 130.397C48.9674 130.364 49.074 130.348 49.187 130.349C49.2978 130.354 49.4046 130.381 49.5075 130.428C49.6151 130.478 49.707 130.543 49.7833 130.624C49.8528 130.707 49.9075 130.797 49.9475 130.895C49.9828 130.991 50.001 131.093 50.0021 131.201C49.9964 131.312 49.9688 131.421 49.9192 131.528L46.4785 138.993ZM45.3053 137.534L46.8898 134.096L45.0657 133.255C44.8131 133.139 44.5565 133.074 44.2957 133.062C44.0302 133.047 43.7811 133.077 43.5484 133.151C43.3136 133.23 43.102 133.351 42.9136 133.514C42.7205 133.674 42.57 133.871 42.4623 134.105C42.3523 134.344 42.2979 134.591 42.2991 134.847C42.2935 135.105 42.3382 135.352 42.4333 135.589C42.5237 135.823 42.6584 136.036 42.8372 136.226C43.0139 136.421 43.2262 136.575 43.4741 136.69L45.3053 137.534Z" fill="#008838"/>
<path d="M37.4997 129.1L37.5217 129.068L37.5261 129.062C37.7436 128.749 37.8829 128.413 37.9441 128.054C38.0053 127.695 37.9986 127.339 37.9239 126.986C37.8463 126.638 37.707 126.306 37.5059 125.99C37.3019 125.679 37.0455 125.417 36.7368 125.202C36.428 124.987 36.0986 124.843 35.7486 124.769C35.3956 124.7 35.0507 124.695 34.7138 124.756C34.374 124.821 34.0529 124.949 33.7506 125.14C33.4441 125.329 33.1821 125.579 32.9647 125.892L30.2493 129.8C30.1817 129.898 30.1031 129.975 30.0134 130.031C29.9166 130.09 29.8159 130.126 29.7113 130.141C29.6038 130.161 29.4981 130.159 29.3942 130.137C29.2861 130.112 29.1834 130.066 29.0861 129.999C28.9931 129.934 28.916 129.855 28.8549 129.763C28.7939 129.67 28.7558 129.572 28.7406 129.467C28.7183 129.364 28.7196 129.258 28.7446 129.15C28.7624 129.043 28.805 128.941 28.8726 128.844L31.5572 124.98L31.5792 124.948L31.588 124.936C31.9318 124.441 32.3517 124.04 32.8477 123.732C33.3394 123.422 33.8612 123.217 34.4132 123.117C34.9651 123.018 35.5272 123.026 36.0993 123.141C36.6671 123.253 37.2006 123.483 37.6997 123.83C38.1987 124.176 38.6063 124.601 38.9224 125.103C39.2385 125.604 39.4546 126.137 39.571 126.701C39.683 127.262 39.6856 127.831 39.5788 128.409C39.4719 128.987 39.2466 129.523 38.9028 130.018L36.1962 133.914C36.1316 134.007 36.0529 134.084 35.9603 134.145C35.8635 134.203 35.7649 134.241 35.6645 134.259C35.557 134.278 35.4513 134.277 35.3475 134.255C35.2364 134.234 35.1323 134.19 35.035 134.123C34.9419 134.058 34.8663 133.977 34.8082 133.88C34.7471 133.788 34.7069 133.688 34.6875 133.58C34.6652 133.477 34.6666 133.371 34.6915 133.263C34.7122 133.152 34.7549 133.05 34.8195 132.957L37.4997 129.1Z" fill="#008838"/>
<path d="M30.1205 118.883C30.2003 118.795 30.292 118.729 30.3957 118.684C30.492 118.64 30.5931 118.617 30.6987 118.616C30.8044 118.614 30.9109 118.631 31.0182 118.666C31.1221 118.705 31.2159 118.763 31.2997 118.839C31.3872 118.919 31.4551 119.009 31.5035 119.109C31.5446 119.209 31.5694 119.312 31.5779 119.417C31.5826 119.519 31.5691 119.622 31.5375 119.725C31.4985 119.829 31.4391 119.925 31.3593 120.012L25.8114 126.098C25.7315 126.186 25.6435 126.252 25.5471 126.296C25.4434 126.341 25.3407 126.366 25.2388 126.371C25.1297 126.376 25.0251 126.36 24.925 126.325C24.8211 126.286 24.7254 126.227 24.6379 126.147C24.5542 126.07 24.4881 125.982 24.4398 125.883C24.3914 125.783 24.3647 125.678 24.3597 125.569C24.3511 125.464 24.3664 125.359 24.4053 125.255C24.437 125.152 24.4927 125.056 24.5725 124.969L30.1205 118.883Z" fill="#008838"/>
<path d="M19.5827 118.512L25.155 113.665C25.2443 113.587 25.3431 113.532 25.4512 113.5C25.5521 113.466 25.6551 113.455 25.7602 113.466C25.8653 113.477 25.9691 113.506 26.0717 113.554C26.1704 113.604 26.2586 113.674 26.3363 113.764C26.4107 113.849 26.4661 113.944 26.5026 114.049C26.5319 114.153 26.5447 114.258 26.541 114.364C26.5339 114.466 26.5086 114.566 26.4652 114.665C26.4146 114.764 26.3445 114.852 26.2552 114.93L20.6829 119.777L22.1989 121.52C22.2766 121.609 22.3337 121.706 22.3702 121.811C22.3995 121.915 22.4103 122.022 22.4027 122.131C22.3918 122.236 22.3646 122.338 22.3212 122.437C22.2705 122.536 22.2005 122.624 22.1111 122.702C22.0256 122.776 21.9305 122.832 21.8257 122.868C21.7176 122.901 21.6127 122.914 21.5109 122.906C21.402 122.899 21.2998 122.872 21.2045 122.825C21.1019 122.778 21.0118 122.709 20.934 122.62L16.802 117.87C16.7276 117.784 16.6741 117.687 16.6415 117.579C16.605 117.474 16.5922 117.369 16.6031 117.264C16.6107 117.155 16.6399 117.051 16.6905 116.953C16.7378 116.85 16.8042 116.762 16.8897 116.687C16.9791 116.61 17.0778 116.554 17.186 116.522C17.2869 116.489 17.3918 116.476 17.5008 116.484C17.6025 116.491 17.7046 116.518 17.8072 116.565C17.9059 116.616 17.9924 116.684 18.0668 116.769L19.5827 118.512Z" fill="#008838"/>
<path d="M17.2417 108.454C17.4285 108.921 17.5671 109.37 17.6576 109.8C17.7481 110.231 17.7734 110.636 17.7336 111.015C17.6938 111.394 17.5846 111.741 17.4062 112.056C17.2207 112.369 16.9475 112.64 16.5867 112.869C16.2215 113.101 15.8406 113.236 15.444 113.275C15.0474 113.313 14.6603 113.275 14.2828 113.161C13.9025 113.043 13.5474 112.853 13.2174 112.593C12.8803 112.331 12.5958 112.018 12.3638 111.653C12.2009 111.396 12.0668 111.127 11.9616 110.847C11.8536 110.561 11.7814 110.275 11.7449 109.987C11.7041 109.701 11.7039 109.418 11.7445 109.136C11.7807 108.857 11.8615 108.595 11.9869 108.35C12.0273 108.27 12.0808 108.205 12.1476 108.157C12.2117 108.104 12.2818 108.065 12.3581 108.041C12.4316 108.013 12.5098 107.997 12.5927 107.993C12.6686 107.988 12.7399 107.994 12.8066 108.013C12.8848 108.03 12.9612 108.064 13.0358 108.114C13.1104 108.165 13.1769 108.226 13.2353 108.299C13.2894 108.374 13.3339 108.459 13.369 108.552C13.3997 108.649 13.4139 108.753 13.4114 108.864C13.386 109.045 13.3694 109.211 13.3618 109.362C13.3542 109.514 13.3623 109.661 13.3863 109.804C13.4059 109.951 13.4477 110.098 13.5115 110.247C13.5683 110.393 13.6519 110.554 13.7623 110.728C13.8866 110.923 14.0265 111.091 14.182 111.23C14.3375 111.369 14.5009 111.473 14.6723 111.541C14.8409 111.605 15.0117 111.633 15.1847 111.627C15.355 111.617 15.5184 111.562 15.6749 111.462C15.8575 111.346 15.9771 111.203 16.0337 111.033C16.0903 110.863 16.1061 110.667 16.081 110.445C16.0516 110.226 15.9933 109.985 15.9063 109.723C15.8121 109.459 15.709 109.177 15.5971 108.876C15.4821 108.522 15.3921 108.164 15.3273 107.803C15.2553 107.44 15.2388 107.087 15.2778 106.745C15.3168 106.403 15.4261 106.081 15.6057 105.777C15.7782 105.473 16.047 105.204 16.4122 104.972C16.7774 104.74 17.1648 104.601 17.5745 104.554C17.9841 104.508 18.3905 104.542 18.7937 104.658C19.1898 104.773 19.5677 104.969 19.9273 105.247C20.2841 105.521 20.5937 105.864 20.856 106.277C21.0659 106.608 21.2248 106.949 21.3327 107.301C21.4363 107.657 21.4964 108.006 21.5131 108.349C21.5227 108.691 21.489 109.017 21.4121 109.328C21.3308 109.642 21.2125 109.922 21.0571 110.167C20.9799 110.295 20.8941 110.396 20.7996 110.468C20.7024 110.536 20.6028 110.581 20.5009 110.603C20.399 110.625 20.2996 110.627 20.2029 110.609C20.099 110.59 20.004 110.555 19.918 110.506C19.7091 110.389 19.5846 110.236 19.5445 110.048C19.4973 109.858 19.5269 109.617 19.6334 109.323C19.7826 108.972 19.8428 108.611 19.8139 108.239C19.7806 107.869 19.6453 107.498 19.4078 107.124C19.2918 106.941 19.1547 106.778 18.9964 106.635C18.8354 106.487 18.6651 106.372 18.4854 106.291C18.3014 106.213 18.1158 106.175 17.9286 106.178C17.7386 106.177 17.5566 106.231 17.3827 106.342C17.1914 106.463 17.0647 106.605 17.0026 106.766C16.9361 106.93 16.91 107.106 16.9245 107.292C16.9362 107.473 16.9755 107.665 17.0425 107.867C17.1067 108.064 17.1731 108.259 17.2417 108.454Z" fill="#008838"/>
<path d="M5.7278 87.3401L11.6209 86.3285C11.7377 86.3085 11.8507 86.3126 11.9601 86.3409C12.0635 86.3649 12.1573 86.4089 12.2414 86.4729C12.3256 86.5368 12.3992 86.6156 12.4623 86.7093C12.5203 86.8038 12.5589 86.907 12.5781 87.0186C12.5981 87.1354 12.5965 87.248 12.5734 87.3565C12.5442 87.4608 12.5007 87.5571 12.4427 87.6454C12.3838 87.7287 12.3101 87.8014 12.2215 87.8637C12.1269 87.9217 12.0213 87.9607 11.9045 87.9808L3.81098 89.3699C3.59272 89.4074 3.39525 89.3681 3.21858 89.2522C3.12096 89.201 3.03806 89.129 2.96987 89.0362C2.90169 88.9434 2.85584 88.8285 2.83231 88.6914C2.8114 88.5696 2.81928 88.448 2.85595 88.3268C2.88667 88.2013 2.94539 88.0867 3.03209 87.983L8.45489 81.6282L2.63027 82.628C2.5186 82.6471 2.40808 82.6426 2.29872 82.6143C2.18936 82.5861 2.09262 82.54 2.00849 82.476C1.92435 82.4121 1.85327 82.3328 1.79524 82.2383C1.73213 82.1446 1.69056 82.0394 1.67052 81.9227C1.65135 81.811 1.65633 81.703 1.68546 81.5987C1.70865 81.4902 1.74967 81.3944 1.80854 81.3111C1.86653 81.2228 1.9428 81.1496 2.03735 81.0916C2.1319 81.0335 2.23501 80.9949 2.34668 80.9758L10.4631 79.5827C10.595 79.56 10.7217 79.567 10.8429 79.6037C10.9642 79.6403 11.0686 79.7008 11.1562 79.785C11.2225 79.8364 11.2779 79.9 11.3223 79.976C11.3658 80.0469 11.3962 80.1331 11.4137 80.2347L11.4189 80.2651L11.4215 80.2803C11.4373 80.403 11.4277 80.5144 11.3927 80.6145C11.3525 80.7155 11.2886 80.8152 11.2011 80.9139L5.7278 87.3401Z" fill="#008838"/>
<path d="M6.69686 74.5393L6.73548 74.5401L6.7432 74.5403C7.12424 74.5478 7.48106 74.4776 7.81366 74.3297C8.14627 74.1817 8.43876 73.9789 8.69112 73.7212C8.93833 73.4634 9.13745 73.1634 9.28846 72.8213C9.43433 72.4791 9.51099 72.12 9.51844 71.7441C9.52589 71.3682 9.46337 71.0141 9.33087 70.6818C9.19323 70.3494 9.0058 70.0598 8.76859 69.813C8.52623 69.5661 8.24165 69.3699 7.91487 69.2243C7.58818 69.0736 7.23432 68.9945 6.85328 68.9869L2.09548 68.8926C1.97705 68.8903 1.86933 68.8675 1.77231 68.8244C1.67025 68.776 1.58394 68.7125 1.51338 68.6338C1.43767 68.555 1.38019 68.4663 1.34094 68.3677C1.30179 68.2639 1.28338 68.1528 1.28573 68.0343C1.28798 67.9211 1.31072 67.8133 1.35395 67.7112C1.39719 67.609 1.45814 67.5226 1.5368 67.4521C1.61042 67.3763 1.69913 67.3188 1.80293 67.2796C1.90168 67.2352 2.01027 67.2142 2.1287 67.2166L6.83244 67.3098L6.87106 67.3106L6.88651 67.3109C7.48895 67.3228 8.05564 67.4499 8.58655 67.6923C9.11757 67.9295 9.5774 68.2502 9.96602 68.6546C10.3546 69.0589 10.6595 69.5311 10.8806 70.0712C11.1018 70.6062 11.2064 71.1775 11.1943 71.7851C11.1823 72.3927 11.055 72.9671 10.8125 73.5083C10.5699 74.0495 10.2463 74.5247 9.84154 74.9339C9.4369 75.338 8.96442 75.6557 8.42411 75.8871C7.8838 76.1185 7.31242 76.2282 6.70998 76.2163L1.96762 76.1223C1.85434 76.1201 1.74662 76.0973 1.64445 76.0541C1.54239 76.0057 1.45602 75.9447 1.38537 75.8712C1.30966 75.7925 1.25218 75.7037 1.21293 75.6051C1.16863 75.5012 1.14765 75.39 1.15 75.2716C1.15224 75.1583 1.17756 75.0506 1.22594 74.9486C1.26917 74.8464 1.33018 74.7575 1.40894 74.6818C1.48256 74.606 1.57127 74.5485 1.67507 74.5093C1.77897 74.465 1.88756 74.444 2.00085 74.4463L6.69686 74.5393Z" fill="#008838"/>
<path d="M4.30986 58.9299L11.5601 60.3359C11.6764 60.3585 11.7807 60.4023 11.873 60.4674C11.9612 60.5265 12.0333 60.6008 12.0894 60.6904C12.1455 60.78 12.1865 60.8797 12.2124 60.9897C12.2332 61.0986 12.2323 61.2113 12.2098 61.3275C12.1882 61.4388 12.1474 61.541 12.0874 61.6343C12.0232 61.7215 11.9484 61.7962 11.8629 61.8583C11.7784 61.9154 11.6837 61.9573 11.5788 61.9842C11.4699 62.0051 11.3572 62.0042 11.241 61.9817L3.99071 60.5756L3.55097 62.8432C3.52841 62.9595 3.48711 63.0643 3.42705 63.1576C3.36292 63.2448 3.28558 63.319 3.19504 63.3801C3.10547 63.4362 3.00824 63.4777 2.90335 63.5046C2.79439 63.5254 2.68177 63.5245 2.56548 63.502C2.45425 63.4804 2.352 63.4396 2.25872 63.3796C2.16643 63.3144 2.09175 63.2396 2.03469 63.1551C1.97356 63.0646 1.93209 62.9673 1.91027 62.8634C1.88437 62.7535 1.8827 62.6404 1.90525 62.5241L3.10389 56.3432C3.12546 56.232 3.1688 56.1302 3.23392 56.0379C3.29397 55.9446 3.36879 55.8699 3.45835 55.8139C3.5489 55.7527 3.64865 55.7118 3.75762 55.6909C3.86756 55.665 3.97815 55.6629 4.08938 55.6844C4.20566 55.707 4.30995 55.7508 4.40225 55.8159C4.49047 55.875 4.56514 55.9498 4.62628 56.0404C4.68333 56.1249 4.72481 56.2221 4.7507 56.332C4.77154 56.441 4.77117 56.5511 4.7496 56.6623L4.30986 58.9299Z" fill="#008838"/>
<path d="M10.7935 50.892C10.5406 51.3267 10.2723 51.7124 9.9887 52.0488C9.7051 52.3853 9.40167 52.6545 9.07839 52.8566C8.75511 53.0587 8.41457 53.1864 8.05678 53.2395C7.69586 53.2861 7.31401 53.2378 6.91125 53.0946C6.50363 52.9497 6.1626 52.7328 5.88815 52.4439C5.6137 52.1551 5.40519 51.8268 5.26263 51.4591C5.12178 51.0865 5.05227 50.6901 5.05409 50.2699C5.05278 49.8431 5.12459 49.4258 5.26951 49.0182C5.37129 48.7319 5.50047 48.4608 5.65704 48.2049C5.81533 47.9442 5.9967 47.7108 6.20115 47.5047C6.40074 47.2969 6.62411 47.1221 6.87127 46.9804C7.11357 46.837 7.36962 46.7395 7.63942 46.6878C7.72773 46.67 7.81157 46.6725 7.89094 46.6952C7.97203 46.7131 8.04552 46.7447 8.11141 46.79C8.17902 46.8305 8.2399 46.8822 8.29403 46.9451C8.34504 47.0015 8.38375 47.0617 8.41018 47.1258C8.44458 47.1982 8.46496 47.2792 8.47132 47.3689C8.47769 47.4586 8.4702 47.5489 8.44885 47.6397C8.42265 47.7288 8.38345 47.8159 8.33126 47.9012C8.27422 47.9848 8.20106 48.0599 8.11177 48.1266C7.95358 48.2179 7.81254 48.3071 7.68864 48.3943C7.56474 48.4814 7.45368 48.5786 7.35544 48.6858C7.25236 48.7912 7.16194 48.9149 7.0842 49.0567C7.00332 49.1919 6.92839 49.3566 6.85938 49.5507C6.78174 49.769 6.73597 49.9823 6.72207 50.1906C6.70817 50.3988 6.72715 50.5914 6.77902 50.7683C6.83262 50.9404 6.91512 51.0928 7.02652 51.2253C7.13964 51.3529 7.28355 51.4478 7.45824 51.5099C7.66205 51.5824 7.84844 51.5885 8.01742 51.5284C8.18639 51.4682 8.35062 51.3599 8.5101 51.2034C8.66473 51.0452 8.81844 50.8511 8.97124 50.6212C9.1209 50.3847 9.2799 50.1297 9.44822 49.8561C9.65633 49.5475 9.88283 49.2563 10.1277 48.9827C10.3695 48.7024 10.6371 48.4723 10.9306 48.2924C11.2241 48.1126 11.5456 48 11.8951 47.9548C12.2415 47.9031 12.6185 47.9496 13.0261 48.0946C13.4337 48.2395 13.782 48.459 14.071 48.753C14.36 49.0471 14.583 49.3887 14.7398 49.7778C14.8934 50.1604 14.9715 50.579 14.9738 51.0335C14.978 51.4832 14.8981 51.9385 14.7342 52.3995C14.6031 52.7683 14.4319 53.1037 14.2206 53.4058C14.0046 53.7061 13.7664 53.9685 13.5062 54.1931C13.2429 54.411 12.965 54.5855 12.6724 54.7165C12.375 54.8458 12.0819 54.9247 11.793 54.9532C11.6444 54.9714 11.5125 54.9655 11.3975 54.9356C11.2841 54.9007 11.1874 54.8499 11.1073 54.7832C11.0272 54.7164 10.9644 54.6395 10.9188 54.5522C10.8702 54.4584 10.8387 54.3625 10.8244 54.2645C10.7884 54.0276 10.8321 53.8354 10.9555 53.688C11.0759 53.534 11.2844 53.4086 11.5812 53.3119C11.9496 53.2133 12.2716 53.0381 12.547 52.7862C12.8175 52.5325 13.027 52.1971 13.1754 51.7797C13.2478 51.5759 13.2919 51.3675 13.3075 51.1544C13.3248 50.9365 13.3102 50.7317 13.2635 50.5402C13.2119 50.347 13.1273 50.1775 13.0097 50.0318C12.8937 49.8813 12.7387 49.7715 12.5446 49.7025C12.3311 49.6266 12.1416 49.6139 11.9761 49.6644C11.8057 49.7131 11.6516 49.8005 11.5139 49.9264C11.378 50.0475 11.2512 50.1965 11.1337 50.3734C11.0179 50.5454 10.9045 50.7182 10.7935 50.892Z" fill="#008838"/>
<path d="M24.1337 32.3337L26.9589 29.1086C27.0334 29.0232 27.1219 28.957 27.2246 28.9098C27.3234 28.8593 27.4255 28.8323 27.5312 28.8288C27.6402 28.8214 27.747 28.836 27.8517 28.8727C27.9598 28.9055 28.0565 28.9592 28.1419 29.0337C28.2311 29.1116 28.2993 29.2018 28.3464 29.3045C28.393 29.3999 28.4201 29.5021 28.4275 29.6111C28.4344 29.7128 28.4214 29.8177 28.3886 29.9258C28.3519 30.0305 28.2944 30.1238 28.216 30.2058L24.8633 34.0471L24.843 34.0704C24.8227 34.0937 24.8024 34.117 24.7821 34.1403C24.7651 34.1597 24.7443 34.1757 24.7196 34.1883C24.7061 34.2038 24.6886 34.2159 24.6673 34.2247C24.5173 34.3261 24.3507 34.3721 24.1675 34.3627C23.9844 34.3532 23.8191 34.2841 23.6716 34.1554L17.4673 28.7404C17.382 28.6659 17.314 28.5792 17.2635 28.4805C17.2164 28.3778 17.1894 28.2756 17.1825 28.1739C17.1789 28.0683 17.1938 27.965 17.2271 27.8642C17.2599 27.7562 17.3153 27.6575 17.3932 27.5682C17.4677 27.4829 17.5563 27.4166 17.6589 27.3695C17.7577 27.319 17.8596 27.2884 17.9648 27.2776C18.0699 27.2668 18.1748 27.2797 18.2795 27.3164C18.3876 27.3492 18.4843 27.4029 18.5696 27.4774L24.1337 32.3337Z" fill="#008838"/>
<path d="M31.2449 27.2603C31.062 27.3868 30.8653 27.4408 30.6549 27.4223C30.4451 27.3966 30.2658 27.2949 30.1169 27.1173L24.8407 20.8247C24.7646 20.7339 24.7093 20.6358 24.6747 20.5304C24.644 20.4217 24.6331 20.3166 24.642 20.215C24.6516 20.1061 24.6826 20.0029 24.7351 19.9051C24.7842 19.8034 24.8542 19.7145 24.945 19.6384L29.0888 16.164C29.1756 16.0912 29.2733 16.0394 29.3821 16.0088C29.4875 15.9742 29.5926 15.9633 29.6975 15.9762C29.7991 15.9851 29.8987 16.0158 29.9965 16.0682C30.0982 16.1174 30.1871 16.1874 30.2632 16.2781C30.3393 16.3689 30.3927 16.4686 30.4233 16.5773C30.4546 16.6788 30.4675 16.7823 30.4619 16.8878C30.4529 16.9894 30.4239 17.091 30.3747 17.1927C30.3223 17.2905 30.2527 17.3757 30.1658 17.4485L26.6614 20.3869L28.1405 22.151L30.8813 19.8529C30.9648 19.7762 31.0609 19.7225 31.1696 19.6918C31.2783 19.6611 31.3851 19.6522 31.49 19.6651C31.5989 19.6747 31.7038 19.7077 31.8049 19.7641C31.9066 19.8132 31.9938 19.8812 32.0666 19.968C32.1427 20.0588 32.1944 20.1566 32.2218 20.2613C32.2531 20.3628 32.264 20.4679 32.2544 20.5768C32.2455 20.6783 32.2148 20.778 32.1623 20.8757C32.1099 20.9735 32.0402 21.0588 31.9534 21.1316L29.2126 23.4297L30.8605 25.395L34.3649 22.4566C34.4517 22.3838 34.5495 22.3321 34.6582 22.3014C34.7669 22.2708 34.8737 22.2619 34.9786 22.2748C35.0835 22.2876 35.1848 22.3203 35.2826 22.3727C35.3843 22.4219 35.4715 22.4899 35.5443 22.5767C35.6204 22.6675 35.6738 22.7672 35.7045 22.8759C35.7358 22.9774 35.7486 23.0809 35.743 23.1864C35.7341 23.288 35.705 23.3896 35.6559 23.4913C35.6034 23.5891 35.5321 23.6724 35.442 23.7412L31.2449 27.2603Z" fill="#008838"/>
<path d="M41.0338 10.2196C41.1438 10.2451 41.2403 10.2933 41.3232 10.3642C41.4106 10.4326 41.4801 10.5114 41.5318 10.6004C41.5835 10.6895 41.6174 10.7889 41.6335 10.8987C41.6541 11.0059 41.6481 11.1136 41.6156 11.2217C41.5857 11.3344 41.5366 11.4344 41.4682 11.5217C41.4043 11.6065 41.3268 11.6782 41.2359 11.737C41.1449 11.7958 41.0459 11.8354 40.9387 11.856C40.8289 11.872 40.7177 11.8651 40.6051 11.8353C40.143 11.7164 39.6925 11.6892 39.2534 11.7535C38.8188 11.8153 38.4122 11.9561 38.0337 12.1759C37.6462 12.4009 37.3227 12.6899 37.0632 13.043C36.8011 13.3917 36.615 13.7737 36.5048 14.1891C36.392 14.6 36.3611 15.0288 36.4121 15.4756C36.4649 15.9154 36.609 16.338 36.8443 16.7433C37.0693 17.1308 37.3539 17.4568 37.6981 17.7215C38.0468 17.9835 38.4257 18.1745 38.8347 18.2943C39.2456 18.4071 39.6713 18.4429 40.1118 18.4015C40.5497 18.3557 40.9713 18.2151 41.3766 17.9798C41.7266 17.7825 42.0348 17.5441 42.3011 17.2643C42.5694 16.9776 42.7784 16.6299 42.9283 16.2213L42.3814 15.2793L41.3726 15.865C41.2701 15.9245 41.164 15.9623 41.0543 15.9784C40.9464 15.9874 40.8418 15.9766 40.7407 15.946C40.6396 15.9154 40.5431 15.8672 40.4513 15.8014C40.3639 15.733 40.2905 15.6476 40.231 15.5452C40.1742 15.4472 40.139 15.3455 40.1255 15.2402C40.1138 15.1279 40.1211 15.0224 40.1472 14.9239C40.1708 14.8209 40.2146 14.727 40.2785 14.6422C40.3443 14.5504 40.4284 14.4748 40.5309 14.4153L42.2612 13.4107C42.3636 13.3512 42.471 13.3156 42.5834 13.304C42.6931 13.2879 42.7995 13.2917 42.9025 13.3152C43.0056 13.3388 43.1007 13.3848 43.1881 13.4532C43.2773 13.5145 43.3516 13.5964 43.4111 13.6988L44.5709 15.6964C44.6381 15.8122 44.6741 15.9253 44.6786 16.0358C44.6832 16.1463 44.6719 16.2601 44.6446 16.3772C44.4062 17.1052 44.0776 17.7188 43.6588 18.218C43.24 18.7172 42.7464 19.1288 42.1782 19.4528C41.7952 19.6752 41.3935 19.8399 40.9733 19.9469C40.5549 20.0469 40.1333 20.0952 39.7085 20.0917C39.2837 20.0882 38.8636 20.0314 38.4482 19.9212C38.0329 19.811 37.6386 19.6498 37.2653 19.4378C36.8921 19.2257 36.5447 18.9658 36.2232 18.6582C35.9061 18.348 35.6312 17.9925 35.3985 17.5917C35.0545 16.9993 34.8391 16.377 34.7522 15.7247C34.6672 15.0654 34.7034 14.4251 34.8607 13.8037C35.018 13.1823 35.29 12.6046 35.6767 12.0704C36.0678 11.5337 36.5662 11.0895 37.1719 10.7378C37.7776 10.3861 38.4022 10.1694 39.0455 10.0877C39.6908 9.9989 40.3535 10.0429 41.0338 10.2196Z" fill="#008838"/>
<path d="M48.3049 11.4867L48.3177 11.5231L48.3203 11.5304C48.4473 11.8897 48.6386 12.199 48.8942 12.4583C49.1497 12.7175 49.4425 12.9199 49.7725 13.0654C50.1009 13.2061 50.4517 13.2869 50.8251 13.3078C51.1968 13.3239 51.5599 13.2693 51.9143 13.1439C52.2688 13.0186 52.5782 12.8355 52.8426 12.5945C53.1053 12.3487 53.3104 12.0713 53.4579 11.7624C53.6037 11.4487 53.6873 11.1132 53.7085 10.7561C53.7346 10.3973 53.6841 10.0382 53.5571 9.6789L51.9708 5.19233C51.9313 5.08065 51.9147 4.97181 51.9209 4.86582C51.9303 4.75326 51.9594 4.65011 52.0082 4.55638C52.0553 4.4578 52.1181 4.37278 52.1966 4.30131C52.28 4.22813 52.3775 4.1718 52.4892 4.13232C52.596 4.09455 52.7048 4.07792 52.8157 4.08243C52.9265 4.08694 53.0288 4.11359 53.1225 4.16239C53.2194 4.20462 53.3044 4.26742 53.3776 4.3508C53.4539 4.42761 53.5118 4.52185 53.5513 4.63353L55.1195 9.06912L55.1324 9.10554L55.1376 9.1201C55.3384 9.68821 55.4189 10.2634 55.3789 10.8456C55.3438 11.4261 55.2054 11.9694 54.9637 12.4755C54.722 12.9816 54.3873 13.4331 53.9596 13.8302C53.5367 14.2255 53.0388 14.5244 52.4658 14.727C51.8929 14.9296 51.3104 15.0126 50.7185 14.9761C50.1265 14.9396 49.5678 14.8039 49.0423 14.5691C48.5217 14.3325 48.058 14.0021 47.6512 13.5778C47.2445 13.1535 46.9407 12.6573 46.7398 12.0892L45.1587 7.61719C45.1209 7.51037 45.1043 7.40153 45.1088 7.29069C45.1182 7.17812 45.1448 7.07584 45.1888 6.98382C45.2359 6.88524 45.2987 6.80021 45.3772 6.72875C45.4588 6.65072 45.5555 6.59196 45.6672 6.55247C45.774 6.5147 45.8837 6.5005 45.9963 6.50987C46.1071 6.51438 46.2118 6.54017 46.3104 6.58726C46.4073 6.62948 46.4923 6.69229 46.5655 6.77567C46.6435 6.85733 46.7014 6.95157 46.7392 7.05839L48.3049 11.4867Z" fill="#008838"/>
<path d="M63.0959 8.04248L63.015 7.96826L60.1525 5.42968L61.0068 11.3711C61.0237 11.4883 61.0165 11.6012 60.9853 11.7098C60.9584 11.8125 60.9119 11.905 60.8457 11.9874C60.7795 12.0698 60.6987 12.1412 60.6033 12.2018C60.5072 12.2572 60.4031 12.293 60.291 12.3091C60.1737 12.326 60.0612 12.3213 59.9534 12.2952C59.8499 12.2633 59.7548 12.2171 59.6681 12.1567C59.5865 12.0956 59.5157 12.0199 59.4559 11.9297C59.4005 11.8336 59.3643 11.7269 59.3475 11.6097L58.1755 3.4584C58.1461 3.25449 58.1846 3.06946 58.2908 2.9033C58.4013 2.73131 58.5513 2.6161 58.7406 2.55766C58.8694 2.51311 59.0005 2.50207 59.1338 2.52453C59.2664 2.54189 59.3932 2.5913 59.5142 2.67276L63.3903 6.12704L66.1208 1.72283C66.1783 1.65213 66.2427 1.59344 66.314 1.54676C66.3854 1.50008 66.4607 1.46323 66.5401 1.43621C66.5896 1.41869 66.6271 1.40809 66.6526 1.40443L66.7138 1.39563C66.8266 1.3846 66.9348 1.39507 67.0383 1.42702C67.1417 1.45897 67.2343 1.5055 67.3159 1.56661C67.3975 1.62771 67.4657 1.70376 67.5204 1.79476C67.5802 1.88502 67.6182 1.98622 67.6343 2.09837L68.8063 10.2496C68.8232 10.3669 68.816 10.4798 68.7848 10.5883C68.7579 10.691 68.7114 10.7836 68.6452 10.866C68.579 10.9483 68.4982 11.0198 68.4028 11.0803C68.3067 11.1357 68.2026 11.1715 68.0905 11.1877C67.9783 11.2038 67.8683 11.1988 67.7605 11.1727C67.6571 11.1407 67.562 11.0945 67.4753 11.0342C67.3885 10.9738 67.3153 10.8985 67.2555 10.8082C67.2 10.7121 67.1639 10.6055 67.147 10.4882L66.2916 4.53917L64.2625 7.7967L64.1992 7.89945C64.1163 8.01024 64.0217 8.09408 63.9154 8.15099C63.6497 8.29326 63.3853 8.26363 63.1222 8.06212L63.1145 8.06322L63.1134 8.05558L63.0959 8.04248Z" fill="#008838"/>
<path d="M72.9049 11.0592C72.6845 11.0298 72.5026 10.9375 72.3593 10.7823C72.2213 10.6222 72.157 10.4264 72.1662 10.1948L72.4927 1.98939C72.4974 1.87103 72.5224 1.7612 72.5676 1.65992C72.6181 1.55884 72.6807 1.47371 72.7556 1.40454C72.8359 1.33042 72.9283 1.27482 73.0329 1.23775C73.1376 1.19553 73.2492 1.17677 73.3675 1.18148L78.7709 1.39648C78.8841 1.40098 78.9913 1.42844 79.0924 1.47885C79.1936 1.52411 79.2788 1.58678 79.3478 1.66683C79.4169 1.74174 79.4701 1.83148 79.5071 1.93604C79.5493 2.0408 79.5681 2.15237 79.5634 2.27073C79.5587 2.38909 79.5311 2.49881 79.4807 2.59988C79.4357 2.69602 79.3756 2.78125 79.3005 2.85558C79.2255 2.92475 79.1357 2.98045 79.0309 3.02267C78.9264 3.05975 78.8175 3.07603 78.7043 3.07153L74.1346 2.8897L74.043 5.18999L77.617 5.3322C77.7304 5.33156 77.8377 5.35644 77.9387 5.40685C78.0398 5.45726 78.1248 5.5225 78.1938 5.60256C78.2679 5.68282 78.3234 5.7778 78.3603 5.88751C78.4025 5.99227 78.4214 6.10126 78.4169 6.21447C78.4122 6.33283 78.3847 6.43998 78.3345 6.53591C78.2894 6.63205 78.2268 6.71718 78.1465 6.7913C78.0716 6.86048 77.9819 6.9136 77.8773 6.95068C77.7727 6.98775 77.6639 7.00403 77.5506 6.99953L73.9767 6.85732L73.8747 9.42007L78.4444 9.6019C78.5577 9.6064 78.6648 9.63386 78.7659 9.68427C78.867 9.73468 78.952 9.79991 79.021 9.87997C79.0899 9.96003 79.143 10.0523 79.18 10.1569C79.2222 10.2617 79.2411 10.3706 79.2366 10.4839C79.2319 10.6022 79.2043 10.7119 79.1539 10.813C79.1089 10.9092 79.0488 10.9944 78.9737 11.0687C78.8987 11.1379 78.8089 11.1936 78.7041 11.2358C78.5996 11.2729 78.4908 11.2866 78.3778 11.2769L72.9049 11.0592Z" fill="#008838"/>
<path d="M85.6577 8.20489C85.19 8.01972 84.7686 7.81207 84.3935 7.58193C84.0185 7.35179 83.7069 7.09199 83.4588 6.80253C83.2107 6.51307 83.0336 6.19543 82.9276 5.8496C82.8276 5.49969 82.8183 5.11492 82.8997 4.69528C82.9821 4.27058 83.1456 3.90097 83.3902 3.58644C83.6348 3.27191 83.9283 3.0167 84.2706 2.82079C84.6179 2.62586 84.9995 2.4979 85.4152 2.43692C85.8371 2.37186 86.2603 2.38052 86.685 2.46291C86.9833 2.52077 87.2707 2.60799 87.5471 2.72457C87.8286 2.84213 88.0865 2.98659 88.3208 3.15795C88.5561 3.32426 88.7622 3.51901 88.9393 3.74222C89.1173 3.96037 89.252 4.19897 89.3434 4.45802C89.3742 4.54269 89.3843 4.62596 89.3736 4.70783C89.368 4.79069 89.3478 4.86808 89.3128 4.93999C89.283 5.01289 89.2409 5.0808 89.1868 5.14374C89.1386 5.2026 89.0848 5.24988 89.0255 5.28557C88.9591 5.3304 88.882 5.36266 88.7942 5.38236C88.7065 5.40206 88.6161 5.40814 88.5231 5.40059C88.4311 5.38799 88.3391 5.36227 88.2469 5.32341C88.1558 5.27949 88.0706 5.21837 87.9913 5.14005C87.8774 4.99728 87.7681 4.87115 87.6634 4.76166C87.5587 4.65217 87.4461 4.55687 87.3254 4.47575C87.2057 4.38958 87.07 4.31865 86.9181 4.26297C86.7724 4.20321 86.5983 4.15372 86.3961 4.11448C86.1686 4.07035 85.9509 4.05696 85.7429 4.07432C85.5349 4.09169 85.3473 4.13923 85.1801 4.21696C85.0179 4.29568 84.8797 4.40001 84.7653 4.52995C84.6559 4.66088 84.5836 4.81735 84.5483 4.99936C84.5071 5.21171 84.5289 5.39693 84.6136 5.55501C84.6984 5.7131 84.83 5.8593 85.0086 5.99361C85.1881 6.12287 85.4029 6.24586 85.6531 6.36259C85.9093 6.47525 86.1852 6.59435 86.4809 6.71991C86.8171 6.87957 87.1389 7.06002 87.4461 7.26126C87.7593 7.45843 88.0268 7.68869 88.2485 7.95204C88.4702 8.21539 88.6295 8.51647 88.7264 8.85528C88.8294 9.19002 88.8396 9.56974 88.7573 9.99443C88.6749 10.4191 88.5099 10.7963 88.2623 11.126C88.0147 11.4557 87.7103 11.7272 87.3489 11.9403C86.9936 12.1495 86.5914 12.2892 86.1423 12.3594C85.6983 12.4307 85.2361 12.4197 84.7558 12.3265C84.3716 12.252 84.0143 12.1329 83.6841 11.9691C83.3549 11.8003 83.0598 11.6041 82.7989 11.3803C82.5441 11.1525 82.33 10.9038 82.1568 10.6341C81.9845 10.3593 81.8627 10.0813 81.7914 9.79988C81.7511 9.65568 81.7373 9.52445 81.7497 9.40621C81.7672 9.28894 81.803 9.18571 81.857 9.09651C81.911 9.00732 81.9778 8.9337 82.0572 8.87567C82.1427 8.81356 82.2329 8.7681 82.3276 8.73927C82.5565 8.66825 82.753 8.68277 82.9172 8.78282C83.0875 8.8788 83.2426 9.06628 83.3826 9.34525C83.5351 9.69486 83.7565 9.98699 84.0467 10.2217C84.3379 10.4513 84.7009 10.6083 85.1357 10.6926C85.3481 10.7338 85.5608 10.7462 85.7738 10.7298C85.9919 10.7144 86.1921 10.6693 86.3745 10.5945C86.5579 10.5147 86.7128 10.4057 86.8392 10.2676C86.9708 10.1305 87.0561 9.96084 87.0954 9.7586C87.1385 9.53615 87.1228 9.34685 87.0482 9.19073C86.9745 9.02955 86.8651 8.89029 86.72 8.77295C86.5799 8.6566 86.4137 8.55352 86.2213 8.46373C86.0339 8.37492 85.846 8.28864 85.6577 8.20489Z" fill="#008838"/>
<path d="M107.706 11.3182C107.726 11.2022 107.765 11.0987 107.823 11.0079C107.885 10.9127 107.959 10.8351 108.047 10.7752C108.139 10.7181 108.238 10.6781 108.345 10.6551C108.459 10.6305 108.573 10.6302 108.686 10.6542C108.795 10.6755 108.895 10.7154 108.986 10.774C109.076 10.8327 109.15 10.9044 109.205 10.9893C109.265 11.077 109.307 11.1742 109.33 11.281C109.36 11.3863 109.365 11.4969 109.345 11.6129L108.172 18.5326L113.986 14.6077C114.081 14.5463 114.182 14.504 114.289 14.481C114.396 14.458 114.498 14.4565 114.595 14.4764C114.7 14.4949 114.797 14.5334 114.888 14.592C114.982 14.6463 115.063 14.7201 115.132 14.8134C115.2 14.9066 115.246 15.0067 115.269 15.1135C115.292 15.2203 115.294 15.3259 115.276 15.4305C115.257 15.5351 115.218 15.6349 115.156 15.7301C115.102 15.8238 115.026 15.9035 114.928 15.9693L107.512 20.966C107.349 21.0756 107.173 21.1246 106.985 21.1132C106.796 21.1017 106.631 21.0349 106.489 20.9127C106.484 20.9099 106.48 20.9071 106.476 20.9044C106.474 20.8972 106.469 20.8909 106.461 20.8853L106.408 20.8239C106.325 20.7337 106.266 20.6311 106.23 20.5159C106.197 20.3964 106.191 20.2672 106.213 20.1283L107.706 11.3182Z" fill="#008838"/>
<path d="M112.6 25.3222C112.449 25.1585 112.368 24.9712 112.358 24.7603C112.354 24.549 112.43 24.3573 112.585 24.1852L118.085 18.0874C118.165 17.9994 118.254 17.931 118.354 17.8821C118.457 17.8366 118.56 17.8113 118.661 17.8061C118.771 17.8004 118.877 17.8168 118.981 17.8552C119.089 17.8898 119.187 17.9467 119.274 18.0261L123.29 21.648C123.374 21.7239 123.439 21.8136 123.484 21.917C123.533 22.0165 123.559 22.1192 123.56 22.2248C123.566 22.3267 123.549 22.4296 123.511 22.5337C123.476 22.6412 123.419 22.739 123.34 22.8269C123.26 22.9149 123.169 22.9816 123.066 23.027C122.97 23.0721 122.869 23.0992 122.764 23.1082C122.662 23.1135 122.557 23.0988 122.45 23.0642C122.345 23.0259 122.251 22.9687 122.167 22.8928L118.771 19.8297L117.229 21.5392L119.885 23.9348C119.973 24.0069 120.039 24.0946 120.085 24.198C120.13 24.3014 120.154 24.406 120.156 24.5116C120.161 24.6207 120.143 24.7292 120.101 24.8371C120.067 24.9447 120.012 25.0405 119.936 25.1246C119.856 25.2126 119.767 25.2774 119.667 25.319C119.571 25.3641 119.468 25.3894 119.359 25.395C119.257 25.4003 119.154 25.3837 119.05 25.3453C118.946 25.3069 118.852 25.2498 118.768 25.1739L116.112 22.7782L114.394 24.6827L117.79 27.7459C117.874 27.8217 117.939 27.9114 117.984 28.0148C118.03 28.1182 118.053 28.2227 118.055 28.3284C118.057 28.4341 118.039 28.5389 118 28.643C117.966 28.7505 117.91 28.8464 117.834 28.9305C117.755 29.0185 117.664 29.0852 117.56 29.1306C117.464 29.1757 117.363 29.2027 117.258 29.2118C117.156 29.2171 117.052 29.2024 116.944 29.1678C116.84 29.1294 116.748 29.0704 116.667 28.9907L112.6 25.3222Z" fill="#008838"/>
<path d="M130.833 32.6534C130.823 32.7659 130.789 32.8681 130.73 32.9601C130.675 33.0561 130.606 33.1359 130.525 33.1994C130.444 33.263 130.35 33.3104 130.244 33.3415C130.141 33.3767 130.033 33.3857 129.922 33.3686C129.806 33.3546 129.7 33.3198 129.604 33.2642C129.511 33.2126 129.429 33.1459 129.359 33.064C129.288 32.9821 129.235 32.8894 129.2 32.7862C129.168 32.6797 129.16 32.5686 129.174 32.4529C129.227 31.9788 129.192 31.5289 129.067 31.103C128.946 30.6811 128.75 30.298 128.48 29.9536C128.203 29.601 127.872 29.3207 127.487 29.1127C127.105 28.9016 126.701 28.7702 126.274 28.7186C125.852 28.6639 125.423 28.6928 124.987 28.8052C124.559 28.9186 124.161 29.1199 123.792 29.4091C123.439 29.6857 123.156 30.0127 122.941 30.3903C122.73 30.772 122.594 31.1736 122.532 31.5953C122.477 32.0179 122.501 32.4444 122.603 32.8749C122.709 33.3023 122.906 33.7003 123.196 34.0691C123.44 34.3883 123.719 34.6604 124.032 34.8855C124.354 35.1113 124.727 35.2702 125.152 35.3619L126.009 34.6896L125.289 33.7718C125.216 33.6786 125.164 33.5788 125.133 33.4723C125.109 33.3667 125.105 33.2617 125.122 33.1573C125.138 33.0529 125.172 32.9506 125.225 32.8506C125.28 32.7546 125.355 32.6701 125.448 32.597C125.537 32.527 125.633 32.4781 125.735 32.4501C125.845 32.423 125.95 32.4156 126.052 32.4278C126.157 32.4369 126.256 32.4672 126.349 32.5187C126.449 32.5712 126.535 32.644 126.608 32.7372L127.843 34.3115C127.916 34.4047 127.967 34.5061 127.994 34.6158C128.025 34.7222 128.036 34.8281 128.027 34.9334C128.018 35.0387 127.985 35.1393 127.93 35.2353C127.881 35.3322 127.811 35.4172 127.717 35.4903L125.9 36.9159C125.795 36.9985 125.688 37.0498 125.579 37.0696C125.47 37.0895 125.356 37.094 125.236 37.0832C124.482 36.9481 123.829 36.7078 123.276 36.3622C122.724 36.0167 122.248 35.585 121.848 35.0672C121.575 34.7187 121.356 34.3438 121.192 33.9425C121.035 33.542 120.928 33.1312 120.873 32.71C120.817 32.2888 120.815 31.8648 120.867 31.4382C120.919 31.0116 121.023 30.5988 121.182 30.1997C121.34 29.8007 121.549 29.4206 121.809 29.0595C122.072 28.7025 122.386 28.3809 122.751 28.0949C123.29 27.6721 123.876 27.3725 124.51 27.196C125.151 27.0203 125.791 26.9673 126.428 27.037C127.065 27.1067 127.675 27.2959 128.258 27.6047C128.843 27.9176 129.352 28.3496 129.785 28.9007C130.217 29.4518 130.518 30.0403 130.688 30.6661C130.866 31.2927 130.914 31.9552 130.833 32.6534Z" fill="#008838"/>
<path d="M130.383 44.9241L128.304 41.0248L126.804 41.1677C126.687 41.1777 126.575 41.1645 126.468 41.1281C126.361 41.0918 126.267 41.0366 126.187 40.9627C126.109 40.8933 126.042 40.8064 125.987 40.7018C125.938 40.5994 125.908 40.4896 125.899 40.3724C125.886 40.2506 125.897 40.1397 125.931 40.0397C125.97 39.9373 126.024 39.8472 126.094 39.7694C126.165 39.6961 126.252 39.635 126.355 39.5863C126.46 39.5421 126.571 39.515 126.688 39.505L135.582 38.7642C135.761 38.7503 135.921 38.7818 136.061 38.8588C136.201 38.9357 136.313 39.0515 136.395 39.206C136.473 39.3514 136.504 39.5038 136.49 39.6632C136.476 39.8225 136.415 39.9716 136.308 40.1103L130.74 47.1058C130.593 47.2894 130.411 47.4013 130.193 47.4416C129.977 47.4864 129.776 47.4363 129.587 47.2915C129.496 47.2179 129.421 47.1323 129.363 47.0347C129.31 46.9347 129.275 46.8308 129.258 46.723C129.248 46.6172 129.256 46.5111 129.281 46.4044C129.31 46.2954 129.361 46.1927 129.432 46.0963L130.383 44.9241ZM130.099 40.8292L131.535 43.5219L134.033 40.474L130.099 40.8292Z" fill="#008838"/>
<path d="M139.69 51.1445L132.701 53.5302C132.589 53.5684 132.476 53.5823 132.364 53.5717C132.258 53.5643 132.159 53.5357 132.065 53.4859C131.972 53.436 131.887 53.3699 131.81 53.2874C131.738 53.2032 131.682 53.1051 131.644 52.993C131.607 52.8857 131.592 52.7767 131.598 52.6659C131.61 52.5584 131.638 52.4564 131.681 52.36C131.726 52.2684 131.787 52.1849 131.865 52.1095C131.949 52.0372 132.047 51.9819 132.159 51.9437L139.149 49.558L138.403 47.372C138.364 47.2599 138.348 47.1484 138.354 47.0376C138.366 46.93 138.396 46.8272 138.444 46.7292C138.494 46.636 138.558 46.5516 138.636 46.4762C138.72 46.4039 138.818 46.3486 138.93 46.3104C139.037 46.2738 139.146 46.2583 139.257 46.264C139.369 46.2746 139.471 46.3024 139.563 46.3473C139.661 46.3955 139.745 46.4592 139.816 46.5385C139.893 46.621 139.951 46.7183 139.989 46.8304L142.023 52.789C142.059 52.8962 142.072 53.006 142.062 53.1185C142.056 53.2293 142.028 53.3313 141.979 53.4245C141.93 53.5225 141.864 53.6077 141.78 53.68C141.698 53.7571 141.603 53.814 141.495 53.8506C141.383 53.8888 141.271 53.9027 141.159 53.8921C141.053 53.8847 140.951 53.8569 140.853 53.8088C140.761 53.7638 140.677 53.7001 140.6 53.6176C140.527 53.5334 140.473 53.4377 140.436 53.3305L139.69 51.1445Z" fill="#008838"/>
<path d="M136.338 64.5033L135.599 60.1467L134.131 59.808C134.016 59.7804 133.914 59.7325 133.824 59.6641C133.734 59.5958 133.663 59.5139 133.61 59.4184C133.558 59.3279 133.522 59.2243 133.503 59.1075C133.489 58.995 133.496 58.8815 133.523 58.7671C133.55 58.6476 133.595 58.5459 133.659 58.4619C133.729 58.377 133.808 58.3086 133.899 58.2567C133.99 58.2099 134.092 58.1795 134.205 58.1657C134.318 58.1569 134.432 58.1663 134.546 58.1939L143.218 60.3037C143.392 60.3472 143.534 60.4276 143.643 60.545C143.752 60.6624 143.821 60.8074 143.85 60.98C143.877 61.1425 143.859 61.2971 143.795 61.4437C143.731 61.5904 143.627 61.7126 143.481 61.8104L135.987 66.6862C135.789 66.8138 135.581 66.8622 135.361 66.8315C135.143 66.8059 134.967 66.6946 134.835 66.4977C134.771 66.3989 134.727 66.294 134.703 66.1832C134.684 66.0715 134.684 65.9618 134.702 65.8542C134.726 65.7509 134.767 65.6525 134.824 65.5592C134.887 65.4651 134.967 65.3836 135.065 65.3147L136.338 64.5033ZM137.364 60.5289L137.874 63.5374L141.208 61.436L137.364 60.5289Z" fill="#008838"/>
<path d="M134.975 70.1964C134.975 70.078 134.995 69.9672 135.036 69.864C135.082 69.766 135.141 69.6783 135.212 69.6007C135.284 69.5284 135.369 69.4689 135.467 69.4222C135.57 69.3806 135.68 69.3596 135.799 69.3592L144.034 69.3299C144.152 69.3295 144.26 69.3497 144.358 69.3906C144.462 69.4366 144.549 69.4955 144.622 69.5673C144.699 69.6443 144.759 69.7316 144.8 69.8294C144.842 69.9322 144.863 70.0429 144.863 70.1613L144.863 70.1922L144.876 73.7072C144.877 74.0883 144.806 74.4439 144.663 74.774C144.52 75.1093 144.326 75.401 144.079 75.649C143.833 75.8971 143.543 76.0913 143.208 76.2315C142.874 76.3769 142.519 76.4503 142.143 76.4516C141.788 76.4529 141.448 76.3897 141.123 76.2621C140.798 76.1397 140.504 75.9682 140.24 75.7477C139.958 76.0783 139.617 76.3396 139.216 76.5315C138.82 76.7287 138.39 76.828 137.927 76.8297C137.515 76.8311 137.131 76.7527 136.775 76.5943C136.419 76.441 136.109 76.2284 135.845 75.9564C135.582 75.6895 135.372 75.3735 135.216 75.0084C135.066 74.6484 134.99 74.2599 134.988 73.8427L134.975 70.1964ZM139.258 71.0233L136.654 71.0325L136.664 73.775C136.665 73.9655 136.702 74.1431 136.774 74.3076C136.852 74.4773 136.956 74.6237 137.085 74.7469C137.214 74.8751 137.361 74.9751 137.526 75.0466C137.691 75.1181 137.864 75.1535 138.044 75.1529C138.23 75.1522 138.397 75.113 138.546 75.0352C138.7 74.9626 138.829 74.8617 138.931 74.7326C139.039 74.6086 139.121 74.4615 139.177 74.2914C139.238 74.1263 139.268 73.9511 139.268 73.7657L139.258 71.0233ZM143.19 71.0093L140.934 71.0173L140.944 73.6593C140.949 73.8138 140.983 73.9579 141.046 74.0916C141.113 74.2253 141.198 74.3408 141.302 74.4383C141.405 74.541 141.524 74.6204 141.658 74.6765C141.792 74.7379 141.934 74.7683 142.083 74.7677C142.238 74.7672 142.382 74.7358 142.515 74.6735C142.649 74.6112 142.767 74.5258 142.87 74.4173C142.973 74.3139 143.052 74.1926 143.108 74.0534C143.169 73.9141 143.2 73.7672 143.199 73.6127L143.19 71.0093Z" fill="#008838"/>
<path d="M136.136 81.3485L135.472 85.5842C135.455 85.6962 135.415 85.7995 135.354 85.8942C135.297 85.9897 135.225 86.0671 135.138 86.1266C135.05 86.1911 134.952 86.2358 134.844 86.2608C134.735 86.2908 134.624 86.2971 134.512 86.2798C134.395 86.2616 134.29 86.2218 134.195 86.1602C134.104 86.1045 134.027 86.0326 133.962 85.9444C133.902 85.8621 133.857 85.7665 133.827 85.6577C133.802 85.5496 133.801 85.4399 133.823 85.3287L134.604 80.2902L134.609 80.2597C134.613 80.2291 134.618 80.1986 134.623 80.1681C134.627 80.1426 134.636 80.118 134.65 80.0941C134.653 80.0737 134.661 80.0542 134.675 80.0354C134.747 79.8694 134.864 79.7415 135.023 79.6516C135.183 79.5617 135.36 79.5318 135.553 79.5617L143.691 80.8226C143.803 80.84 143.907 80.8769 144.002 80.9334C144.097 80.995 144.175 81.0669 144.235 81.1492C144.294 81.2366 144.337 81.3318 144.363 81.4348C144.393 81.5437 144.399 81.6566 144.38 81.7737C144.363 81.8856 144.324 81.989 144.262 82.0837C144.206 82.1791 144.136 82.2595 144.053 82.3248C143.97 82.3901 143.874 82.4353 143.766 82.4602C143.657 82.4902 143.547 82.4966 143.435 82.4792L136.136 81.3485Z" fill="#008838"/>
<path d="M132.838 89.4372C132.925 89.2325 133.062 89.0817 133.25 88.9849C133.441 88.8945 133.647 88.8846 133.867 88.9551L141.69 91.4538C141.803 91.4898 141.902 91.5431 141.988 91.6137C142.072 91.6892 142.137 91.7723 142.184 91.8629C142.234 91.96 142.263 92.0639 142.271 92.1745C142.283 92.2868 142.272 92.3993 142.236 92.5121L140.59 97.6634C140.556 97.7713 140.501 97.8673 140.425 97.9513C140.355 98.0369 140.272 98.1023 140.176 98.1474C140.086 98.1942 139.985 98.2215 139.874 98.2294C139.762 98.2422 139.65 98.2306 139.537 98.1946C139.424 98.1585 139.326 98.1028 139.241 98.0273C139.161 97.9582 139.095 97.8776 139.043 97.7854C138.996 97.6948 138.966 97.5934 138.954 97.4812C138.946 97.3705 138.959 97.2612 138.994 97.1533L140.385 92.7968L138.192 92.0963L137.104 95.5035C137.074 95.613 137.022 95.7098 136.946 95.7938C136.871 95.8778 136.785 95.9424 136.69 95.9876C136.593 96.0377 136.486 96.0659 136.371 96.0722C136.258 96.085 136.148 96.0742 136.04 96.0397C135.928 96.0037 135.832 95.9487 135.753 95.8748C135.672 95.8058 135.606 95.7227 135.556 95.6256C135.51 95.535 135.482 95.4343 135.474 95.3237C135.466 95.213 135.48 95.1037 135.514 94.9958L136.603 91.5886L134.159 90.8082L132.768 95.1647C132.733 95.2726 132.678 95.3686 132.603 95.4526C132.527 95.5367 132.442 95.6012 132.346 95.6464C132.251 95.6916 132.148 95.7181 132.037 95.7261C131.925 95.7389 131.815 95.728 131.707 95.6936C131.594 95.6575 131.496 95.6017 131.412 95.5263C131.331 95.4572 131.265 95.3766 131.213 95.2844C131.166 95.1938 131.137 95.0924 131.124 94.9802C131.116 94.8695 131.132 94.761 131.171 94.6546L132.838 89.4372Z" fill="#008838"/>
<path d="M132.195 102.49C132.498 102.088 132.81 101.737 133.132 101.437C133.453 101.137 133.787 100.906 134.132 100.743C134.477 100.581 134.83 100.495 135.192 100.485C135.556 100.482 135.929 100.575 136.312 100.765C136.699 100.958 137.012 101.214 137.25 101.533C137.488 101.853 137.656 102.204 137.754 102.586C137.849 102.972 137.871 103.374 137.819 103.791C137.77 104.215 137.649 104.621 137.456 105.008C137.321 105.28 137.161 105.534 136.975 105.77C136.786 106.01 136.579 106.22 136.351 106.4C136.128 106.583 135.885 106.729 135.623 106.841C135.365 106.954 135.1 107.021 134.826 107.04C134.736 107.047 134.653 107.034 134.577 107.002C134.498 106.975 134.429 106.935 134.369 106.882C134.307 106.834 134.253 106.775 134.206 106.706C134.162 106.644 134.131 106.58 134.113 106.513C134.087 106.437 134.076 106.354 134.081 106.264C134.085 106.175 134.103 106.086 134.135 105.998C134.172 105.913 134.221 105.831 134.283 105.753C134.35 105.676 134.431 105.61 134.528 105.555C134.696 105.483 134.847 105.411 134.98 105.34C135.113 105.268 135.235 105.185 135.346 105.09C135.461 104.997 135.565 104.885 135.659 104.754C135.756 104.629 135.85 104.475 135.941 104.29C136.044 104.083 136.115 103.876 136.154 103.671C136.192 103.466 136.196 103.273 136.166 103.091C136.133 102.914 136.07 102.752 135.975 102.608C135.878 102.467 135.746 102.356 135.58 102.274C135.386 102.177 135.202 102.149 135.027 102.189C134.852 102.228 134.676 102.316 134.499 102.453C134.327 102.591 134.151 102.766 133.972 102.976C133.795 103.193 133.607 103.427 133.407 103.678C133.164 103.96 132.904 104.222 132.628 104.465C132.355 104.714 132.062 104.911 131.749 105.054C131.436 105.198 131.104 105.271 130.751 105.275C130.401 105.285 130.032 105.194 129.645 105.001C129.257 104.809 128.938 104.549 128.686 104.223C128.434 103.897 128.253 103.531 128.144 103.126C128.037 102.728 128.009 102.303 128.061 101.851C128.111 101.404 128.244 100.962 128.462 100.523C128.636 100.173 128.846 99.8602 129.092 99.5855C129.342 99.313 129.61 99.0808 129.895 98.8889C130.182 98.7039 130.479 98.5638 130.785 98.4685C131.096 98.3756 131.396 98.3322 131.686 98.3384C131.836 98.338 131.966 98.3595 132.077 98.403C132.185 98.451 132.275 98.513 132.347 98.5888C132.419 98.6646 132.472 98.7486 132.507 98.8406C132.544 98.9395 132.564 99.0385 132.566 99.1376C132.574 99.3771 132.507 99.5627 132.367 99.6943C132.229 99.8329 132.007 99.9325 131.701 99.9932C131.324 100.047 130.983 100.183 130.68 100.4C130.381 100.62 130.133 100.928 129.936 101.324C129.84 101.518 129.771 101.72 129.73 101.93C129.687 102.144 129.677 102.349 129.701 102.545C129.729 102.743 129.793 102.921 129.892 103.08C129.989 103.243 130.13 103.37 130.315 103.462C130.518 103.563 130.704 103.598 130.875 103.568C131.049 103.54 131.213 103.471 131.365 103.363C131.514 103.258 131.658 103.126 131.795 102.964C131.931 102.807 132.064 102.649 132.195 102.49Z" fill="#008838"/>
<path d="M119.031 128.323C118.947 128.399 118.852 128.455 118.744 128.489C118.64 128.528 118.535 128.543 118.43 128.534C118.328 128.529 118.228 128.502 118.128 128.453C118.024 128.408 117.933 128.341 117.853 128.253C117.774 128.166 117.717 128.068 117.682 127.961C117.647 127.86 117.63 127.757 117.632 127.652C117.637 127.55 117.662 127.447 117.707 127.344C117.756 127.244 117.822 127.156 117.906 127.08L121.125 124.167L119.275 122.122L116.829 124.336C116.745 124.412 116.649 124.467 116.542 124.502C116.434 124.536 116.326 124.548 116.217 124.535C116.108 124.529 116.002 124.5 115.899 124.448C115.796 124.403 115.706 124.338 115.63 124.254C115.55 124.166 115.495 124.07 115.464 123.967C115.429 123.866 115.415 123.764 115.424 123.658C115.429 123.557 115.456 123.456 115.505 123.356C115.554 123.257 115.62 123.169 115.704 123.093L118.15 120.879L116.17 118.691C116.09 118.603 116.033 118.506 115.998 118.398C115.963 118.298 115.948 118.193 115.954 118.084C115.963 117.979 115.991 117.876 116.04 117.777C116.089 117.677 116.155 117.589 116.239 117.513C116.327 117.434 116.423 117.375 116.527 117.336C116.631 117.305 116.735 117.29 116.841 117.292C116.943 117.297 117.044 117.32 117.144 117.361C117.244 117.41 117.333 117.478 117.413 117.566L122.954 123.689C123.013 123.754 123.062 123.831 123.101 123.921C123.144 124.014 123.168 124.11 123.174 124.209C123.177 124.311 123.157 124.416 123.115 124.523C123.069 124.634 122.989 124.741 122.875 124.845L119.031 128.323Z" fill="#008838"/>
<path d="M109.255 123.386C109.452 123.281 109.653 123.25 109.86 123.293C110.066 123.343 110.232 123.465 110.359 123.658L114.873 130.518C114.938 130.617 114.982 130.721 115.004 130.83C115.022 130.941 115.021 131.047 115 131.147C114.978 131.254 114.935 131.353 114.872 131.444C114.811 131.539 114.731 131.619 114.632 131.685L110.115 134.657C110.02 134.719 109.917 134.759 109.806 134.777C109.697 134.799 109.591 134.798 109.489 134.773C109.389 134.752 109.293 134.71 109.202 134.647C109.107 134.587 109.027 134.507 108.961 134.408C108.896 134.309 108.855 134.204 108.837 134.092C108.818 133.988 108.817 133.883 108.835 133.779C108.855 133.679 108.896 133.582 108.956 133.486C109.02 133.395 109.099 133.319 109.193 133.256L113.014 130.743L111.749 128.82L108.761 130.786C108.669 130.852 108.567 130.894 108.456 130.912C108.344 130.93 108.237 130.927 108.134 130.902C108.027 130.88 107.927 130.835 107.833 130.767C107.738 130.706 107.659 130.629 107.597 130.534C107.531 130.435 107.491 130.332 107.476 130.225C107.457 130.121 107.458 130.015 107.48 129.908C107.501 129.808 107.543 129.713 107.606 129.622C107.67 129.53 107.749 129.454 107.843 129.392L110.831 127.426L109.422 125.283L105.601 127.797C105.507 127.859 105.403 127.899 105.292 127.917C105.18 127.935 105.073 127.931 104.971 127.906C104.868 127.882 104.771 127.837 104.68 127.774C104.585 127.713 104.506 127.636 104.444 127.541C104.378 127.442 104.337 127.337 104.319 127.225C104.3 127.121 104.299 127.017 104.317 126.913C104.337 126.813 104.378 126.715 104.438 126.62C104.502 126.529 104.582 126.454 104.68 126.396L109.255 123.386Z" fill="#008838"/>
<path d="M100.551 133.134C101.039 133.012 101.503 132.935 101.942 132.904C102.381 132.872 102.785 132.902 103.156 132.993C103.526 133.084 103.855 133.239 104.142 133.458C104.427 133.684 104.659 133.992 104.837 134.38C105.018 134.773 105.1 135.169 105.084 135.567C105.069 135.965 104.979 136.344 104.815 136.702C104.646 137.063 104.41 137.389 104.108 137.681C103.803 137.98 103.454 138.219 103.06 138.399C102.784 138.526 102.5 138.623 102.207 138.689C101.91 138.757 101.616 138.79 101.326 138.787C101.038 138.789 100.757 138.751 100.483 138.672C100.211 138.599 99.9627 138.483 99.7376 138.326C99.6632 138.275 99.6065 138.213 99.5675 138.14C99.5238 138.07 99.4952 137.995 99.4817 137.916C99.4635 137.84 99.4581 137.76 99.4655 137.677C99.4704 137.601 99.4865 137.532 99.514 137.468C99.5419 137.393 99.5857 137.322 99.6456 137.255C99.7055 137.188 99.7754 137.13 99.8554 137.082C99.9375 137.039 100.027 137.006 100.125 136.984C100.224 136.966 100.329 136.967 100.439 136.984C100.615 137.034 100.777 137.073 100.926 137.101C101.075 137.129 101.222 137.141 101.368 137.136C101.515 137.137 101.667 137.115 101.823 137.072C101.976 137.036 102.146 136.975 102.333 136.889C102.544 136.792 102.729 136.676 102.888 136.541C103.047 136.406 103.172 136.258 103.262 136.097C103.348 135.939 103.4 135.773 103.417 135.601C103.43 135.431 103.397 135.262 103.32 135.093C103.23 134.897 103.104 134.759 102.943 134.679C102.782 134.6 102.59 134.558 102.367 134.553C102.146 134.552 101.899 134.578 101.628 134.628C101.354 134.686 101.061 134.75 100.747 134.82C100.381 134.886 100.014 134.927 99.6472 134.942C99.2777 134.964 98.9262 134.933 98.5926 134.848C98.259 134.763 97.9541 134.611 97.678 134.392C97.3994 134.18 97.1698 133.877 96.9895 133.484C96.8091 133.091 96.7235 132.688 96.7327 132.276C96.742 131.864 96.8314 131.466 97.001 131.082C97.168 130.705 97.4136 130.357 97.7377 130.039C98.0571 129.722 98.4392 129.462 98.8839 129.258C99.2397 129.095 99.5994 128.983 99.9632 128.924C100.329 128.87 100.683 128.857 101.026 128.887C101.366 128.924 101.684 129.002 101.982 129.12C102.282 129.243 102.543 129.398 102.765 129.585C102.882 129.679 102.97 129.778 103.028 129.881C103.082 129.986 103.114 130.091 103.122 130.195C103.13 130.299 103.118 130.398 103.087 130.491C103.054 130.592 103.007 130.681 102.947 130.76C102.802 130.951 102.634 131.053 102.442 131.068C102.248 131.089 102.013 131.027 101.737 130.881C101.409 130.686 101.059 130.578 100.686 130.556C100.316 130.539 99.9293 130.623 99.5267 130.807C99.3301 130.897 99.15 131.011 98.9864 131.149C98.8181 131.288 98.6816 131.441 98.5769 131.608C98.4743 131.78 98.4118 131.959 98.3895 132.145C98.3624 132.333 98.3918 132.521 98.4777 132.708C98.5722 132.914 98.6953 133.059 98.8469 133.142C99.0006 133.23 99.1706 133.28 99.3569 133.29C99.5386 133.303 99.7337 133.29 99.9424 133.251C100.146 133.214 100.349 133.175 100.551 133.134Z" fill="#008838"/>
<path d="M91.6714 140.706L89.63 133.609C89.5973 133.495 89.5889 133.382 89.605 133.27C89.6176 133.165 89.651 133.067 89.7053 132.976C89.7596 132.886 89.8299 132.804 89.916 132.731C90.0036 132.663 90.1044 132.612 90.2182 132.58C90.3271 132.548 90.4367 132.538 90.5471 132.549C90.654 132.567 90.7545 132.599 90.8486 132.647C90.9379 132.697 91.0183 132.762 91.0899 132.843C91.1579 132.931 91.2083 133.032 91.2411 133.145L93.2825 140.243L95.5023 139.605C95.6162 139.572 95.7283 139.561 95.8386 139.572C95.9455 139.59 96.0467 139.625 96.1423 139.678C96.233 139.732 96.3141 139.8 96.3857 139.881C96.4537 139.969 96.5042 140.069 96.5369 140.183C96.5682 140.292 96.5783 140.402 96.5672 140.512C96.5511 140.624 96.5184 140.724 96.469 140.814C96.4161 140.909 96.3484 140.99 96.2657 141.057C96.1795 141.13 96.0795 141.183 95.9657 141.216L89.9149 142.956C89.8061 142.987 89.6957 142.995 89.5839 142.979C89.4735 142.968 89.373 142.935 89.2824 142.881C89.1868 142.828 89.1049 142.757 89.0369 142.67C88.9639 142.584 88.9117 142.486 88.8804 142.377C88.8476 142.263 88.8393 142.151 88.8554 142.039C88.8679 141.933 88.9006 141.833 88.9535 141.737C89.0029 141.648 89.0707 141.567 89.1568 141.494C89.2444 141.426 89.3427 141.376 89.4516 141.345L91.6714 140.706Z" fill="#008838"/>
</svg>
