<svg width="60" height="60" viewBox="0 0 60 60" fill="none" xmlns="http://www.w3.org/2000/svg">
<path d="M30 55C33.6138 55 36.6306 52.4441 37.3414 49.0414C37.4255 48.6392 37.9292 48.4305 38.2731 48.6555C41.1818 50.559 45.1223 50.2331 47.6776 47.6777C50.233 45.1224 50.5589 41.1818 48.6554 38.2731C48.4304 37.9293 48.6391 37.4255 49.0413 37.3415C52.4441 36.6307 55 33.6138 55 30C55 26.3862 52.4441 23.3694 49.0414 22.6586C48.6392 22.5745 48.4305 22.0707 48.6555 21.7269C50.559 18.8182 50.2331 14.8777 47.6777 12.3223C45.1224 9.76699 41.1818 9.44106 38.2731 11.3446C37.9293 11.5696 37.4255 11.3609 37.3415 10.9586C36.6307 7.55591 33.6138 5 30 5C26.3862 5 23.3694 7.55587 22.6586 10.9586C22.5745 11.3608 22.0708 11.5695 21.7269 11.3445C18.8182 9.441 14.8777 9.76694 12.3223 12.3223C9.76699 14.8776 9.44106 18.8182 11.3446 21.7269C11.5696 22.0707 11.3609 22.5745 10.9587 22.6585C7.55591 23.3693 5 26.3862 5 30C5 33.6138 7.55587 36.6306 10.9586 37.3414C11.3608 37.4255 11.5695 37.9292 11.3445 38.2731C9.441 41.1818 9.76694 45.1223 12.3223 47.6776C14.8776 50.233 18.8182 50.5589 21.7269 48.6554C22.0707 48.4304 22.5745 48.6391 22.6585 49.0413C23.3693 52.4441 26.3862 55 30 55Z" fill="#008838" stroke="#008838" stroke-linecap="round"/>
<path d="M20 31.25L26.25 37.5L40 23.75" stroke="white" stroke-width="2" stroke-linecap="round"/>
</svg>
